<svg xmlns="http://www.w3.org/2000/svg" width="430" height="430" style="width:100%;height:100%;transform:translate3d(0,0,0);content-visibility:visible" viewBox="0 0 430 430"><defs><clipPath id="k"><path d="M0 0h430v430H0z"/></clipPath><clipPath id="A"><path d="M0 0h430v430H0z"/></clipPath><clipPath id="g"><path d="M0 0h430v430H0z"/></clipPath><clipPath id="x"><path d="M0 0h430v430H0z"/></clipPath><clipPath id="h"><path d="M0 0h430v430H0z"/></clipPath><clipPath id="u"><path d="M0 0h430v430H0z"/></clipPath><clipPath id="i"><path d="M0 0h430v430H0z"/></clipPath><clipPath id="r"><path d="M0 0h430v430H0z"/></clipPath><clipPath id="j"><path d="M0 0h430v430H0z"/></clipPath><clipPath id="o"><path d="M0 0h430v430H0z"/></clipPath><clipPath id="l"><path d="M0 0h430v430H0z"/></clipPath><filter id="B" width="300%" height="300%" x="-100%" y="-100%"><feGaussianBlur result="filter_result_0"/></filter><filter id="y" width="300%" height="300%" x="-100%" y="-100%"><feGaussianBlur result="filter_result_0"/></filter><filter id="w" width="300%" height="300%" x="-100%" y="-100%"><feGaussianBlur result="filter_result_0" stdDeviation="52.5 52.5"/></filter><filter id="s" width="300%" height="300%" x="-100%" y="-100%"><feGaussianBlur result="filter_result_0"/></filter><filter id="p" width="300%" height="300%" x="-100%" y="-100%"><feGaussianBlur result="filter_result_0"/></filter><filter id="m" width="300%" height="300%" x="-100%" y="-100%"><feGaussianBlur result="filter_result_0"/></filter><mask id="C" mask-type="alpha"><use xmlns:ns1="http://www.w3.org/1999/xlink" ns1:href="#a"/></mask><mask id="z" mask-type="alpha"><use xmlns:ns2="http://www.w3.org/1999/xlink" ns2:href="#b"/></mask><mask id="v" mask-type="alpha"><use xmlns:ns3="http://www.w3.org/1999/xlink" ns3:href="#c"/></mask><mask id="t" mask-type="alpha"><use xmlns:ns4="http://www.w3.org/1999/xlink" ns4:href="#d"/></mask><mask id="q" mask-type="alpha"><use xmlns:ns5="http://www.w3.org/1999/xlink" ns5:href="#e"/></mask><mask id="n" mask-type="alpha"><use xmlns:ns6="http://www.w3.org/1999/xlink" ns6:href="#f"/></mask><g id="a" fill-opacity="0" stroke-linecap="round" stroke-linejoin="round" clip-path="url(#g)" style="display:none"><path class="secondary" style="display:none"/><path class="primary" style="display:none"/><path class="secondary" style="display:none"/></g><g id="b" fill-opacity="0" stroke-linecap="round" stroke-linejoin="round" clip-path="url(#h)" style="display:none"><path class="primary" style="display:none"/><path class="secondary" style="display:none"/></g><g id="c" fill-opacity="0" stroke-linecap="round" stroke-linejoin="round" clip-path="url(#i)" style="display:block"><path stroke="#08A88A" stroke-width="12.6" d="M0 0" class="secondary" style="display:block" transform="translate(215 215)"/><path stroke="#121331" stroke-width="3.65" d="M-31.669 6.468c-1.077-3.333-1.708-6.877-1.708-10.573 0-19.161 16.15-34.551 35.592-33.299 16.483 1.061 29.883 14.364 31.07 30.838.31 4.3-.235 8.431-1.383 12.286C26.544 23.707.003 50.2.003 50.2S-24.979 27.166-31.669 6.468z" class="primary" style="display:block" transform="rotate(.309 -36302.174 40099.033) scale(3.5)"/><path stroke="#08A88A" stroke-width="3.6" d="M15.704-4.103C15.704 4.57 8.673 11.6 0 11.6c-8.673 0-15.704-7.03-15.704-15.703 0-8.673 7.031-15.704 15.704-15.704 8.673 0 15.704 7.031 15.704 15.704z" class="secondary" style="display:block" transform="rotate(.309 -36302.174 40099.033) scale(3.5)"/></g><g id="d" fill-opacity="0" stroke-linecap="round" stroke-linejoin="round" clip-path="url(#j)" style="display:none"><path class="secondary" style="display:none"/><g style="display:none"><path class="secondary"/><path class="primary"/></g></g><g id="e" fill-opacity="0" stroke-linecap="round" stroke-linejoin="round" style="display:none"><path class="secondary"/><path class="primary"/></g><g id="f" fill-opacity="0" stroke-linecap="round" stroke-linejoin="round" style="display:none"><path class="secondary"/><path class="primary"/></g></defs><g clip-path="url(#k)"><g clip-path="url(#l)" filter="url(#m)" mask="url(#n)" style="display:none"><g class="design"><path class="primary"/></g><g class="design"><path class="secondary"/></g></g><g clip-path="url(#o)" filter="url(#p)" mask="url(#q)" style="display:none"><g class="design"><path class="primary"/></g><g class="design"><path class="secondary"/></g></g><g clip-path="url(#r)" filter="url(#s)" mask="url(#t)" style="display:none"><g class="design"><path class="primary"/></g><g class="design"><path class="secondary"/></g></g><g clip-path="url(#u)" mask="url(#v)" style="display:block"><g filter="url(#w)" transform="rotate(-93.991 238.778 -16.585) scale(2.4)"><g class="design"><path fill="#4BE1EC" d="M0-250c137.975 0 250 112.025 250 250S137.975 250 0 250-250 137.975-250 0-137.975-250 0-250z" class="primary"/></g><g class="design"><path fill="#CB5EEE" d="M113.242-295.384c97.478 0 176.5 79.022 176.5 176.5s-79.022 176.5-176.5 176.5c-43.948 0-74.396-34.057-105.29-60.631-37.631-32.369-71.21-62.338-71.21-115.869 0-97.478 79.022-176.5 176.5-176.5z" class="secondary"/></g></g></g><g clip-path="url(#x)" filter="url(#y)" mask="url(#z)" style="display:none"><g class="design"><path class="primary"/></g><g class="design"><path class="secondary"/></g></g><g clip-path="url(#A)" filter="url(#B)" mask="url(#C)" style="display:none"><g class="design"><path class="primary"/></g><g class="design"><path class="secondary"/></g></g></g></svg>