<?xml version="1.0" encoding="UTF-8" ?>
<!DOCTYPE svg PUBLIC "-//W3C//DTD SVG 1.1//EN" "http://www.w3.org/Graphics/SVG/1.1/DTD/svg11.dtd">
<svg width="190pt" height="130pt" viewBox="0 0 190 130" version="1.1" xmlns="http://www.w3.org/2000/svg">
<g id="#fdfdfdff">
</g>
<g id="#464545ff">
<path fill="#464545" opacity="1.00" d=" M 51.00 21.89 C 54.23 21.99 57.46 22.11 60.69 22.28 C 61.34 50.85 60.86 79.42 61.01 108.00 C 58.50 108.00 53.50 108.00 50.99 108.00 C 51.00 79.30 50.99 50.59 51.00 21.89 Z" />
<path fill="#464545" opacity="1.00" d=" M 6.24 49.25 C 13.09 44.04 22.32 44.58 30.36 45.61 C 35.04 47.09 40.91 49.84 41.46 55.40 C 42.55 68.58 42.37 81.85 41.93 95.06 C 41.63 101.38 36.19 106.38 30.04 107.01 C 20.91 109.38 9.04 108.25 3.45 99.63 C 0.84 91.90 0.73 81.44 8.33 76.43 C 16.35 72.62 25.07 70.41 32.86 66.07 C 31.80 62.67 32.53 58.04 29.72 55.28 C 26.01 53.07 21.17 54.04 17.11 54.08 C 13.98 55.49 12.68 59.05 11.02 61.83 C 7.76 61.80 4.51 61.67 1.26 61.41 C 2.57 57.38 2.69 52.19 6.24 49.25 M 15.81 83.88 C 11.30 86.41 11.22 93.08 14.21 96.80 C 17.77 100.20 23.77 99.33 28.05 98.07 C 35.44 94.10 30.80 83.71 32.26 77.20 C 26.82 79.51 21.04 81.09 15.81 83.88 Z" />
<path fill="#464545" opacity="1.00" d=" M 69.01 45.00 C 71.52 45.00 76.53 45.00 79.03 45.00 C 79.15 60.67 78.48 76.36 79.11 92.01 C 79.24 95.43 81.96 98.36 85.40 98.62 C 90.41 100.45 95.13 98.01 99.14 95.33 C 98.93 78.56 98.99 61.78 99.01 45.00 C 101.51 45.00 106.49 45.00 108.98 45.00 C 108.76 62.34 109.55 79.69 108.90 97.02 C 107.29 105.76 96.59 108.49 89.01 108.07 C 81.85 108.54 72.36 105.68 69.73 98.34 C 68.00 80.63 69.33 62.77 69.01 45.00 Z" />
<path fill="#464545" opacity="1.00" d=" M 123.04 49.03 C 128.88 43.95 137.10 45.59 144.18 44.77 C 143.67 47.56 143.19 50.36 142.64 53.14 C 138.91 53.86 134.79 53.56 131.33 55.38 C 128.31 56.95 128.00 61.04 128.15 63.99 C 127.61 78.65 128.04 93.33 128.02 108.00 C 125.52 108.00 120.52 108.00 118.02 108.00 C 118.15 91.33 117.51 74.66 118.19 58.00 C 118.44 54.53 119.77 50.82 123.04 49.03 Z" />
<path fill="#464545" opacity="1.00" d=" M 151.66 49.66 C 158.52 43.99 168.10 44.65 176.36 45.61 C 182.47 46.91 189.13 51.91 187.85 58.99 C 188.31 71.31 188.46 83.68 187.89 96.00 C 187.78 102.19 181.57 106.06 176.06 107.07 C 166.82 109.36 154.07 108.34 149.28 98.71 C 146.86 90.88 147.26 79.87 155.67 75.74 C 163.32 72.35 171.61 70.37 178.84 66.03 C 177.71 62.45 178.74 55.43 173.62 54.35 C 169.07 53.96 162.90 52.19 160.08 56.96 C 157.48 61.76 151.85 61.84 147.03 62.75 C 148.23 58.38 148.56 53.26 151.66 49.66 M 161.81 83.88 C 157.30 86.41 157.22 93.08 160.21 96.80 C 163.77 100.20 169.77 99.33 174.05 98.07 C 181.44 94.10 176.79 83.71 178.26 77.20 C 172.82 79.51 167.04 81.09 161.81 83.88 Z" />
</g>
</svg>
