<?xml version="1.0" encoding="UTF-8" standalone="no"?>
<svg
   width="512"
   height="512"
   viewBox="0 0 512 512"
   version="1.1"
   id="svg6"
   sodipodi:docname="alura.svg"
   xmlns:inkscape="http://www.inkscape.org/namespaces/inkscape"
   xmlns:sodipodi="http://sodipodi.sourceforge.net/DTD/sodipodi-0.dtd"
   xmlns="http://www.w3.org/2000/svg"
   xmlns:svg="http://www.w3.org/2000/svg">
  <defs
     id="defs6" />
  <sodipodi:namedview
     id="namedview6"
     pagecolor="#ffffff"
     bordercolor="#666666"
     borderopacity="1.0"
     inkscape:showpageshadow="2"
     inkscape:pageopacity="0.0"
     inkscape:pagecheckerboard="0"
     inkscape:deskcolor="#d1d1d1"
     inkscape:document-units="pt" />
  <g
     id="g6"
     style="fill:#003380"
     transform="matrix(4.5179733,0,0,4.5179733,-196.05147,-196.15318)">
    <g
       id="#fcfefdff"
       style="fill:#003380">
      <path
         fill="#fcfefd"
         opacity="1"
         d="m 89.51,44.7 c 7.31,-1.38 15.06,-1.59 22.28,0.42 6.55,1.76 12.15,7.79 11.97,14.81 0.05,14.05 0.01,28.1 0.01,42.15 0.02,4.8 -2.16,9.67 -6.3,12.29 -7.49,4.84 -16.98,4.96 -25.53,3.65 -5.85,-1.07 -12.33,-4.09 -14.48,-10.05 -1.68,-4.14 -1.21,-8.65 -1.22,-13 0.02,-4.39 1.65,-8.84 4.66,-12.06 3.19,-3.46 8.02,-4.29 12.26,-5.83 4.6,-1.67 9.29,-3.11 13.79,-5.04 6.35,-2.76 6.63,-13.31 0.37,-16.3 -4.62,-2.09 -10.26,-2.1 -14.9,-0.09 -3.13,1.49 -3.68,5.07 -4.7,8.01 -3.65,0.41 -7.77,0.87 -11.23,-0.2 -0.7,-3.54 -0.26,-7.33 1.42,-10.54 2.19,-4.48 6.95,-7.04 11.6,-8.22 m 12.55,41.49 c -3.71,1.45 -7.94,2.14 -10.95,4.91 -4.01,3.89 -3.68,11 0.21,14.82 4.14,2.81 9.62,2.46 14.3,1.53 3.52,-0.7 5.92,-3.88 6.19,-7.38 0.52,-6.26 -0.02,-12.56 0.28,-18.83 -2.39,3.16 -6.6,3.54 -10.03,4.95 z"
         id="path1"
         style="fill:#003380" />
      <path
         fill="#fcfefd"
         opacity="1"
         d="m 71.24,133.18 c 0.69,-1.12 0.91,-2.89 2.46,-3.1 1.13,1.32 1.77,2.95 2.49,4.52 3.04,6.78 6.35,13.44 9.33,20.24 -0.39,1.71 -2.28,1.05 -3.54,1.16 -2.39,0.45 -2.97,-2.19 -3.93,-3.76 -3.12,-0.02 -6.25,-0.02 -9.37,-0.01 -0.95,1.42 -1.3,4.04 -3.55,3.75 -1.24,-0.17 -3.26,0.65 -3.88,-0.88 3.02,-7.44 6.8,-14.55 9.99,-21.92 m -0.39,13.84 c 1.66,-0.01 3.33,-0.01 4.99,0 -0.79,-1.75 -1.58,-3.52 -2.39,-5.27 -0.82,1.78 -1.8,3.48 -2.6,5.27 z"
         id="path2"
         style="fill:#003380" />
      <path
         fill="#fcfefd"
         opacity="1"
         d="m 107.48,140.47 c 1.84,-3.65 3.18,-7.57 5.54,-10.94 2.25,3.4 3.66,7.24 5.45,10.89 2.27,5.17 5.05,10.13 6.88,15.48 -1.76,0.03 -3.53,0.16 -5.29,0 -1.23,-0.85 -1.63,-2.38 -2.32,-3.62 -3.15,-0.06 -6.31,-0.06 -9.46,-0.02 -0.78,1.16 -1.04,2.86 -2.33,3.57 -1.77,0.24 -3.56,0.08 -5.33,0.05 1.85,-5.32 4.58,-10.27 6.86,-15.41 m 3.01,6.55 c 1.67,-0.01 3.33,-0.01 5,-0.01 -0.71,-1.59 -1.39,-3.19 -2.18,-4.73 -1.74,0.73 -1.83,3.27 -2.82,4.74 z"
         id="path3"
         style="fill:#003380" />
      <path
         fill="#fcfefd"
         opacity="1"
         d="m 130.56,129.96 c 1.09,0.34 2.23,0.76 2.63,1.97 2.52,4.63 4.93,9.31 7.5,13.92 2.59,-4.53 4.89,-9.22 7.46,-13.76 0.46,-1.15 1.54,-1.71 2.56,-2.27 1.71,8.65 3.25,17.34 4.4,26.08 -1.91,0.03 -3.82,0.04 -5.73,0.03 -0.59,-3.73 -1.14,-7.46 -1.69,-11.2 -2.41,3.83 -3.82,8.26 -6.67,11.79 -0.36,-0.21 -1.07,-0.63 -1.43,-0.84 -2.14,-3.55 -3.75,-7.4 -5.95,-10.93 -0.54,3.72 -1.02,7.45 -1.58,11.17 -1.89,0.03 -3.78,0.05 -5.66,0.06 0.95,-8.73 2.66,-17.37 4.16,-26.02 z"
         id="path4"
         style="fill:#003380" />
      <path
         fill="#fcfefd"
         opacity="1"
         d="m 45.07,130.6 c 1.85,-0.04 3.7,-0.07 5.55,-0.1 0.27,6.67 0.06,13.34 0.15,20.02 3.09,-0.04 6.18,-0.04 9.26,0.17 -0.04,1.74 -0.08,3.48 -0.11,5.22 -4.95,0.12 -9.9,0.11 -14.85,0 -0.09,-8.44 -0.09,-16.87 0,-25.31 z"
         id="path5"
         style="fill:#003380" />
      <path
         fill="#fcfefd"
         opacity="1"
         d="m 84.47,135.92 c 0.02,-1.81 0.11,-3.61 0.18,-5.41 5.76,0.01 11.52,-0.05 17.28,0.05 0.01,1.78 0.01,3.56 0,5.34 -1.9,0.06 -3.8,0.08 -5.7,0.12 -0.01,6.62 0.07,13.24 -0.08,19.85 -1.93,0.05 -3.87,0.08 -5.8,0.09 -0.2,-6.65 -0.07,-13.3 -0.11,-19.95 -1.92,-0.03 -3.85,-0.05 -5.77,-0.09 z"
         id="path6"
         style="fill:#003380" />
    </g>
  </g>
</svg>
