<?xml version="1.0" encoding="UTF-8" standalone="no"?>
<svg
   width="128"
   height="128"
   viewBox="0 0 128 128"
   version="1.1"
   id="svg9"
   sodipodi:docname="basquet.svg"
   xmlns:inkscape="http://www.inkscape.org/namespaces/inkscape"
   xmlns:sodipodi="http://sodipodi.sourceforge.net/DTD/sodipodi-0.dtd"
   xmlns="http://www.w3.org/2000/svg"
   xmlns:svg="http://www.w3.org/2000/svg">
  <defs
     id="defs9" />
  <sodipodi:namedview
     id="namedview9"
     pagecolor="#ffffff"
     bordercolor="#666666"
     borderopacity="1.0"
     inkscape:showpageshadow="2"
     inkscape:pageopacity="0.0"
     inkscape:pagecheckerboard="0"
     inkscape:deskcolor="#d1d1d1"
     inkscape:document-units="pt" />
  <g
     id="#191a1bff"
     transform="matrix(0.22133626,0,0,0.22133626,-5.9088141,-7.1291817)">
    <path
       fill="#191a1b"
       opacity="1"
       d="m 289.33,49.24 c 53.2,-4.18 107.58,5.91 155.23,30.13 36.45,18.43 68.92,44.83 93.92,77.17 26.27,33.78 44.11,74.15 50.82,116.45 5.65,35.63 3.71,72.47 -5.92,107.25 -10.06,36.69 -28.68,70.9 -53.46,99.71 -25.77,30.07 -58.21,54.3 -94.13,70.92 C 396.56,568.98 353.22,578.35 310,577.5 230.36,577.53 150.96,542.66 98.4,482.57 61.79,441.42 38.5,388.3 34.38,333.27 c -2.53,-31.24 0.75,-62.99 9.85,-93 13.81,-46.43 41.44,-88.4 77.66,-120.43 46.03,-41.13 106.01,-65.85 167.44,-70.6 m -59.4,12.68 c -4.43,1.01 -6.97,5.07 -9.6,8.4 -23.03,29.56 -43.4,61.24 -60.29,94.71 -19.74,39.55 -34.75,81.72 -41.89,125.43 7.21,1.29 14.58,1.69 21.89,1.19 12.08,-1.63 23.59,-5.99 34.68,-10.92 29.86,-13.56 57.15,-32.1 83.39,-51.61 15.53,-11.8 30.5,-24.37 46.71,-35.25 57.3,-38.82 122.95,-64.24 190.35,-79.02 -1.67,-1.67 -3.35,-3.34 -5.24,-4.77 C 480.15,102.69 470.11,95.59 459.48,89.47 419.47,65.7 373.45,52.5 327.03,50.24 317,49.95 306.96,50.09 296.93,50.31 c -22.68,1.34 -45.2,5.23 -67,11.61 M 56.11,213.08 c -1.29,3.87 -4.72,7.7 -3.11,11.97 3.55,12.11 7.95,24.23 15.48,34.5 9.4,13.41 23.24,23.68 38.99,28.33 12.57,-72.55 44.51,-140.68 86.76,-200.58 3.92,-5.76 8.53,-11.05 11.93,-17.15 -65.92,25.86 -121.97,77.6 -150.05,142.93 m 447.45,-86.6 c -74.91,15.12 -148.15,43.45 -209.7,89.36 -35.06,27.46 -71.09,54.4 -111.61,73.35 -12.93,5.66 -26.24,10.94 -40.31,12.89 -8.51,1.1 -17.02,-0.29 -25.5,-0.95 -3.51,23.91 -4,48.15 -2.9,72.25 13.73,2.22 27.63,3.1 41.48,4.13 10.68,0.09 21.31,1.26 31.99,1.07 20.67,0.31 41.34,-0.59 61.99,-1.41 72.69,-3.35 145.51,-7.26 217.57,-17.9 42.16,-6.54 84.36,-15.38 123.78,-32.08 2.52,-42 -5.89,-84.57 -24.07,-122.5 -13.9,-28.97 -33.22,-55.3 -56.5,-77.42 -1.63,-1.79 -4.16,-1.08 -6.22,-0.79 M 43.53,249.45 c -8.6,32.99 -10.57,67.75 -5.25,101.46 0.1,1.25 0.58,2.53 1.94,2.85 19.64,9.08 40.8,14.35 62.05,18.02 0.14,-16.92 -0.68,-33.9 1.09,-50.77 0.39,-7.55 1.68,-15.01 2.4,-22.53 -8.57,-3.02 -17.21,-6.24 -24.61,-11.63 -16.48,-11.15 -27.7,-28.55 -34.44,-47 -1.64,2.99 -2.43,6.3 -3.18,9.6 M 545.8,357.73 c -49.02,12.76 -99.45,18.99 -149.82,23.41 -54.9,4.66 -109.95,7.13 -165,9.08 -22.64,0.28 -45.31,0.67 -67.94,-0.41 -16.21,-0.63 -32.32,-2.45 -48.45,-4.16 1.47,14.41 3.59,28.78 6.91,42.89 1.14,5.34 2.23,10.72 4.14,15.86 12.67,2.89 25.28,6.07 37.52,10.47 20.6,7.46 40.61,16.42 60.53,25.52 18.07,8.6 36.34,16.81 54.35,25.55 38.94,18.25 77.88,36.64 118.17,51.77 3.14,1.07 6.17,2.95 9.57,2.92 3.87,-0.74 7.47,-2.45 11.15,-3.79 53.2,-20.1 100.04,-56.94 131.57,-104.33 21.45,-32.44 35.71,-69.78 40.28,-108.45 -14.19,4.98 -28.39,9.98 -42.98,13.67 m -504.54,9.4 c 6.03,27.03 16.49,53.14 31.04,76.71 2.77,-0.25 5.53,-0.63 8.23,-1.33 5.72,-1.43 11.64,-0.79 17.47,-0.93 5.01,-0.17 9.98,0.54 14.94,1.17 -0.28,-2.25 -0.53,-4.51 -1.05,-6.71 -4.2,-17.19 -6.92,-34.74 -8.53,-52.35 -21.21,-3.3 -42.12,-8.68 -62.1,-16.56 m 38.6,87.31 c 1.03,3.22 3.18,5.86 5.22,8.5 15.94,21.75 35.18,41.21 57.07,56.98 -1.91,-5 -4.44,-9.72 -6.55,-14.63 -7.35,-16 -13.35,-32.59 -18.53,-49.41 -12.23,-2.33 -24.83,-2.76 -37.21,-1.44 m 50.01,3.87 c 0.74,3.39 1.7,6.74 2.89,10.02 7.3,20.43 16.1,40.35 26.53,59.38 1.56,2.66 2.56,5.97 5.42,7.54 45.66,27.32 99.11,41.59 152.31,40.42 22.98,0.09 45.94,-3.16 68.2,-8.83 -4.32,-2.3 -9.04,-3.65 -13.57,-5.46 -58.37,-22.54 -114.2,-50.94 -171.09,-76.85 -22.94,-10.28 -46.11,-20.5 -70.69,-26.22 z"
       id="path1" />
  </g>
  <g
     id="#ed6e1cff"
     transform="matrix(0.22133626,0,0,0.22133626,-5.9088141,-7.1291817)">
    <path
       fill="#ed6e1c"
       opacity="1"
       d="m 229.93,61.92 c 21.8,-6.38 44.32,-10.27 67,-11.61 10.03,-0.22 20.07,-0.36 30.1,-0.07 46.42,2.26 92.44,15.46 132.45,39.23 10.63,6.12 20.67,13.22 30.45,20.61 1.89,1.43 3.57,3.1 5.24,4.77 -67.4,14.78 -133.05,40.2 -190.35,79.02 -16.21,10.88 -31.18,23.45 -46.71,35.25 -26.24,19.51 -53.53,38.05 -83.39,51.61 -11.09,4.93 -22.6,9.29 -34.68,10.92 -7.31,0.5 -14.68,0.1 -21.89,-1.19 7.14,-43.71 22.15,-85.88 41.89,-125.43 16.89,-33.47 37.26,-65.15 60.29,-94.71 2.63,-3.33 5.17,-7.39 9.6,-8.4 z"
       id="path2" />
    <path
       fill="#ed6e1c"
       opacity="1"
       d="M 56.11,213.08 C 84.19,147.75 140.24,96.01 206.16,70.15 c -3.4,6.1 -8.01,11.39 -11.93,17.15 -42.25,59.9 -74.19,128.03 -86.76,200.58 C 91.72,283.23 77.88,272.96 68.48,259.55 60.95,249.28 56.55,237.16 53,225.05 c -1.61,-4.27 1.82,-8.1 3.11,-11.97 z"
       id="path3" />
    <path
       fill="#ed6e1c"
       opacity="1"
       d="m 503.56,126.48 c 2.06,-0.29 4.59,-1 6.22,0.79 23.28,22.12 42.6,48.45 56.5,77.42 18.18,37.93 26.59,80.5 24.07,122.5 -39.42,16.7 -81.62,25.54 -123.78,32.08 -72.06,10.64 -144.88,14.55 -217.57,17.9 -20.65,0.82 -41.32,1.72 -61.99,1.41 -10.68,0.19 -21.31,-0.98 -31.99,-1.07 -13.85,-1.03 -27.75,-1.91 -41.48,-4.13 -1.1,-24.1 -0.61,-48.34 2.9,-72.25 8.48,0.66 16.99,2.05 25.5,0.95 14.07,-1.95 27.38,-7.23 40.31,-12.89 40.52,-18.95 76.55,-45.89 111.61,-73.35 61.55,-45.91 134.79,-74.24 209.7,-89.36 z"
       id="path4" />
    <path
       fill="#ed6e1c"
       opacity="1"
       d="m 43.53,249.45 c 0.75,-3.3 1.54,-6.61 3.18,-9.6 6.74,18.45 17.96,35.85 34.44,47 7.4,5.39 16.04,8.61 24.61,11.63 -0.72,7.52 -2.01,14.98 -2.4,22.53 -1.77,16.87 -0.95,33.85 -1.09,50.77 -21.25,-3.67 -42.41,-8.94 -62.05,-18.02 -1.36,-0.32 -1.84,-1.6 -1.94,-2.85 -5.32,-33.71 -3.35,-68.47 5.25,-101.46 z"
       id="path5" />
    <path
       fill="#ed6e1c"
       opacity="1"
       d="m 545.8,357.73 c 14.59,-3.69 28.79,-8.69 42.98,-13.67 -4.57,38.67 -18.83,76.01 -40.28,108.45 -31.53,47.39 -78.37,84.23 -131.57,104.33 -3.68,1.34 -7.28,3.05 -11.15,3.79 -3.4,0.03 -6.43,-1.85 -9.57,-2.92 -40.29,-15.13 -79.23,-33.52 -118.17,-51.77 -18.01,-8.74 -36.28,-16.95 -54.35,-25.55 -19.92,-9.1 -39.93,-18.06 -60.53,-25.52 -12.24,-4.4 -24.85,-7.58 -37.52,-10.47 -1.91,-5.14 -3,-10.52 -4.14,-15.86 -3.32,-14.11 -5.44,-28.48 -6.91,-42.89 16.13,1.71 32.24,3.53 48.45,4.16 22.63,1.08 45.3,0.69 67.94,0.41 55.05,-1.95 110.1,-4.42 165,-9.08 50.37,-4.42 100.8,-10.65 149.82,-23.41 z"
       id="path6" />
    <path
       fill="#ed6e1c"
       opacity="1"
       d="m 41.26,367.13 c 19.98,7.88 40.89,13.26 62.1,16.56 1.61,17.61 4.33,35.16 8.53,52.35 0.52,2.2 0.77,4.46 1.05,6.71 -4.96,-0.63 -9.93,-1.34 -14.94,-1.17 -5.83,0.14 -11.75,-0.5 -17.47,0.93 -2.7,0.7 -5.46,1.08 -8.23,1.33 C 57.75,420.27 47.29,394.16 41.26,367.13 Z"
       id="path7" />
    <path
       fill="#ed6e1c"
       opacity="1"
       d="m 79.86,454.44 c 12.38,-1.32 24.98,-0.89 37.21,1.44 5.18,16.82 11.18,33.41 18.53,49.41 2.11,4.91 4.64,9.63 6.55,14.63 -21.89,-15.77 -41.13,-35.23 -57.07,-56.98 -2.04,-2.64 -4.19,-5.28 -5.22,-8.5 z"
       id="path8" />
    <path
       fill="#ed6e1c"
       opacity="1"
       d="m 129.87,458.31 c 24.58,5.72 47.75,15.94 70.69,26.22 56.89,25.91 112.72,54.31 171.09,76.85 4.53,1.81 9.25,3.16 13.57,5.46 -22.26,5.67 -45.22,8.92 -68.2,8.83 -53.2,1.17 -106.65,-13.1 -152.31,-40.42 -2.86,-1.57 -3.86,-4.88 -5.42,-7.54 -10.43,-19.03 -19.23,-38.95 -26.53,-59.38 -1.19,-3.28 -2.15,-6.63 -2.89,-10.02 z"
       id="path9" />
  </g>
</svg>
