<?xml version="1.0" encoding="UTF-8" standalone="no"?>
<svg
   width="128"
   height="128"
   viewBox="0 0 128 128"
   version="1.1"
   id="svg4"
   sodipodi:docname="Blender.svg"
   xmlns:inkscape="http://www.inkscape.org/namespaces/inkscape"
   xmlns:sodipodi="http://sodipodi.sourceforge.net/DTD/sodipodi-0.dtd"
   xmlns="http://www.w3.org/2000/svg"
   xmlns:svg="http://www.w3.org/2000/svg">
  <defs
     id="defs4" />
  <sodipodi:namedview
     id="namedview4"
     pagecolor="#ffffff"
     bordercolor="#666666"
     borderopacity="1.0"
     inkscape:showpageshadow="2"
     inkscape:pageopacity="0.0"
     inkscape:pagecheckerboard="0"
     inkscape:deskcolor="#d1d1d1"
     inkscape:document-units="pt" />
  <g
     id="#ea7600ff"
     transform="matrix(0.10285743,0,0,0.10285743,-0.63251103,9.2959592)">
    <path
       fill="#ea7600"
       opacity="1"
       d="m 638.23,11.28 c 22.91,-5.16 48.79,-1.87 67.61,12.91 112.13,86.2 224.29,172.37 336.43,258.55 29.65,23.18 60.74,44.84 87.05,71.94 50.36,51.2 86.57,116.73 100.68,187.32 9.41,46.45 9.72,94.79 0.26,141.26 -7.99,39.4 -22.47,77.47 -42.74,112.19 -34.78,59.52 -85.51,109.32 -144.81,144.31 -65.35,38.87 -140.78,60.26 -216.74,62.44 -88.32,2.9 -177.74,-19.51 -252.98,-66.19 C 522.03,904.6 477.77,862.15 445.07,811.96 414.69,764.98 393.96,711.03 389.49,655.02 c -2.4,-15.88 0.9,-31.84 1.99,-47.69 -14.32,10.97 -27.96,22.82 -42.02,34.13 -63.18,51.81 -126.37,103.61 -189.55,155.42 -9.88,8.45 -20.43,16.3 -32.35,21.65 -19.36,8.95 -41.67,12.56 -62.61,7.58 -15.57,-3.6 -30.03,-12.66 -39.2,-25.87 -8.24,-11.65 -12.02,-26.13 -11.37,-40.32 0.86,-21.76 10.67,-42.45 24.83,-58.71 9.54,-11.29 21.93,-19.51 33.48,-28.53 141.75,-108.46 283.58,-216.81 425.28,-325.34 -81,0.2 -162,0.33 -242.99,0.48 -16.27,0.08 -33.2,-3.41 -46.32,-13.5 -10.79,-8.07 -18.26,-20.77 -18.93,-34.34 -0.96,-16.32 6.4,-32.17 17.32,-43.96 18.02,-19.44 44.57,-30.25 70.96,-30.21 133.66,-0.13 267.32,-0.3 400.98,-0.42 27.84,-0.15 55.68,0.17 83.52,-0.27 -9.08,-8.19 -18.92,-15.5 -28.29,-23.36 -42.82,-34.83 -85.65,-69.65 -128.47,-104.5 -7.5,-6.11 -14.17,-13.78 -16.93,-23.23 -3.8,-11.86 -1.03,-25.13 5.99,-35.24 9.99,-14.57 26.46,-23.63 43.42,-27.51 m 163.14,336.1 c -56.83,2.1 -113.08,21.95 -157.9,57.1 -29.12,22.9 -53.32,52.29 -69.13,85.86 -16.66,35.16 -23.48,74.85 -19.75,113.55 3.29,35.08 15.65,69.13 35,98.52 30.97,47.31 78.81,82.76 132.31,100.59 51.9,17.37 108.85,19.23 161.84,5.65 62.46,-15.98 119.42,-55.12 154.03,-109.86 22.35,-35.27 34.54,-77 33.94,-118.8 -0.3,-36.27 -9.92,-72.39 -27.74,-103.99 C 1017.19,428.03 973.21,390.59 922.8,369.24 884.63,352.97 842.79,345.71 801.37,347.38 Z"
       id="path3" />
  </g>
  <g
     id="#265787ff"
     transform="matrix(0.10285743,0,0,0.10285743,-0.63251103,9.2959592)">
    <path
       fill="#265787"
       opacity="1"
       d="m 803.37,421.4 c 34.51,-1.91 69.64,6.16 99.45,23.75 28.36,16.61 51.93,41.92 64.67,72.37 13.2,30.89 14.53,66.64 3.47,98.38 -11.5,33.75 -36.04,62.35 -66.52,80.54 -54.82,33.33 -127.98,33.22 -182.76,-0.13 -27.25,-16.52 -49.85,-41.18 -62.46,-70.57 -14.9,-34.44 -15.09,-75.05 0.07,-109.44 12.26,-28.49 34.03,-52.42 60.27,-68.75 25.09,-15.71 54.29,-24.62 83.81,-26.15 z"
       id="path4" />
  </g>
</svg>
