<?xml version="1.0" encoding="UTF-8" standalone="no"?>
<!-- Created with Inkscape (http://www.inkscape.org/) -->

<svg
   version="1.1"
   id="svg1"
   width="128"
   height="128"
   viewBox="0 0 128.00001 127.99993"
   sodipodi:docname="css.svg"
   inkscape:export-filename="..\..\..\..\Proyectos\Trabajo practico CaC\Perfil de Usuario\img\css.svg"
   inkscape:export-xdpi="915.59094"
   inkscape:export-ydpi="915.59094"
   xmlns:inkscape="http://www.inkscape.org/namespaces/inkscape"
   xmlns:sodipodi="http://sodipodi.sourceforge.net/DTD/sodipodi-0.dtd"
   xmlns="http://www.w3.org/2000/svg"
   xmlns:svg="http://www.w3.org/2000/svg">
  <defs
     id="defs1" />
  <sodipodi:namedview
     id="namedview1"
     pagecolor="#ffffff"
     bordercolor="#666666"
     borderopacity="1.0"
     inkscape:showpageshadow="2"
     inkscape:pageopacity="0.0"
     inkscape:pagecheckerboard="0"
     inkscape:deskcolor="#d1d1d1" />
  <g
     inkscape:groupmode="layer"
     inkscape:label="Image"
     id="g1"
     transform="translate(-69.67166,-74.898835)">
    <rect
       style="opacity:1;fill:#ececec;stroke-width:1.97084"
       id="rect1"
       width="80.763351"
       height="91.880577"
       x="93.624367"
       y="90.660942" />
    <path
       style="display:inline;fill:#41b2e0;stroke-width:0.65625"
       d="m 133.92052,186.49406 c -0.16898,-6.41266 -0.044,-7.63766 0.78338,-7.68644 1.62479,-0.0961 27.8465,-7.57066 28.44017,-8.1072 0.78253,-0.70738 7.14934,-71.399912 6.522,-72.415096 -0.19981,-0.323193 -15.75611,-0.446923 -35.54163,-0.282673 -19.3525,0.160626 -27.28671,0.191271 -17.63157,0.06806 l 17.55482,-0.224055 v -7.20825 -7.208246 h 23.39599 23.39602 l -0.43211,6.070352 c -0.57659,8.099414 -1.6573,21.689138 -2.04871,25.757938 -0.1733,1.80472 -1.50284,16.2751 -2.95501,32.15644 -1.45164,15.88135 -2.81655,30.49941 -3.03309,32.4846 l -0.39312,3.60933 -15.19164,4.14327 c -8.35533,2.27884 -16.87287,4.66685 -18.92796,5.30683 l -3.73658,1.1636 z m -0.005,-33.58394 0.19393,-11.04988 -15.94399,-0.18802 c -12.1606,-0.14337 -10.04557,-0.22413 8.9136,-0.33988 l 24.85743,-0.15167 -0.37678,2.46098 c -0.20717,1.35347 -0.58051,5.33747 -0.82947,8.85329 -0.24913,3.5157 -0.78187,6.6449 -1.18377,6.95353 -0.40199,0.30874 -4.12699,1.45015 -8.27774,2.53648 l -7.547,1.97531 z m 0.13471,-33.04701 v -6.87975 l -17.22806,-0.18634 c -12.89715,-0.13955 -10.3987,-0.2247 9.94103,-0.33903 l 27.16775,-0.15275 -0.42145,5.4141 c -0.23175,2.97774 -0.42318,6.22622 -0.42536,7.2188 l -0.005,1.80471 h -9.51375 -9.51555 z"
       id="path18"
       inkscape:export-filename="..\..\..\..\Proyectos\Trabajo practico CaC\Perfil de Usuario\img\css.svg"
       inkscape:export-xdpi="5.0999999"
       inkscape:export-ydpi="5.0999999" />
    <path
       style="display:inline;fill:#029bdc;stroke-width:0.65625"
       d="M 111.28107,197.07336 C 98.939906,193.58323 88.652595,190.53023 88.420365,190.28899 88.188139,190.04772 85.826469,165.38895 83.172239,135.49174 80.518,105.59458 78.194534,79.730504 78.009001,78.016042 L 77.67166,74.898835 h 56.73508 c 31.20421,0 56.72632,0.221482 56.71563,0.492197 -0.27581,7.004791 -10.43387,114.554338 -10.85667,114.946108 -0.49396,0.45795 -42.13618,12.24333 -45.5618,12.8947 -0.54137,0.10333 -11.08167,-2.66835 -23.42283,-6.15848 z m 45.50495,-9.42127 15.19164,-4.14327 0.39312,-3.60933 c 0.21654,-1.98519 1.58145,-16.60325 3.03309,-32.48462 1.45217,-15.88134 2.78166,-30.35172 2.95501,-32.15642 0.39141,-4.06881 1.47212,-17.658549 2.04871,-25.757962 l 0.43211,-6.070341 h -23.39602 -23.39599 v 7.218787 7.218795 h -17.7965 -17.796471 l 0.434862,5.742211 c 0.239178,3.15824 0.5929,6.55435 0.786021,7.54693 l 0.351138,1.8047 h 17.01048 17.01047 v 6.89066 6.89067 h -16.46761 -16.4676 l 0.44033,6.39847 c 0.24218,3.51912 0.58496,6.91526 0.76172,7.54687 0.29463,1.05287 1.62923,1.14846 16.02727,1.14846 h 15.70589 v 10.82821 c 0,5.95552 -0.18151,10.82817 -0.4036,10.82817 -0.90832,0 -13.13507,-3.47451 -14.19808,-4.03473 -0.85219,-0.44904 -1.14844,-1.42452 -1.14844,-3.78135 0,-1.74686 -0.18457,-4.09897 -0.41016,-5.22694 l -0.41014,-2.0508 h -7.13678 -7.13676 l 0.0439,2.78912 c 0.0633,4.02106 1.58261,19.40984 1.94593,19.70965 0.16889,0.1394 6.65634,2.01152 14.41653,4.16084 l 14.10947,3.90761 0.18407,7.58341 0.18409,7.58354 3.75351,-1.16901 c 2.06438,-0.64304 10.58962,-3.03349 18.94498,-5.31233 z"
       id="path17" />
  </g>
</svg>
