<?xml version="1.0" encoding="UTF-8" standalone="no"?>
<svg
   width="512"
   height="512"
   viewBox="0 0 512 512"
   version="1.1"
   id="svg2"
   sodipodi:docname="egg.svg"
   xmlns:inkscape="http://www.inkscape.org/namespaces/inkscape"
   xmlns:sodipodi="http://sodipodi.sourceforge.net/DTD/sodipodi-0.dtd"
   xmlns="http://www.w3.org/2000/svg"
   xmlns:svg="http://www.w3.org/2000/svg">
  <defs
     id="defs2" />
  <sodipodi:namedview
     id="namedview2"
     pagecolor="#ffffff"
     bordercolor="#666666"
     borderopacity="1.0"
     inkscape:showpageshadow="2"
     inkscape:pageopacity="0.0"
     inkscape:pagecheckerboard="0"
     inkscape:deskcolor="#d1d1d1"
     inkscape:document-units="pt" />
  <g
     id="#ffcf00ff"
     transform="matrix(5.311123,0,0,5.311123,-56.953057,-31.457099)">
    <path
       fill="#ffcf00"
       opacity="1"
       d="m 56.29,6.37 c 5.58,-1.13 11.09,1.59 15.15,5.24 7.07,6.38 11.64,15.01 15.03,23.79 4.83,13.21 7.13,27.78 4.15,41.67 -1.99,9.68 -8.2,18.92 -17.68,22.52 -10.37,3.79 -22.76,3.58 -32.37,-2.2 C 31.19,91.72 26.94,80.57 26.08,70.09 24.9,52.84 29.46,35.21 38.72,20.62 42.93,14.33 48.55,7.98 56.29,6.37 m 8.08,30.55 c 1,3.11 5.01,5.68 2.66,9.27 -4.62,-2.06 -9.45,-2.39 -14.16,-0.33 6.91,-1.55 13.2,1.97 17.9,6.73 -0.81,2.9 -1.85,5.72 -2.72,8.61 0.39,0.02 1.16,0.06 1.55,0.08 -0.52,4.63 -4.88,7.98 -4.83,12.81 1.77,-4.91 4.5,-9.38 7.3,-13.75 -0.5,-0.63 -0.99,-1.27 -1.48,-1.91 1.19,-2.23 2.38,-4.52 2.5,-7.1 -1.59,-0.75 -3.15,-1.56 -4.72,-2.35 0.25,-2.41 0.96,-4.76 1.1,-7.19 -0.83,-2.38 -2.81,-4.21 -3.46,-6.65 0.51,-5.22 2.51,-10.14 3.48,-15.28 -2.4,5.39 -5.5,10.99 -5.12,17.06 z"
       id="path1" />
  </g>
  <g
     id="#4f5a57ff"
     transform="matrix(5.311123,0,0,5.311123,-56.953057,-31.457099)">
    <path
       fill="#4f5a57"
       opacity="1"
       d="M 64.050874,36.313661 C 63.86235,31.041475 67.09,25.25 69.49,19.86 68.52,25 66.689574,31.922198 66.269836,35.427213 c 1.191574,2.44 2.640951,3.170426 3.200164,6.362787 -0.14,2.43 -0.85,4.78 -1.1,7.19 1.840787,0.338688 3.220262,0.787639 4.72,2.35 -0.12,2.58 -1.197172,4.937697 -2.387172,7.167697 0.941312,0.459475 1.205656,0.693295 1.367172,1.842303 -2.8,4.37 -5.53,8.84 -7.3,13.75 -0.05,-4.83 4.31,-8.18 4.83,-12.81 -0.480262,-0.04257 -1.140642,-0.688904 -2.094781,-0.257592 0.87,-2.89 2.635306,-5.532408 3.084256,-8.432408 C 66.792099,49.544985 59.78,44.31 52.87,45.86 c 4.71,-2.06 9.54,-1.73 14.16,0.33 2.35,-3.59 -2.234426,-6.734426 -2.979126,-9.876339 z"
       id="path2"
       sodipodi:nodetypes="ccccccccccccccc" />
  </g>
</svg>
