<?xml version="1.0" encoding="UTF-8" standalone="no"?>
<!-- Created with Inkscape (http://www.inkscape.org/) -->

<svg
   width="210mm"
   height="297mm"
   viewBox="0 0 210 297"
   version="1.1"
   id="svg1"
   inkscape:version="1.3 (0e150ed6c4, 2023-07-21)"
   sodipodi:docname="Mi firma Digital.svg"
   xmlns:inkscape="http://www.inkscape.org/namespaces/inkscape"
   xmlns:sodipodi="http://sodipodi.sourceforge.net/DTD/sodipodi-0.dtd"
   xmlns="http://www.w3.org/2000/svg"
   xmlns:svg="http://www.w3.org/2000/svg">
  <sodipodi:namedview
     id="namedview1"
     pagecolor="#ffffff"
     bordercolor="#666666"
     borderopacity="1.0"
     inkscape:showpageshadow="2"
     inkscape:pageopacity="0.0"
     inkscape:pagecheckerboard="0"
     inkscape:deskcolor="#d1d1d1"
     inkscape:document-units="mm"
     inkscape:zoom="1.3833223"
     inkscape:cx="99.036937"
     inkscape:cy="923.50136"
     inkscape:window-width="1301"
     inkscape:window-height="745"
     inkscape:window-x="57"
     inkscape:window-y="-8"
     inkscape:window-maximized="1"
     inkscape:current-layer="layer1" />
  <defs
     id="defs1" />
  <g
     inkscape:label="Capa 1"
     inkscape:groupmode="layer"
     id="layer1">
    <path
       style="fill:#000000;stroke-width:0.839778"
       id="path6"
       d="m 61.560982,283.75997 c 1.249857,-0.82862 1.502481,-0.80506 1.91018,-1.93479 1.999193,-5.53939 5.893742,-20.31129 6.929701,-24.52225 3.075109,-12.49933 7.248416,-30.71013 8.402805,-43.15978 0.857321,-9.24591 0.584225,-18.54511 0.876324,-27.81767 C 78.945826,176.25415 78.667491,166.14972 77.477478,156.11155 74.881988,134.21738 70.634957,115.66927 65.392324,94.182627 59.859633,71.507076 54.240479,49.13698 48.393556,26.762436 46.140279,17.940302 45.590968,8.905994 37.848144,7.4529762 35.005639,6.9195614 31.732517,9.344358 31.493969,12.660847 c -0.257723,3.583419 1.486364,6.052126 3.623463,10.130946 8.287068,15.81644 9.579934,18.361708 21.626603,39.188514 19.121511,30.808142 38.830467,61.481543 62.735465,89.709163 10.2082,12.05409 16.38139,18.27377 27.05281,29.51674 5.43008,5.76706 16.11615,16.35033 17.52907,18.07075 1.49493,1.82027 1.65123,2.28118 -0.97265,2.09208 -4.71314,-0.5634 -5.84421,-0.6052 -15.67816,-3.41186 -16.77331,-3.68559 -33.49241,-9.22184 -51.006128,-9.6855 -5.726007,-0.1517 -11.490182,0.27051 -17.139756,1.09722 -5.059612,0.74027 -10.01042,2.0544 -14.832705,3.58058 -7.495979,2.37235 -11.321643,3.88407 -15.861622,8.20237 -1.841023,3.38376 -1.632736,6.27811 -0.349422,9.09932 1.555011,3.41848 4.857033,6.1959 8.283361,8.34229 13.718641,8.59393 32.592468,7.96701 47.852342,3.53563 5.92536,-1.72069 11.56065,-4.38711 17.00287,-7.12164 5.03359,-2.40415 22.60815,-13.1588 30.27358,-27.33697 2.7827,-5.1469 4.15577,-10.8265 5.3442,-16.42095 3.33322,-15.6908 0.45257,-28.28939 -3.08374,-43.4993 -0.64534,-5.07868 0.1613,-4.12195 2.80612,-2.81537 4.80919,4.57559 5.37771,6.2987 8.70799,11.69804 0.92818,2.23912 1.1876,4.09545 0.75607,6.10866 -1.74741,8.1518 -12.62263,12.0866 -20.04908,15.28918 -34.74929,14.98535 6.0451,-3.19705 -29.26389,12.68319 -16.86463,8.74226 -41.864555,19.69378 -40.677842,40.3732 0.661304,11.5243 8.813577,19.12484 14.096958,24.41381 4.320813,3.65315 9.077079,7.18989 14.253504,9.81181 5.28337,2.67605 11.08381,4.5437 16.87565,6.24226 12.19457,3.57625 20.82369,4.78947 33.67862,3.53489 14.12606,-1.37865 19.66639,-3.76555 29.43526,-8.24227 6.97014,-4.0388 8.57603,-7.01149 11.77724,-11.40094 5.11577,-7.0146 0.85942,-13.73765 -6.27588,-17.86456 -5.29843,-3.06452 -11.6099,-4.62184 -17.71777,-6.1645 -19.82193,-5.0065 -24.76338,-3.80289 -45.63467,-4.0748 -7.70478,0.7162 -15.48326,0.97738 -23.11429,2.14862 -25.649139,3.93675 -55.179936,12.08265 -71.49508,30.63314 -5.494381,6.24717 -7.109144,8.74274 -12.081348,17.52969 0.915808,-0.68499 1.849562,-1.34519 2.780106,-2.00987 2.884294,-2.06021 2.354253,-1.03988 4.105197,-4.28537 5.224878,-7.67131 8.826274,-13.68392 21.112545,-21.49232 15.226935,-9.67729 33.780265,-15.27571 52.18904,-18.17964 7.64997,-1.20674 15.45321,-1.4985 23.17984,-2.24776 19.87396,0.38873 25.90658,-0.81653 44.65913,4.47608 8.23609,2.32454 20.62222,6.30384 23.84292,15.07696 0.96075,2.6171 0.13976,8.03531 -5.1458,13.44469 -4.69873,3.2229 -12.98827,8.32364 -27.19812,9.85183 -12.44648,1.33856 -21.88371,0.10519 -33.74814,-3.26262 -5.78106,-1.64096 -11.56882,-3.47269 -16.82955,-6.12895 -5.12597,-2.58821 -9.471319,-6.50441 -13.872267,-9.75659 -6.638458,-6.43561 -13.129405,-12.68886 -13.719273,-24.23325 -0.883839,-17.29813 16.897961,-27.65917 31.67152,-35.50095 4.88863,-2.19617 9.77728,-4.39235 14.66587,-6.58852 4.79076,-1.97521 9.66065,-3.8108 14.37227,-5.92561 5.5416,-2.48738 21.50576,-9.19514 27.0593,-14.84381 1.66653,-1.69511 2.78116,-3.89333 3.1719,-6.09939 0.36826,-2.07893 0.29064,-3.96521 -0.98415,-6.25214 -15.60736,-25.21023 -26.67849,-21.1078 -22.16132,-3.71551 1.07305,4.08439 2.47077,8.11417 3.21916,12.2532 2.80467,15.5119 2.60277,32.76217 -5.47065,47.24135 -5.56318,9.97723 -13.425,16.63976 -21.77716,22.40693 -5.47089,3.0277 -10.52184,5.64793 -16.41269,7.39255 -14.921402,4.41902 -33.590853,5.22346 -46.948514,-3.42135 -3.248403,-2.10228 -6.187233,-4.90114 -7.716369,-8.16567 -1.208921,-2.5809 -1.073768,-5.22108 0.216583,-7.7254 1.766732,-1.76042 3.8717,-3.05747 6.194338,-3.86454 28.598301,-9.93722 54.445242,-3.23107 82.179112,4.69292 4.06475,1.33499 8.22552,2.70739 12.53909,3.15349 5.21225,0.53905 17.09322,1.43166 16.01388,-2.35966 -0.48522,-1.70437 -1.80885,-3.1567 -2.99623,-4.57547 -4.28952,-5.12553 -13.51953,-13.61946 -17.86914,-17.77905 -11.0834,-10.81329 -17.85979,-17.08792 -28.31762,-28.82732 C 97.291689,122.69434 76.71624,92.329047 58.722726,61.003399 49.920823,43.489738 39.457862,23.790002 36.515871,15.585222 c -0.601808,-1.678318 -0.198562,-3.613936 1.473171,-4.143944 1.343529,-0.42592 2.4837,1.823917 6.948436,15.924765 1.887569,6.111799 2.290475,12.495802 4.412036,18.233207 16.92706,45.776273 27.750221,93.47626 28.166281,141.6762 -0.659916,9.42083 -0.7814,18.88209 -1.979709,28.2625 -1.021848,7.99907 -2.846646,15.90998 -4.67098,23.79989 -3.814104,16.4953 -8.931479,32.96554 -16.22689,48.56299 z"
       sodipodi:nodetypes="cssscsscssscscsccssscssscsscscsscscssscssscsscscsscsscssscsccsssccsscssscscssscscsscscsscc" />
  </g>
</svg>
