<?xml version="1.0" encoding="UTF-8" standalone="no"?>
<!-- Uploaded to: SVG Repo, www.svgrepo.com, Generator: SVG Repo Mixer Tools -->

<svg
   width="128"
   height="128"
   viewBox="0 0 3.84 3.84"
   id="Layer_1"
   data-name="Layer 1"
   version="1.1"

   xmlns:inkscape="http://www.inkscape.org/namespaces/inkscape"
   xmlns:sodipodi="http://sodipodi.sourceforge.net/DTD/sodipodi-0.dtd"
   xmlns="http://www.w3.org/2000/svg"
   xmlns:svg="http://www.w3.org/2000/svg">
  <sodipodi:namedview
     id="namedview5"
     pagecolor="#ffffff"
     bordercolor="#666666"
     borderopacity="1.0"
     inkscape:showpageshadow="2"
     inkscape:pageopacity="0.0"
     inkscape:pagecheckerboard="0"
     inkscape:deskcolor="#d1d1d1" />
  <defs
     id="defs1">
    <style
       id="style1">.cls-1{fill:#1a73e8;}.cls-2{fill:#ea4335;}.cls-3{fill:#4285f4;}.cls-4{fill:#fbbc04;}.cls-5{fill:#34a853;}</style>
  </defs>
  <g
     transform="matrix(0.16222399,0,0,0.16222399,0.6350189,0.03967737)"
     id="g5">
    <path
       class="cls-1"
       d="M 14.45,0.78 A 8.09,8.09 0 0 0 5.8,3.29 l 3.83,3.22 z"
       transform="translate(-3.91,-0.4)"
       id="path1" />
    <path
       class="cls-2"
       d="m 5.8,3.29 a 8.07,8.07 0 0 0 -1.89,5.2 9.06,9.06 0 0 0 0.8,3.86 L 9.63,6.51 Z"
       transform="translate(-3.91,-0.4)"
       id="path2" />
    <path
       class="cls-3"
       d="m 12,5.4 a 3.09,3.09 0 0 1 3.1,3.09 3.06,3.06 0 0 1 -0.74,2 l 4.82,-5.73 a 8.12,8.12 0 0 0 -4.73,-4 L 9.63,6.51 A 3.07,3.07 0 0 1 12,5.4 Z"
       transform="translate(-3.91,-0.4)"
       id="path3" />
    <path
       class="cls-4"
       d="m 12,11.59 a 3.1,3.1 0 0 1 -3.1,-3.1 3.07,3.07 0 0 1 0.73,-2 l -4.92,5.86 a 28.67,28.67 0 0 0 3.67,5.25 l 6,-7.11 A 3.07,3.07 0 0 1 12,11.59 Z"
       transform="translate(-3.91,-0.4)"
       id="path4" />
    <path
       class="cls-5"
       d="m 14.25,19.54 c 2.7,-4.22 5.84,-6.14 5.84,-11 A 8.1,8.1 0 0 0 19.18,4.81 L 8.38,17.6 c 0.46,0.6 0.92,1.24 1.37,1.94 1.65,2.54 1.19,4.06 2.25,4.06 1.06,0 0.6,-1.52 2.25,-4.06 z"
       transform="translate(-3.91,-0.4)"
       id="path5" />
  </g>
</svg>
