<?xml version="1.0" encoding="UTF-8" standalone="no"?>
<svg
   width="128"
   height="128"
   viewBox="0 0 384 384"
   version="1.1"
   id="svg2"
   sodipodi:docname="html5.svg"
   inkscape:export-filename="html5.png"
   inkscape:export-xdpi="96"
   inkscape:export-ydpi="96"
   xmlns:inkscape="http://www.inkscape.org/namespaces/inkscape"
   xmlns:sodipodi="http://sodipodi.sourceforge.net/DTD/sodipodi-0.dtd"
   xmlns="http://www.w3.org/2000/svg"
   xmlns:svg="http://www.w3.org/2000/svg">
  <defs
     id="defs2" />
  <sodipodi:namedview
     id="namedview2"
     pagecolor="#ffffff"
     bordercolor="#666666"
     borderopacity="1.0"
     inkscape:showpageshadow="2"
     inkscape:pageopacity="0.0"
     inkscape:pagecheckerboard="0"
     inkscape:deskcolor="#d1d1d1"
     inkscape:document-units="pt" />
  <g
     id="#f76144ff"
     transform="matrix(1.0049944,0,0,1.0049944,-63.540913,-111.6112)">
    <path
       fill="#f76144"
       opacity="1"
       d="m 89.67,113.55 c 110.89,0.01 221.77,0.01 332.66,0 -10.25,113.12 -20.13,226.28 -30.36,339.4 -43.96,12.12 -87.9,24.32 -131.85,36.52 -1.98,0.43 -4,1.55 -6.03,0.73 C 209.38,477.8 164.65,465.43 119.93,453.06 109.91,339.88 99.86,226.71 89.67,113.55 m 61.88,69.51 c 3.92,41.87 7.43,83.79 11.5,125.64 47.95,-0.31 95.9,0.2 143.85,0.14 -1.28,18 -3.26,35.94 -4.66,53.93 -14.1,3.84 -28.22,7.56 -42.31,11.39 -1.97,0.47 -3.99,1.45 -6.01,0.69 -14.84,-4 -29.7,-7.91 -44.52,-11.97 -1.08,-11.08 -1.91,-22.18 -3,-33.25 -13.89,0.07 -27.78,0.01 -41.67,0.03 2.09,21.77 3.83,43.58 5.98,65.35 28.17,7.65 56.23,15.69 84.38,23.43 1.49,0.4 2.96,-0.42 4.42,-0.69 27.22,-7.61 54.46,-15.15 81.7,-22.67 3.66,-42.76 7.82,-85.49 11.34,-128.26 -18.5,0.66 -37.02,0.08 -55.53,0.29 -32.05,-0.05 -64.08,0.27 -96.13,0.14 -1.18,-14.24 -2.54,-28.47 -3.81,-42.7 53.07,-0.07 106.14,0.16 159.22,0.15 1.54,-13.96 2.51,-27.97 4.04,-41.93 -33.79,0.04 -67.58,-0.01 -101.37,0.02 -7.98,0.51 -15.97,0.27 -23.96,0.32 -27.82,-0.03 -55.64,0.07 -83.46,-0.05 z"
       id="path1" />
  </g>
  <g
     id="#f5f5f5ff"
     transform="matrix(1.0049944,0,0,1.0049944,-63.540913,-111.6112)">
    <path
       fill="#f5f5f5"
       opacity="1"
       d="m 151.55,183.06 c 27.82,0.12 55.64,0.02 83.46,0.05 7.99,-0.05 15.98,0.19 23.96,-0.32 33.79,-0.03 67.58,0.02 101.37,-0.02 -1.53,13.96 -2.5,27.97 -4.04,41.93 -53.08,0.01 -106.15,-0.22 -159.22,-0.15 1.27,14.23 2.63,28.46 3.81,42.7 32.05,0.13 64.08,-0.19 96.13,-0.14 18.51,-0.21 37.03,0.37 55.53,-0.29 -3.52,42.77 -7.68,85.5 -11.34,128.26 -27.24,7.52 -54.48,15.06 -81.7,22.67 -1.46,0.27 -2.93,1.09 -4.42,0.69 -28.15,-7.74 -56.21,-15.78 -84.38,-23.43 -2.15,-21.77 -3.89,-43.58 -5.98,-65.35 13.89,-0.02 27.78,0.04 41.67,-0.03 1.09,11.07 1.92,22.17 3,33.25 14.82,4.06 29.68,7.97 44.52,11.97 2.02,0.76 4.04,-0.22 6.01,-0.69 14.09,-3.83 28.21,-7.55 42.31,-11.39 1.4,-17.99 3.38,-35.93 4.66,-53.93 -47.95,0.06 -95.9,-0.45 -143.85,-0.14 -4.07,-41.85 -7.58,-83.77 -11.5,-125.64 z"
       id="path2" />
  </g>
</svg>
