<?xml version="1.0" encoding="UTF-8" standalone="no"?>
<svg
   width="128"
   height="128"
   viewBox="0 0 360.00002 408.00002"
   version="1.1"
   id="svg4"
   sodipodi:docname="javascript.svg"
   inkscape:export-filename="javascript.svg"
   inkscape:export-xdpi="96"
   inkscape:export-ydpi="96"
   xmlns:inkscape="http://www.inkscape.org/namespaces/inkscape"
   xmlns:sodipodi="http://sodipodi.sourceforge.net/DTD/sodipodi-0.dtd"
   xmlns="http://www.w3.org/2000/svg"
   xmlns:svg="http://www.w3.org/2000/svg">
  <defs
     id="defs4" />
  <sodipodi:namedview
     id="namedview4"
     pagecolor="#ffffff"
     bordercolor="#666666"
     borderopacity="1.0"
     inkscape:showpageshadow="2"
     inkscape:pageopacity="0.0"
     inkscape:pagecheckerboard="0"
     inkscape:deskcolor="#d1d1d1"
     inkscape:document-units="pt" />
  <g
     id="#f6f6f6ff"
     transform="matrix(1.2668467,0,0,1.2668467,-11.3965,-7.8263517)">
    <path
       fill="#f6f6f6"
       opacity="1"
       d="m 161.37,72.32 c 29.47,-0.15 58.95,-0.07 88.42,-0.04 0.18,10.85 -1.51,21.6 -2.31,32.4 -16.82,0.24 -33.65,0.03 -50.48,0.1 -2.88,0.06 -5.74,0.42 -8.62,0.6 0.05,16.44 -0.04,32.88 0.05,49.32 16.2,-1.83 32.38,-3.81 48.53,-6.02 2.15,-0.24 4.31,-0.19 6.47,-0.15 0.12,3.84 0.03,7.69 -0.53,11.5 -1.4,16.98 -2.39,34 -4.34,50.93 -0.11,8.29 -1.03,16.52 -1.18,24.8 0.01,2.39 -2.42,3.63 -4.48,3.89 -9.97,1.82 -19.48,5.86 -29.59,6.81 0.46,0.36 0.93,0.72 1.39,1.08 -8.29,0.43 -15.97,3.88 -24.03,5.49 -6.36,1.83 -12.61,4.27 -19.26,4.82 0.1,-10.76 -0.23,-21.54 0.16,-32.3 17.4,-4.41 34.74,-9.09 52.01,-13.99 2.34,-0.71 1.74,-3.68 1.94,-5.55 -0.18,-7.45 1.41,-14.83 0.73,-22.27 -7.12,-0.15 -13.83,2.91 -20.93,2.66 0.45,0.41 0.9,0.81 1.36,1.22 -12.02,-0.28 -23.32,4.97 -35.3,5.12 0.03,-40.14 0.06,-80.28 -0.01,-120.42 z"
       id="path1" />
    <path
       fill="#f6f6f6"
       opacity="1"
       d="m 112.02,72.71 c 8.77,-0.55 17.59,-0.31 26.37,-0.11 0.36,42.13 0.05,84.27 0.15,126.4 -0.11,19.53 0.24,39.06 -0.17,58.57 -9.39,-1.46 -18.23,-5.19 -27.5,-7.23 -11.41,-2.31 -22.3,-6.55 -33.57,-9.42 -6.21,-1.99 -12.68,-3.13 -18.79,-5.41 -1.16,-2.32 -0.72,-5.01 -0.83,-7.51 0.2,-8.12 -0.26,-16.25 0.29,-24.36 4.04,0.35 7.87,1.73 11.76,2.76 9.1,2.49 18.16,5.11 27.26,7.61 4.89,1.3 9.65,3.13 14.67,3.9 0.26,-41.3 0.04,-82.6 0.11,-123.91 0.09,-7.09 -0.24,-14.2 0.25,-21.29 z"
       id="path2" />
  </g>
  <g
     id="#d5b931ff"
     transform="matrix(1.2668467,0,0,1.2668467,-11.3965,-7.8263517)">
    <path
       fill="#d5b931"
       opacity="1"
       d="m 10.18,11.27 c 93.02,-0.11 186.04,0.03 279.06,-0.06 -1.62,18.23 -3.17,36.5 -4.77,54.74 -0.76,12.71 -2.55,25.33 -3.24,38.04 -1.57,11.74 -2.07,23.57 -3.07,35.36 -1.14,9.87 -2.09,19.77 -2.66,29.69 -3.36,35.64 -6.32,71.31 -9.67,106.95 -0.44,6.33 -0.71,12.7 -1.82,18.95 -5.41,2.06 -11.24,2.8 -16.76,4.56 -11.57,3.69 -23.33,6.71 -35.03,9.95 -15.15,4.81 -30.6,8.58 -45.91,12.84 -6.77,1.75 -13.54,5.76 -20.72,3.86 -14.06,-4.34 -28.27,-8.16 -42.41,-12.27 -22.35,-5.76 -44.26,-13.16 -66.71,-18.55 -0.91,-3.34 -1.06,-6.81 -1.43,-10.23 -2.01,-23.72 -4.03,-47.45 -6.45,-71.13 -0.73,-14.71 -2.34,-29.37 -4,-44 C 24.25,155.69 22.17,141.55 20.85,127.35 20.12,114.94 18.58,102.59 17.81,90.19 15.86,72.18 15.06,54.07 12.82,36.1 12.28,30.6 12.32,25.05 11.17,19.62 10.53,16.88 10.33,14.08 10.18,11.27 m 140.07,24.88 c -0.21,43.28 -0.03,86.57 -0.09,129.85 0.07,46.04 -0.13,92.09 0.1,138.12 3.04,-0.24 6.04,-0.86 8.96,-1.79 27.73,-7.63 55.49,-15.23 83.22,-22.87 0.22,-1.49 0.45,-2.98 0.64,-4.47 6.9,-77.99 13.81,-155.98 20.8,-233.96 0.08,-1.65 0.1,-3.31 0.13,-4.96 -35,-0.33 -70,0.01 -105.01,-0.16 -2.92,-0.03 -5.84,0.11 -8.75,0.24 m -38.23,36.56 c -0.49,7.09 -0.16,14.2 -0.25,21.29 -0.07,41.31 0.15,82.61 -0.11,123.91 -5.02,-0.77 -9.78,-2.6 -14.67,-3.9 -9.1,-2.5 -18.16,-5.12 -27.26,-7.61 -3.89,-1.03 -7.72,-2.41 -11.76,-2.76 -0.55,8.11 -0.09,16.24 -0.29,24.36 0.11,2.5 -0.33,5.19 0.83,7.51 6.11,2.28 12.58,3.42 18.79,5.41 11.27,2.87 22.16,7.11 33.57,9.42 9.27,2.04 18.11,5.77 27.5,7.23 0.41,-19.51 0.06,-39.04 0.17,-58.57 -0.1,-42.13 0.21,-84.27 -0.15,-126.4 -8.78,-0.2 -17.6,-0.44 -26.37,0.11 z"
       id="path3" />
  </g>
  <g
     id="#fcd93dff"
     transform="matrix(1.2668467,0,0,1.2668467,-11.3965,-7.8263517)">
    <path
       fill="#fcd93d"
       opacity="1"
       d="m 150.25,36.15 c 2.91,-0.13 5.83,-0.27 8.75,-0.24 35.01,0.17 70.01,-0.17 105.01,0.16 -0.03,1.65 -0.05,3.31 -0.13,4.96 -6.99,77.98 -13.9,155.97 -20.8,233.96 -0.19,1.49 -0.42,2.98 -0.64,4.47 -27.73,7.64 -55.49,15.24 -83.22,22.87 -2.92,0.93 -5.92,1.55 -8.96,1.79 -0.23,-46.03 -0.03,-92.08 -0.1,-138.12 0.06,-43.28 -0.12,-86.57 0.09,-129.85 m 11.12,36.17 c 0.07,40.14 0.04,80.28 0.01,120.42 11.98,-0.15 23.28,-5.4 35.3,-5.12 -0.46,-0.41 -0.91,-0.81 -1.36,-1.22 7.1,0.25 13.81,-2.81 20.93,-2.66 0.68,7.44 -0.91,14.82 -0.73,22.27 -0.2,1.87 0.4,4.84 -1.94,5.55 -17.27,4.9 -34.61,9.58 -52.01,13.99 -0.39,10.76 -0.06,21.54 -0.16,32.3 6.65,-0.55 12.9,-2.99 19.26,-4.82 8.06,-1.61 15.74,-5.06 24.03,-5.49 -0.46,-0.36 -0.93,-0.72 -1.39,-1.08 10.11,-0.95 19.62,-4.99 29.59,-6.81 2.06,-0.26 4.49,-1.5 4.48,-3.89 0.15,-8.28 1.07,-16.51 1.18,-24.8 1.95,-16.93 2.94,-33.95 4.34,-50.93 0.56,-3.81 0.65,-7.66 0.53,-11.5 -2.16,-0.04 -4.32,-0.09 -6.47,0.15 -16.15,2.21 -32.33,4.19 -48.53,6.02 -0.09,-16.44 0,-32.88 -0.05,-49.32 2.88,-0.18 5.74,-0.54 8.62,-0.6 16.83,-0.07 33.66,0.14 50.48,-0.1 0.8,-10.8 2.49,-21.55 2.31,-32.4 -29.47,-0.03 -58.95,-0.11 -88.42,0.04 z"
       id="path4" />
  </g>
</svg>
