<?xml version="1.0" encoding="UTF-8" standalone="no"?>
<svg
   width="128"
   height="128"
   viewBox="0 0 959.9904 959.99042"
   version="1.1"
   id="svg15"
   sodipodi:docname="java.svg"
   inkscape:export-filename="java.svg"
   inkscape:export-xdpi="96"
   inkscape:export-ydpi="96"
   xmlns:inkscape="http://www.inkscape.org/namespaces/inkscape"
   xmlns:sodipodi="http://sodipodi.sourceforge.net/DTD/sodipodi-0.dtd"
   xmlns="http://www.w3.org/2000/svg"
   xmlns:svg="http://www.w3.org/2000/svg">
  <defs
     id="defs15" />
  <sodipodi:namedview
     id="namedview15"
     pagecolor="#ffffff"
     bordercolor="#666666"
     borderopacity="1.0"
     inkscape:showpageshadow="2"
     inkscape:pageopacity="0.0"
     inkscape:pagecheckerboard="false"
     inkscape:deskcolor="#d1d1d1"
     inkscape:document-units="px" />
  <g
     id="#f45a3bff"
     transform="matrix(2.0415644,0,0,2.0415644,-56.974549,-45.29937)"
     inkscape:export-filename=".\#f45a3bff.svg"
     inkscape:export-xdpi="96"
     inkscape:export-ydpi="96">
    <path
       fill="#f45a3b"
       opacity="1"
       d="m 291.04,35.97 c 0.18,-4 -0.85,-7.92 -0.81,-11.92 2.46,3.88 4.24,8.11 5.56,12.5 0.58,4.47 1.92,9 0.76,13.51 -1.85,15.52 -11.06,28.89 -21.34,40.16 -5.52,5.85 -11.45,11.25 -17.73,16.26 -9.92,7.75 -19.52,16.54 -25.31,27.91 -4.58,9.44 -4.27,20.73 0.03,30.21 0.26,0.5 0.77,1.51 1.03,2.01 5.83,11.84 14.92,21.67 21.05,33.34 -7.4,-6.32 -14.16,-13.34 -20.99,-20.26 -7.22,-8.06 -14.31,-16.61 -18.26,-26.82 -3.05,-7.37 -3.04,-16.14 0.71,-23.26 4.25,-8.03 11.12,-14.14 17.57,-20.35 13.09,-11.53 27.95,-21.04 39.95,-33.81 10.55,-10.31 18.06,-24.46 17.78,-39.48 z"
       id="path1" />
    <path
       fill="#f45a3b"
       opacity="1"
       d="m 276.45,113.43 c 15.5,-11.55 33.73,-18.87 52.18,-24.24 -15.09,9 -30.38,18.11 -43.13,30.34 -6.16,6.11 -12.23,14.24 -10.6,23.45 1.97,10.47 10.06,18.12 15.31,26.98 3.54,6.05 3.89,13.75 0.92,20.1 -4.68,10.17 -13.92,17.21 -23.19,22.97 4.83,-5.22 9.32,-11.64 9.13,-19.08 0.3,-6.39 -3.33,-12.02 -7.4,-16.61 -7.96,-9.45 -14.49,-21.47 -12.98,-34.22 1.39,-12.41 10.22,-22.38 19.76,-29.69 z"
       id="path2" />
    <path
       fill="#f45a3b"
       opacity="1"
       d="m 143.14,361.18 c 5.35,0.01 10.7,0.05 16.04,-0.04 0,29.61 0.05,59.23 -0.02,88.84 -0.13,8.77 -0.38,18.22 -5.39,25.79 -4.53,6.93 -11.72,11.68 -19.31,14.69 -2.5,-2.87 -4.94,-5.8 -7.44,-8.66 5.69,-3.3 11.14,-7.72 13.84,-13.88 2.51,-6.32 2.08,-13.25 2.26,-19.9 0.04,-28.95 0,-57.89 0.02,-86.84 z"
       id="path3" />
    <path
       fill="#f45a3b"
       opacity="1"
       d="m 174.78,392.86 c 11.26,-4.9 23.81,-7.23 36.04,-5.57 6.33,0.97 12.85,3.92 16.09,9.73 2.44,4.22 3.08,9.21 3.03,14.01 -0.04,17.39 0.01,34.78 -0.02,52.17 -3.93,-0.01 -7.86,-0.01 -11.78,0 -0.4,-2.73 -0.84,-5.44 -1.3,-8.14 -5.68,4.67 -12.24,8.79 -19.74,9.47 -7.27,0.7 -15.6,-0.25 -21,-5.67 -5.11,-5.17 -5.97,-13.11 -4.8,-19.97 1.21,-6.77 6.04,-12.48 12.13,-15.48 9.66,-4.94 20.79,-4.99 31.39,-4.99 -0.09,-5.28 0.89,-11.22 -2.43,-15.78 -2.84,-3.83 -7.91,-4.81 -12.4,-4.86 -7.86,-0.19 -15.62,1.63 -22.97,4.29 -0.76,-3.07 -1.48,-6.15 -2.24,-9.21 m 16.54,38.36 c -5.54,3.09 -6.49,10.57 -4.43,16.05 1.66,4.43 6.57,6.74 11.1,6.54 6.41,-0.24 12.09,-3.77 16.87,-7.78 -0.03,-6.03 0.04,-12.07 -0.05,-18.1 -7.87,0.12 -16.38,-0.77 -23.49,3.29 z"
       id="path4" />
    <path
       fill="#f45a3b"
       opacity="1"
       d="m 315.81,392.86 c 11.43,-4.95 24.18,-7.32 36.57,-5.47 6.37,1.04 12.89,4.26 15.9,10.25 2.17,4.08 2.73,8.8 2.7,13.36 -0.02,17.4 -0.02,34.8 0,52.19 -3.95,0 -7.89,0 -11.83,0.01 -0.36,-2.73 -0.81,-5.44 -1.3,-8.13 -5.44,4.43 -11.62,8.45 -18.74,9.33 -6.9,0.88 -14.57,0.21 -20.32,-4.04 -6.64,-5.09 -7.98,-14.5 -6.29,-22.23 1.45,-6.95 6.83,-12.51 13.2,-15.33 9.41,-4.36 19.99,-4.37 30.15,-4.38 -0.12,-5.1 0.85,-10.74 -2.07,-15.28 -2.52,-3.92 -7.47,-5.22 -11.86,-5.32 -8.16,-0.37 -16.25,1.49 -23.88,4.25 -0.75,-3.07 -1.46,-6.15 -2.23,-9.21 m 16.48,38.4 c -5.65,3.2 -6.55,10.99 -4.15,16.51 1.82,4.15 6.52,6.22 10.87,6.04 6.4,-0.23 12.07,-3.77 16.87,-7.75 -0.03,-6.04 0.04,-12.09 -0.04,-18.13 -7.89,0.12 -16.44,-0.79 -23.55,3.33 z"
       id="path5" />
    <path
       fill="#f45a3b"
       opacity="1"
       d="m 239.44,388.03 c 5.47,0 10.95,0.02 16.42,-0.03 6,20.16 13.11,40.01 17.82,60.53 7.2,-19.55 12.28,-39.88 15.2,-60.51 5.3,0.02 10.61,0.03 15.92,-0.02 -4.63,25.87 -12.15,51.29 -23.15,75.18 -6.38,0.03 -12.75,0 -19.13,0.02 -7.68,-25.06 -15.42,-50.11 -23.08,-75.17 z"
       id="path6" />
    <path
       fill="#f45a3b"
       opacity="1"
       d="m 372.55,388.2 c 1.59,-0.06 3.19,-0.16 4.78,-0.3 -2.26,1.3 -1.85,3.84 -1.97,6.04 -0.17,-0.01 -0.52,-0.02 -0.7,-0.02 -0.38,-2.03 0.78,-5 -2.11,-5.72 z"
       id="path7" />
    <path
       fill="#f45a3b"
       opacity="1"
       d="m 378.88,394.66 c -0.26,-2.44 -0.18,-4.91 0.02,-7.35 1.03,1.83 2.53,3.29 3.92,4.84 -0.23,0.53 -0.69,1.59 -0.92,2.12 -0.66,-1.18 -1.32,-2.35 -1.98,-3.51 z"
       id="path8" />
    <path
       fill="#f45a3b"
       opacity="1"
       d="m 384.63,394.73 c -0.39,-2.44 -2.69,-5.7 0.25,-7.43 -0.04,2.47 -0.01,4.96 -0.25,7.43 z"
       id="path9" />
  </g>
  <g
     id="#00599cfe"
     transform="matrix(2.1419323,0,0,2.1419323,-95.60414,-94.525808)">
    <path
       fill="#00599c"
       opacity="1"
       d="m 333.38,204.48 c 7.17,-3.8 15.79,-5.64 23.73,-3.39 7.6,1.46 14.03,6.67 17.72,13.38 1.91,5.99 2.15,12.86 -0.75,18.58 -3.37,7.19 -9.55,12.65 -16.02,17.04 -9.34,5.93 -19.69,10.31 -30.45,12.89 11.19,-6.8 22.93,-13.64 30.72,-24.49 4.56,-6.23 7.32,-14.46 4.57,-22.02 -2.45,-5.88 -7.55,-10.1 -13.41,-12.34 -5.31,-1.83 -10.77,-0.66 -16.11,0.35 z"
       id="path10" />
    <path
       fill="#00599c"
       opacity="1"
       d="m 166.3,215.38 c 15.66,-7.42 32.84,-12.29 50.24,-12.31 -8.99,2.51 -18.1,4.83 -26.58,8.8 -2.14,1.12 -4.5,2.23 -5.83,4.32 -1.29,2.97 2.84,3.98 4.92,4.75 11.74,2.85 23.96,2.8 35.97,2.94 33.24,-0.02 66.45,-2.94 99.23,-8.41 -4.68,2.12 -9.06,4.82 -13.58,7.24 -6.15,1.94 -12.56,2.91 -18.89,4.08 -30.26,4.8 -61.06,5.77 -91.63,4.05 -11.05,-0.94 -22.24,-1.77 -32.88,-5.1 -2.51,-0.97 -5.65,-1.88 -6.73,-4.64 0.19,-3.06 3.44,-4.42 5.76,-5.72 z"
       id="path11" />
    <path
       fill="#00599c"
       opacity="1"
       d="m 189.64,247.63 c 3.98,-3.35 9.04,-4.91 13.7,-7.03 -1.52,1.97 -3.53,3.83 -3.85,6.44 0.59,3.51 4.44,4.71 7.43,5.4 30.81,4.61 62.32,2.79 92.77,-3.47 3.94,3.37 8.35,6.15 13.17,8.11 -29.47,8.17 -60.4,11.5 -90.89,8.78 -9.14,-0.98 -18.38,-2.34 -26.98,-5.74 -3.07,-1.37 -6.58,-2.97 -8,-6.23 -0.86,-2.48 0.85,-4.77 2.65,-6.26 z"
       id="path12" />
    <path
       fill="#00599c"
       opacity="1"
       d="m 197.43,284.38 c 3.2,-4.32 8.77,-5.6 13.47,-7.61 -1.07,1.42 -2.11,2.87 -3.12,4.34 2.97,4.01 8.17,4.59 12.75,5.22 16.06,1.99 32.4,2.69 48.48,0.53 6.42,-0.73 12.73,-2.08 19.11,-3.04 1.69,-0.43 3.09,0.83 4.53,1.49 4.65,2.66 9.56,4.82 14.45,7 -25.87,10.51 -54.65,13.54 -82.19,9.2 -8.34,-1.57 -16.95,-3.48 -24.12,-8.25 -2.84,-1.81 -5.67,-5.56 -3.36,-8.88 z"
       id="path13" />
    <path
       fill="#00599c"
       opacity="1"
       d="m 163.44,302.6 c 7.26,-1.73 14.96,-2.98 22.3,-1 -9.22,1.13 -18.49,3.15 -26.74,7.56 -2.15,1.08 -3.67,3 -5.08,4.89 1.76,2.07 4.05,3.6 6.67,4.35 13.62,4.59 28.06,5.88 42.29,7.11 34.39,2.37 68.95,1.46 103.25,-1.79 13.62,-1.51 27.35,-3.08 40.54,-7.01 4.09,-1.44 8.77,-2.92 11.26,-6.75 1.47,-1.96 0.13,-4.27 -0.37,-6.3 1.96,1.7 5.03,3.18 4.78,6.24 -0.31,2.64 -2.6,4.41 -4.58,5.89 -5.56,3.73 -11.99,5.86 -18.33,7.85 -16.41,4.86 -33.4,7.4 -50.39,9.2 -47.01,4.54 -94.6,2.39 -141.16,-5.37 -4.99,-1.25 -11.85,-1.98 -13.95,-7.49 0.33,-3.83 3.77,-6.28 6.71,-8.24 6.99,-4.36 14.85,-7.12 22.8,-9.14 z"
       id="path14" />
    <path
       fill="#00599c"
       opacity="1"
       d="m 366.85,327.84 c 3.85,-1.73 7.2,-4.32 10.36,-7.08 -1.4,3.76 -3.25,7.51 -6.52,10 -7.81,6.32 -17.66,9.28 -27.21,11.86 -23.05,5.68 -46.85,7.33 -70.5,8.17 -17.34,0.64 -34.7,0.01 -52.01,-1.08 -14.44,-1.37 -29.33,-2.34 -42.84,-8.09 29.72,4.63 59.91,5.09 89.92,4.17 19.79,-0.99 39.57,-2.79 59.06,-6.39 13.54,-2.64 27.2,-5.64 39.74,-11.56 z"
       id="path15" />
  </g>
</svg>
