<?xml version="1.0" encoding="UTF-8" standalone="no"?>
<svg
   width="512"
   height="512"
   viewBox="0 0 512 512"
   version="1.1"
   id="svg21"
   sodipodi:docname="logo CAC.svg"
   xmlns:inkscape="http://www.inkscape.org/namespaces/inkscape"
   xmlns:sodipodi="http://sodipodi.sourceforge.net/DTD/sodipodi-0.dtd"
   xmlns="http://www.w3.org/2000/svg"
   xmlns:svg="http://www.w3.org/2000/svg">
  <defs
     id="defs21" />
  <sodipodi:namedview
     id="namedview21"
     pagecolor="#ffffff"
     bordercolor="#666666"
     borderopacity="1.0"
     inkscape:showpageshadow="2"
     inkscape:pageopacity="0.0"
     inkscape:pagecheckerboard="0"
     inkscape:deskcolor="#d1d1d1"
     inkscape:document-units="pt" />
  <g
     id="g21"
     transform="matrix(0.28373126,0,0,0.28373126,0.50000037,140.40221)">
    <g
       id="#0e1e3240">
      <path
         fill="#0e1e32"
         opacity="0.25"
         d="M 217.08,0 H 1801 v 0.95 l -0.59,0.04 C 1272.53,1 744.65,1.01 216.77,0.99 Z"
         id="path1" />
    </g>
    <g
       id="#3a7bc8ff">
      <path
         fill="#3a7bc8"
         opacity="1"
         d="M 15.83,754.6 C 82.8,503.39 149.82,252.2 216.77,0.99 c 527.88,0.02 1055.76,0.01 1583.64,0 -40.08,160.41 -79.97,320.86 -120.04,481.27 -31.72,0.22 -63.44,0.31 -95.16,0.24 -24.53,86.58 -49.13,173.15 -73.68,259.74 -6.87,23.9 -13.45,47.9 -20.47,71.76 H 0 v 0.84 C 4.84,794.65 10.61,774.69 15.83,754.6 M 1127.11,73.97 c -8.2,4.01 -13.66,12.85 -13.6,21.98 -0.04,31.33 0.02,62.66 -0.03,93.99 -7.01,-9.05 -15.15,-17.33 -24.74,-23.65 -23.14,-15.56 -53.53,-17.84 -79.72,-9.39 -17.61,5.71 -33.48,16.6 -45.19,30.94 -13.8,16.7 -21.71,37.74 -24.24,59.13 -2.32,19.95 -1.15,40.49 4.92,59.71 5.82,18.57 16.52,35.76 31.36,48.46 21.87,19.12 52.55,27.52 81.11,22.14 11.4,-2.1 22.34,-6.71 31.78,-13.45 9.73,-6.8 17.74,-15.73 24.78,-25.22 0.15,8.98 -1.45,18.96 4.08,26.78 7.6,11.9 25.64,14.64 36.57,5.83 6.54,-4.92 9.78,-13.18 9.56,-21.23 0.01,-81.32 0,-162.64 0,-243.96 0.02,-7.76 0.66,-16.19 -3.77,-23.02 -6.51,-10.9 -21.7,-14.64 -32.87,-9.04 m -701.39,52.87 c -48.05,23.56 -96.1,47.12 -144.14,70.68 -5.29,2.48 -10.68,5 -15.05,8.96 -6.17,5.3 -9.77,13.35 -9.56,21.49 -0.42,7.35 1.41,15.04 6.34,20.68 5.91,7.43 15.16,10.56 23.3,14.79 45.17,22.11 90.3,44.27 135.46,66.4 3.41,1.63 6.76,3.5 10.46,4.42 9.16,2.11 19.77,-2.24 23.94,-10.88 5.49,-10.77 0.43,-25.06 -10.49,-30.15 -45.47,-21.57 -91.04,-42.93 -136.56,-64.39 44.39,-20.8 88.79,-41.58 133.19,-62.35 4.37,-1.95 8.66,-4.46 11.6,-8.33 4.23,-5.3 5.4,-12.66 3.68,-19.14 -1.84,-7.13 -7.61,-13.35 -14.92,-14.91 -5.86,-1.14 -11.99,-0.03 -17.25,2.73 m 161.85,25.97 c -29.31,3.05 -57.18,18.2 -75.35,41.43 -25.88,32.23 -31.75,78.66 -15.96,116.67 11.43,28.11 35.01,50.98 63.56,61.31 21.01,7.84 44.2,8.8 66.13,4.69 18.31,-3.43 35.42,-12.27 49.25,-24.7 3.47,-3.26 7.56,-6.21 9.44,-10.75 3.39,-8.1 1.69,-18.2 -4.56,-24.47 -6.98,-7.31 -19.38,-8.53 -27.38,-2.18 -6.48,5.29 -13.22,10.39 -20.83,13.97 -17.02,8.16 -37.62,8.86 -54.99,1.34 -14.05,-5.98 -25.4,-17.5 -31.92,-31.23 -12.65,-26.81 -8.95,-61.45 11.5,-83.45 12.62,-13.9 31.95,-21.26 50.62,-19.13 14.3,1.14 27.56,7.92 38.43,17.03 9.62,8.81 26.43,8.15 34.63,-2.28 5.24,-6.39 6.4,-15.71 3.2,-23.28 -2.8,-7.12 -9.49,-11.37 -15.33,-15.79 -23,-16.66 -52.56,-22.08 -80.44,-19.18 m 206.98,-0.01 c -6.18,0.65 -12.31,1.78 -18.31,3.39 -30.76,7.97 -57.74,29.47 -72.05,57.89 -10.61,20.6 -14.34,44.47 -11.39,67.4 3.72,30.75 21.11,59.55 46.67,77.07 34.59,24.31 82.28,27.16 120.25,9.17 16.21,-7.74 30.59,-19.34 41.44,-33.67 22.9,-29.63 28.85,-70.86 16.7,-106.11 -9.64,-28.78 -31.83,-52.92 -59.51,-65.29 -19.85,-9.02 -42.17,-12.13 -63.8,-9.85 m 496.99,0.06 c -32.68,3.33 -63.68,21.2 -82.26,48.39 -23.34,33.34 -26.51,79.44 -8.29,115.78 8.94,18.01 22.92,33.48 39.93,44.21 34.17,21.74 79.51,23.8 116,6.59 26.97,-12.61 48.55,-36.35 58.2,-64.56 8.39,-23.98 8.41,-50.74 0.38,-74.82 -9.48,-28.67 -31.34,-52.85 -58.78,-65.39 -20.22,-9.39 -43.08,-12.65 -65.18,-10.2 m 180.64,10.56 c -5.56,1.99 -11.67,3.48 -15.89,7.88 -5.29,5.29 -7.69,13.39 -5.59,20.63 2.28,8.87 11.13,15.45 20.28,15.11 5.13,0.29 9.87,-1.87 14.6,-3.51 13.96,-4.59 28.73,-6.47 43.41,-6.29 10.07,0.25 20.39,1.75 29.48,6.35 7.52,3.7 13.91,9.8 17.54,17.4 4.46,8.79 5.17,18.89 4.99,28.59 -24.98,-8.09 -51.65,-10.62 -77.73,-7.86 -18.79,2.26 -37.99,8.35 -51.98,21.62 -12.6,11.92 -18.77,29.49 -18.56,46.64 -0.4,13.04 2.77,26.36 10.02,37.3 8.04,12.48 20.86,21.26 34.69,26.23 17.1,6.05 35.86,6.69 53.6,3.31 19.23,-3.72 36.9,-14.32 49.48,-29.3 -0.08,6.03 -0.64,12.58 2.86,17.88 8.21,13.39 29.73,14.79 40,3.08 4.31,-4.7 6.18,-11.14 6.11,-17.43 0.02,-29.36 0,-58.72 0.01,-88.08 0.06,-18.95 0.51,-38.45 -5.97,-56.55 -5.8,-17.5 -18.5,-32.61 -34.88,-41.1 -15.21,-8.07 -32.59,-10.94 -49.63,-11.53 -22.61,-0.62 -45.4,2.3 -66.84,9.63 m -229.76,230.1 c -4.93,1.35 -9.14,4.84 -11.55,9.32 -1.66,3.05 -3.14,6.2 -4.66,9.33 -54.88,112.48 -109.8,224.95 -164.68,337.43 -4.38,8.14 -2.6,19.28 5.16,24.74 9.09,7.4 24.4,4.75 29.52,-6.12 54.07,-110.28 107.97,-220.65 161.98,-330.97 3.21,-7.39 8.1,-14.23 9.36,-22.33 0.95,-5.84 -0.94,-12.1 -5.21,-16.25 -4.96,-5.33 -13.02,-7.12 -19.92,-5.15 m -467.69,28.22 c -7.84,2.16 -14.42,8.48 -16.72,16.3 -1.43,4.18 -0.96,8.65 -1.01,12.99 0,29.54 -0.01,59.08 0.01,88.62 -6.83,-9 -14.9,-17.17 -24.28,-23.52 -29.4,-20.02 -70.23,-18.86 -100.26,-0.75 -15.85,9.44 -28.73,23.57 -37.2,39.93 -8.26,15.93 -12.45,33.79 -13.22,51.67 -1.12,21.68 2.05,43.93 11.5,63.62 7.09,15.18 17.98,28.56 31.42,38.56 25.81,19.22 61.78,25 91.76,12.63 16.56,-6.84 30.02,-19.59 40.24,-34.07 0.51,8.44 -1.58,17.62 2.92,25.32 6.22,11.8 22.45,16.25 34.03,9.88 8.04,-4.07 13.17,-12.89 13.07,-21.87 0.02,-85.01 0,-170.03 0.02,-255.05 0.14,-7.07 -2.8,-14.15 -8.11,-18.84 -6.42,-5.81 -15.9,-7.81 -24.17,-5.42 m 510.88,63.05 c -5.3,10.74 -0.17,24.87 10.68,29.87 45.38,21.64 91.01,42.78 136.4,64.44 -42.74,20.17 -85.52,40.27 -128.26,60.43 -5.81,2.89 -12.49,4.97 -16.52,10.39 -7.3,9.15 -5.17,24.07 4.46,30.77 6.9,5.1 16.56,4.28 23.86,0.45 50.49,-24.76 100.94,-49.62 151.42,-74.41 8.16,-4.14 15.31,-11.42 17.01,-20.68 1.47,-8.73 0.78,-18.54 -4.95,-25.7 -4.27,-5.61 -10.44,-9.26 -16.76,-12.13 -49.5,-24.22 -98.88,-48.68 -148.4,-72.87 -10.1,-5.24 -24.11,-1.04 -28.94,9.44 M 220.59,502.76 c -29.87,4.17 -57.65,21.12 -74.92,45.86 -24.12,33.78 -27.67,80.86 -9.35,118.04 13.14,27.5 38.36,48.8 67.62,57.29 20.46,6.03 42.46,6.14 63.22,1.49 19.92,-4.51 37.94,-15.69 52.02,-30.33 4.74,-5.78 5.47,-14.17 2.92,-21.04 -2.61,-7.19 -9.29,-12.75 -16.9,-13.8 -6.02,-1.06 -12.24,1.18 -16.84,5.06 -7.4,6.29 -15.63,11.76 -24.77,15.16 -14.23,5.39 -30.32,5.72 -44.76,0.9 -13.39,-4.48 -25.04,-13.78 -32.56,-25.7 -10.33,-16.04 -13.47,-36.11 -10.24,-54.77 2.82,-16.22 11.15,-31.69 24.03,-42.1 10.85,-8.89 24.91,-13.8 38.95,-13.34 16.03,-0.14 31.32,6.89 43.43,17.06 5.5,4.89 13.2,7.27 20.5,6.06 7.81,-1.05 14.81,-6.56 17.74,-13.87 2.57,-6.45 2.03,-14.05 -1.44,-20.06 -3.25,-5.9 -9.15,-9.55 -14.38,-13.5 -24.11,-17.29 -55.28,-22.39 -84.27,-18.41 m 212.98,-0.01 c -8.36,1.22 -16.64,3.23 -24.55,6.22 -27.3,9.96 -50.41,30.89 -62.83,57.18 -10.27,21.36 -13.27,45.91 -9.42,69.22 4.84,29.62 22.38,56.82 47.31,73.51 36,24.38 85.45,26.26 123.67,5.86 25.77,-13.62 45.83,-37.62 54.43,-65.49 7.55,-24.42 6.84,-51.4 -2.19,-75.33 -10.34,-27.69 -32.34,-50.62 -59.44,-62.37 -20.9,-9.19 -44.42,-11.98 -66.98,-8.8 m 498.85,-0.19 c -36.38,4.39 -70.16,27.16 -86.91,59.9 -11.23,21.09 -14.93,45.74 -11.82,69.33 3.84,29.44 20.15,56.94 44.12,74.45 38.48,28.53 94.43,29.88 134.71,4.23 13.23,-8.36 24.7,-19.51 33.38,-32.54 21.05,-31.03 24.61,-72.67 10.28,-107.18 -8.33,-20.22 -22.85,-37.81 -41.09,-49.87 -24.06,-16.08 -54.14,-22.07 -82.67,-18.32 z"
         id="path2" />
      <path
         fill="#3a7bc8"
         opacity="1"
         d="m 796.52,196.8 c 15.62,-2.43 32.2,0.51 45.61,9.02 15.66,9.68 26.42,26.32 30.09,44.23 2.95,14.28 2.04,29.44 -2.97,43.17 -5.23,14.28 -15.44,26.87 -28.87,34.17 -12.81,7.14 -28.03,9.21 -42.44,7.21 -15.95,-2.34 -30.83,-11.03 -40.73,-23.74 -20.52,-25.82 -20.39,-65.79 0.06,-91.6 9.57,-12.17 23.98,-20.21 39.25,-22.46 z"
         id="path3" />
      <path
         fill="#3a7bc8"
         opacity="1"
         d="m 1040.46,196.54 c 15.09,-2.76 31.16,0.47 43.95,8.96 14.61,9.45 24.56,25.2 28.14,42.1 3.08,14.68 2.46,30.25 -2.53,44.45 -5.41,15.53 -16.59,29.21 -31.36,36.67 -13.72,7.21 -30.3,8.53 -45.06,3.92 -13.55,-4.13 -25.27,-13.41 -32.95,-25.25 -9.48,-14.49 -12.79,-32.36 -11.36,-49.45 1.05,-14.54 5.95,-29.04 15.24,-40.41 8.9,-11.06 21.98,-18.54 35.93,-20.99 z"
         id="path4" />
      <path
         fill="#3a7bc8"
         opacity="1"
         d="m 1294.46,196.73 c 17.74,-2.71 36.62,1.8 50.73,13.02 13.8,10.77 22.69,27.21 25.25,44.43 2.58,17.57 -0.32,36.25 -9.79,51.44 -8.01,13.04 -20.95,23 -35.73,27.08 -18.73,5.32 -39.95,2.71 -56.05,-8.55 -15.65,-10.65 -25.89,-28.31 -28.61,-46.93 -2.86,-19.85 1.36,-41.2 13.85,-57.19 9.68,-12.7 24.56,-21.13 40.35,-23.3 z"
         id="path5" />
      <path
         fill="#3a7bc8"
         opacity="1"
         d="m 1498.24,280.19 c 10.2,-5.84 22.18,-7.41 33.75,-7.65 16.91,0.13 33.95,2.59 49.78,8.72 -0.29,9.93 1.14,20.29 -2.76,29.73 -5.52,14.49 -19.28,24.35 -33.84,28.43 -10.72,3.08 -22.18,3.74 -33.17,1.86 -9.77,-1.81 -19.64,-6.41 -25.37,-14.83 -5.69,-8.12 -6.37,-18.91 -3.53,-28.2 2.35,-7.75 8.13,-14.14 15.14,-18.06 z"
         id="path6" />
      <path
         fill="#3a7bc8"
         opacity="1"
         d="m 684.53,545.85 c 15.67,-2.76 32.29,1.14 45.19,10.41 12.41,8.76 21.19,22.14 25.14,36.73 3.8,13.98 3.85,28.97 0.19,42.98 -4.18,15.82 -13.98,30.36 -27.89,39.18 -14.6,9.57 -33.51,12.26 -50.14,6.9 -12.58,-3.84 -23.69,-12.04 -31.31,-22.73 -10.44,-14.39 -14.36,-32.73 -13.19,-50.28 0.83,-15.35 5.83,-30.8 15.82,-42.68 9.06,-10.92 22.18,-18.31 36.19,-20.51 z"
         id="path7" />
      <path
         fill="#3a7bc8"
         opacity="1"
         d="m 439.23,546.32 c 15.86,-2.53 32.79,0.27 46.4,9.02 13.48,8.37 23.35,21.95 28.09,37 5.27,16.99 4.71,35.82 -1.94,52.36 -4.8,12.07 -13.31,22.69 -24.2,29.8 -13.37,8.75 -30.04,11.77 -45.75,9.59 -15.62,-2.19 -30.31,-10.38 -40.28,-22.61 -20.88,-25.05 -21.71,-64.24 -2.69,-90.55 9.46,-13.19 24.36,-22.15 40.37,-24.61 z"
         id="path8" />
      <path
         fill="#3a7bc8"
         opacity="1"
         d="m 934.47,546.72 c 14.25,-2.73 29.46,-1.19 42.55,5.24 15.55,7.48 27.55,21.55 33.26,37.75 9.19,25.84 4.23,57.36 -15.59,77.01 -21.76,21.83 -59.59,24.07 -84.16,5.67 -14.35,-10.49 -23.83,-26.94 -26.73,-44.38 -3.12,-19.06 0.39,-39.58 11.47,-55.62 8.99,-13.3 23.42,-22.71 39.2,-25.67 z"
         id="path9" />
    </g>
    <g
       id="#ffd200ff">
      <path
         fill="#ffd200"
         opacity="1"
         d="m 1127.11,73.97 c 11.17,-5.6 26.36,-1.86 32.87,9.04 4.43,6.83 3.79,15.26 3.77,23.02 0,81.32 0.01,162.64 0,243.96 0.22,8.05 -3.02,16.31 -9.56,21.23 -10.93,8.81 -28.97,6.07 -36.57,-5.83 -5.53,-7.82 -3.93,-17.8 -4.08,-26.78 -7.04,9.49 -15.05,18.42 -24.78,25.22 -9.44,6.74 -20.38,11.35 -31.78,13.45 -28.56,5.38 -59.24,-3.02 -81.11,-22.14 -14.84,-12.7 -25.54,-29.89 -31.36,-48.46 -6.07,-19.22 -7.24,-39.76 -4.92,-59.71 2.53,-21.39 10.44,-42.43 24.24,-59.13 11.71,-14.34 27.58,-25.23 45.19,-30.94 26.19,-8.45 56.58,-6.17 79.72,9.39 9.59,6.32 17.73,14.6 24.74,23.65 0.05,-31.33 -0.01,-62.66 0.03,-93.99 -0.06,-9.13 5.4,-17.97 13.6,-21.98 m -86.65,122.57 c -13.95,2.45 -27.03,9.93 -35.93,20.99 -9.29,11.37 -14.19,25.87 -15.24,40.41 -1.43,17.09 1.88,34.96 11.36,49.45 7.68,11.84 19.4,21.12 32.95,25.25 14.76,4.61 31.34,3.29 45.06,-3.92 14.77,-7.46 25.95,-21.14 31.36,-36.67 4.99,-14.2 5.61,-29.77 2.53,-44.45 -3.58,-16.9 -13.53,-32.65 -28.14,-42.1 -12.79,-8.49 -28.86,-11.72 -43.95,-8.96 z"
         id="path10" />
      <path
         fill="#ffd200"
         opacity="1"
         d="m 587.57,152.81 c 27.88,-2.9 57.44,2.52 80.44,19.18 5.84,4.42 12.53,8.67 15.33,15.79 3.2,7.57 2.04,16.89 -3.2,23.28 -8.2,10.43 -25.01,11.09 -34.63,2.28 -10.87,-9.11 -24.13,-15.89 -38.43,-17.03 -18.67,-2.13 -38,5.23 -50.62,19.13 -20.45,22 -24.15,56.64 -11.5,83.45 6.52,13.73 17.87,25.25 31.92,31.23 17.37,7.52 37.97,6.82 54.99,-1.34 7.61,-3.58 14.35,-8.68 20.83,-13.97 8,-6.35 20.4,-5.13 27.38,2.18 6.25,6.27 7.95,16.37 4.56,24.47 -1.88,4.54 -5.97,7.49 -9.44,10.75 -13.83,12.43 -30.94,21.27 -49.25,24.7 -21.93,4.11 -45.12,3.15 -66.13,-4.69 -28.55,-10.33 -52.13,-33.2 -63.56,-61.31 -15.79,-38.01 -9.92,-84.44 15.96,-116.67 18.17,-23.23 46.04,-38.38 75.35,-41.43 z"
         id="path11" />
      <path
         fill="#ffd200"
         opacity="1"
         d="m 794.55,152.8 c 21.63,-2.28 43.95,0.83 63.8,9.85 27.68,12.37 49.87,36.51 59.51,65.29 12.15,35.25 6.2,76.48 -16.7,106.11 -10.85,14.33 -25.23,25.93 -41.44,33.67 -37.97,17.99 -85.66,15.14 -120.25,-9.17 -25.56,-17.52 -42.95,-46.32 -46.67,-77.07 -2.95,-22.93 0.78,-46.8 11.39,-67.4 14.31,-28.42 41.29,-49.92 72.05,-57.89 6,-1.61 12.13,-2.74 18.31,-3.39 m 1.97,44 c -15.27,2.25 -29.68,10.29 -39.25,22.46 -20.45,25.81 -20.58,65.78 -0.06,91.6 9.9,12.71 24.78,21.4 40.73,23.74 14.41,2 29.63,-0.07 42.44,-7.21 13.43,-7.3 23.64,-19.89 28.87,-34.17 5.01,-13.73 5.92,-28.89 2.97,-43.17 -3.67,-17.91 -14.43,-34.55 -30.09,-44.23 -13.41,-8.51 -29.99,-11.45 -45.61,-9.02 z"
         id="path12" />
      <path
         fill="#ffd200"
         opacity="1"
         d="m 1291.54,152.86 c 22.1,-2.45 44.96,0.81 65.18,10.2 27.44,12.54 49.3,36.72 58.78,65.39 8.03,24.08 8.01,50.84 -0.38,74.82 -9.65,28.21 -31.23,51.95 -58.2,64.56 -36.49,17.21 -81.83,15.15 -116,-6.59 -17.01,-10.73 -30.99,-26.2 -39.93,-44.21 -18.22,-36.34 -15.05,-82.44 8.29,-115.78 18.58,-27.19 49.58,-45.06 82.26,-48.39 m 2.92,43.87 c -15.79,2.17 -30.67,10.6 -40.35,23.3 -12.49,15.99 -16.71,37.34 -13.85,57.19 2.72,18.62 12.96,36.28 28.61,46.93 16.1,11.26 37.32,13.87 56.05,8.55 14.78,-4.08 27.72,-14.04 35.73,-27.08 9.47,-15.19 12.37,-33.87 9.79,-51.44 -2.56,-17.22 -11.45,-33.66 -25.25,-44.43 -14.11,-11.22 -32.99,-15.73 -50.73,-13.02 z"
         id="path13" />
      <path
         fill="#ffd200"
         opacity="1"
         d="m 774.73,421.74 c 8.27,-2.39 17.75,-0.39 24.17,5.42 5.31,4.69 8.25,11.77 8.11,18.84 -0.02,85.02 0,170.04 -0.02,255.05 0.1,8.98 -5.03,17.8 -13.07,21.87 -11.58,6.37 -27.81,1.92 -34.03,-9.88 -4.5,-7.7 -2.41,-16.88 -2.92,-25.32 -10.22,14.48 -23.68,27.23 -40.24,34.07 -29.98,12.37 -65.95,6.59 -91.76,-12.63 -13.44,-10 -24.33,-23.38 -31.42,-38.56 -9.45,-19.69 -12.62,-41.94 -11.5,-63.62 0.77,-17.88 4.96,-35.74 13.22,-51.67 8.47,-16.36 21.35,-30.49 37.2,-39.93 30.03,-18.11 70.86,-19.27 100.26,0.75 9.38,6.35 17.45,14.52 24.28,23.52 -0.02,-29.54 -0.01,-59.08 -0.01,-88.62 0.05,-4.34 -0.42,-8.81 1.01,-12.99 2.3,-7.82 8.88,-14.14 16.72,-16.3 m -90.2,124.11 c -14.01,2.2 -27.13,9.59 -36.19,20.51 -9.99,11.88 -14.99,27.33 -15.82,42.68 -1.17,17.55 2.75,35.89 13.19,50.28 7.62,10.69 18.73,18.89 31.31,22.73 16.63,5.36 35.54,2.67 50.14,-6.9 13.91,-8.82 23.71,-23.36 27.89,-39.18 3.66,-14.01 3.61,-29 -0.19,-42.98 -3.95,-14.59 -12.73,-27.97 -25.14,-36.73 -12.9,-9.27 -29.52,-13.17 -45.19,-10.41 z"
         id="path14" />
      <path
         fill="#ffd200"
         opacity="1"
         d="m 220.59,502.76 c 28.99,-3.98 60.16,1.12 84.27,18.41 5.23,3.95 11.13,7.6 14.38,13.5 3.47,6.01 4.01,13.61 1.44,20.06 -2.93,7.31 -9.93,12.82 -17.74,13.87 -7.3,1.21 -15,-1.17 -20.5,-6.06 -12.11,-10.17 -27.4,-17.2 -43.43,-17.06 -14.04,-0.46 -28.1,4.45 -38.95,13.34 -12.88,10.41 -21.21,25.88 -24.03,42.1 -3.23,18.66 -0.09,38.73 10.24,54.77 7.52,11.92 19.17,21.22 32.56,25.7 14.44,4.82 30.53,4.49 44.76,-0.9 9.14,-3.4 17.37,-8.87 24.77,-15.16 4.6,-3.88 10.82,-6.12 16.84,-5.06 7.61,1.05 14.29,6.61 16.9,13.8 2.55,6.87 1.82,15.26 -2.92,21.04 -14.08,14.64 -32.1,25.82 -52.02,30.33 -20.76,4.65 -42.76,4.54 -63.22,-1.49 -29.26,-8.49 -54.48,-29.79 -67.62,-57.29 -18.32,-37.18 -14.77,-84.26 9.35,-118.04 17.27,-24.74 45.05,-41.69 74.92,-45.86 z"
         id="path15" />
      <path
         fill="#ffd200"
         opacity="1"
         d="m 433.57,502.75 c 22.56,-3.18 46.08,-0.39 66.98,8.8 27.1,11.75 49.1,34.68 59.44,62.37 9.03,23.93 9.74,50.91 2.19,75.33 -8.6,27.87 -28.66,51.87 -54.43,65.49 -38.22,20.4 -87.67,18.52 -123.67,-5.86 -24.93,-16.69 -42.47,-43.89 -47.31,-73.51 -3.85,-23.31 -0.85,-47.86 9.42,-69.22 12.42,-26.29 35.53,-47.22 62.83,-57.18 7.91,-2.99 16.19,-5 24.55,-6.22 m 5.66,43.57 c -16.01,2.46 -30.91,11.42 -40.37,24.61 -19.02,26.31 -18.19,65.5 2.69,90.55 9.97,12.23 24.66,20.42 40.28,22.61 15.71,2.18 32.38,-0.84 45.75,-9.59 10.89,-7.11 19.4,-17.73 24.2,-29.8 6.65,-16.54 7.21,-35.37 1.94,-52.36 -4.74,-15.05 -14.61,-28.63 -28.09,-37 -13.61,-8.75 -30.54,-11.55 -46.4,-9.02 z"
         id="path16" />
      <path
         fill="#ffd200"
         opacity="1"
         d="m 932.42,502.56 c 28.53,-3.75 58.61,2.24 82.67,18.32 18.24,12.06 32.76,29.65 41.09,49.87 14.33,34.51 10.77,76.15 -10.28,107.18 -8.68,13.03 -20.15,24.18 -33.38,32.54 -40.28,25.65 -96.23,24.3 -134.71,-4.23 -23.97,-17.51 -40.28,-45.01 -44.12,-74.45 -3.11,-23.59 0.59,-48.24 11.82,-69.33 16.75,-32.74 50.53,-55.51 86.91,-59.9 m 2.05,44.16 c -15.78,2.96 -30.21,12.37 -39.2,25.67 -11.08,16.04 -14.59,36.56 -11.47,55.62 2.9,17.44 12.38,33.89 26.73,44.38 24.57,18.4 62.4,16.16 84.16,-5.67 19.82,-19.65 24.78,-51.17 15.59,-77.01 -5.71,-16.2 -17.71,-30.27 -33.26,-37.75 -13.09,-6.43 -28.3,-7.97 -42.55,-5.24 z"
         id="path17" />
    </g>
    <g
       id="#ffffffff">
      <path
         fill="#ffffff"
         opacity="1"
         d="m 425.72,126.84 c 5.26,-2.76 11.39,-3.87 17.25,-2.73 7.31,1.56 13.08,7.78 14.92,14.91 1.72,6.48 0.55,13.84 -3.68,19.14 -2.94,3.87 -7.23,6.38 -11.6,8.33 -44.4,20.77 -88.8,41.55 -133.19,62.35 45.52,21.46 91.09,42.82 136.56,64.39 10.92,5.09 15.98,19.38 10.49,30.15 -4.17,8.64 -14.78,12.99 -23.94,10.88 -3.7,-0.92 -7.05,-2.79 -10.46,-4.42 -45.16,-22.13 -90.29,-44.29 -135.46,-66.4 -8.14,-4.23 -17.39,-7.36 -23.3,-14.79 -4.93,-5.64 -6.76,-13.33 -6.34,-20.68 -0.21,-8.14 3.39,-16.19 9.56,-21.49 4.37,-3.96 9.76,-6.48 15.05,-8.96 48.04,-23.56 96.09,-47.12 144.14,-70.68 z"
         id="path18" />
      <path
         fill="#ffffff"
         opacity="1"
         d="m 1472.18,163.42 c 21.44,-7.33 44.23,-10.25 66.84,-9.63 17.04,0.59 34.42,3.46 49.63,11.53 16.38,8.49 29.08,23.6 34.88,41.1 6.48,18.1 6.03,37.6 5.97,56.55 -0.01,29.36 0.01,58.72 -0.01,88.08 0.07,6.29 -1.8,12.73 -6.11,17.43 -10.27,11.71 -31.79,10.31 -40,-3.08 -3.5,-5.3 -2.94,-11.85 -2.86,-17.88 -12.58,14.98 -30.25,25.58 -49.48,29.3 -17.74,3.38 -36.5,2.74 -53.6,-3.31 -13.83,-4.97 -26.65,-13.75 -34.69,-26.23 -7.25,-10.94 -10.42,-24.26 -10.02,-37.3 -0.21,-17.15 5.96,-34.72 18.56,-46.64 13.99,-13.27 33.19,-19.36 51.98,-21.62 26.08,-2.76 52.75,-0.23 77.73,7.86 0.18,-9.7 -0.53,-19.8 -4.99,-28.59 -3.63,-7.6 -10.02,-13.7 -17.54,-17.4 -9.09,-4.6 -19.41,-6.1 -29.48,-6.35 -14.68,-0.18 -29.45,1.7 -43.41,6.29 -4.73,1.64 -9.47,3.8 -14.6,3.51 -9.15,0.34 -18,-6.24 -20.28,-15.11 -2.1,-7.24 0.3,-15.34 5.59,-20.63 4.22,-4.4 10.33,-5.89 15.89,-7.88 m 26.06,116.77 c -7.01,3.92 -12.79,10.31 -15.14,18.06 -2.84,9.29 -2.16,20.08 3.53,28.2 5.73,8.42 15.6,13.02 25.37,14.83 10.99,1.88 22.45,1.22 33.17,-1.86 14.56,-4.08 28.32,-13.94 33.84,-28.43 3.9,-9.44 2.47,-19.8 2.76,-29.73 -15.83,-6.13 -32.87,-8.59 -49.78,-8.72 -11.57,0.24 -23.55,1.81 -33.75,7.65 z"
         id="path19" />
      <path
         fill="#ffffff"
         opacity="1"
         d="m 1242.42,393.52 c 6.9,-1.97 14.96,-0.18 19.92,5.15 4.27,4.15 6.16,10.41 5.21,16.25 -1.26,8.1 -6.15,14.94 -9.36,22.33 -54.01,110.32 -107.91,220.69 -161.98,330.97 -5.12,10.87 -20.43,13.52 -29.52,6.12 -7.76,-5.46 -9.54,-16.6 -5.16,-24.74 54.88,-112.48 109.8,-224.95 164.68,-337.43 1.52,-3.13 3,-6.28 4.66,-9.33 2.41,-4.48 6.62,-7.97 11.55,-9.32 z"
         id="path20" />
      <path
         fill="#ffffff"
         opacity="1"
         d="m 1285.61,484.79 c 4.83,-10.48 18.84,-14.68 28.94,-9.44 49.52,24.19 98.9,48.65 148.4,72.87 6.32,2.87 12.49,6.52 16.76,12.13 5.73,7.16 6.42,16.97 4.95,25.7 -1.7,9.26 -8.85,16.54 -17.01,20.68 -50.48,24.79 -100.93,49.65 -151.42,74.41 -7.3,3.83 -16.96,4.65 -23.86,-0.45 -9.63,-6.7 -11.76,-21.62 -4.46,-30.77 4.03,-5.42 10.71,-7.5 16.52,-10.39 42.74,-20.16 85.52,-40.26 128.26,-60.43 -45.39,-21.66 -91.02,-42.8 -136.4,-64.44 -10.85,-5 -15.98,-19.13 -10.68,-29.87 z"
         id="path21" />
    </g>
  </g>
</svg>
