<?xml version="1.0" encoding="UTF-8" standalone="no"?>
<svg
   width="128"
   height="128"
   viewBox="0 0 128 128"
   version="1.1"
   id="svg27"
   sodipodi:docname="musical_1.svg"
   xmlns:inkscape="http://www.inkscape.org/namespaces/inkscape"
   xmlns:sodipodi="http://sodipodi.sourceforge.net/DTD/sodipodi-0.dtd"
   xmlns="http://www.w3.org/2000/svg"
   xmlns:svg="http://www.w3.org/2000/svg">
  <defs
     id="defs27" />
  <sodipodi:namedview
     id="namedview27"
     pagecolor="#ffffff"
     bordercolor="#666666"
     borderopacity="1.0"
     inkscape:showpageshadow="2"
     inkscape:pageopacity="0.0"
     inkscape:pagecheckerboard="0"
     inkscape:deskcolor="#d1d1d1"
     inkscape:document-units="pt" />
  <g
     id="g27"
     transform="matrix(0.25,0,0,0.25,-0.02006149,0)">
    <g
       id="#ffe177ff">
      <path
         fill="#ffe177"
         opacity="1"
         d="m 213.11,0 h 0.68 c 2.56,0.37 5.17,1.54 6.37,3.96 3.52,6.57 6.53,13.39 9.99,19.98 0.85,1.77 2.38,3.05 4.1,3.93 -1.97,13.18 -10.06,24.98 -21.03,32.37 -8.87,6.42 -20.18,8.88 -31,7.88 0.64,-2.87 -0.24,-5.91 -2.39,-7.91 -4.82,-4.85 -9.79,-9.54 -14.67,-14.32 -5.33,-3.82 -3.31,-13.27 3.27,-14.23 7.34,-1.24 14.75,-2 22.08,-3.31 2.47,-0.39 4.7,-1.92 5.84,-4.16 3.46,-6.54 6.48,-13.31 9.91,-19.86 1.21,-2.69 4.04,-4.07 6.85,-4.33 z"
         id="path1" />
      <path
         fill="#ffe177"
         opacity="1"
         d="m 426.97,202.99 c 2.81,-4.96 11.05,-4.72 13.58,0.39 3.46,6.62 6.56,13.42 10,20.05 0.87,1.83 2.55,3.04 4.34,3.89 -2.29,12.78 -9.32,24.97 -20.27,32.21 -9.17,6.66 -20.74,9.45 -31.98,8.68 0.21,-2.77 0.25,-5.89 -1.88,-7.99 -5.35,-5.61 -11.18,-10.77 -16.55,-16.36 -3.74,-4 -1.43,-11.43 3.86,-12.7 7.67,-1.46 15.48,-2.11 23.16,-3.55 2.28,-0.43 4.33,-1.93 5.41,-4 3.59,-6.8 6.69,-13.85 10.33,-20.62 z"
         id="path2" />
      <path
         fill="#ffe177"
         opacity="1"
         d="m 415.54,349.44 c 2,-3.64 7.94,-3.66 9.98,-0.04 2.95,5.18 5.17,10.76 8.11,15.95 0.95,1.72 2.88,2.49 4.74,2.77 0.05,1.06 0.33,2.15 0.05,3.21 -2.93,8.98 -8.76,17.23 -17.05,21.98 -7.26,4.59 -15.98,6.3 -24.48,5.82 0.41,-2.03 0.67,-4.39 -0.78,-6.1 -4.11,-4.65 -9,-8.57 -13.12,-13.21 -2.53,-3.19 -0.49,-8.5 3.5,-9.23 5.79,-1.07 11.68,-1.57 17.46,-2.7 1.67,-0.37 3.09,-1.55 3.83,-3.08 2.73,-5.05 4.95,-10.36 7.76,-15.37 z"
         id="path3" />
    </g>
    <g
       id="#038bfcff">
      <path
         fill="#038bfc"
         opacity="1"
         d="m 386.82,19.58 c 6.35,-1.91 12.68,-3.95 19.12,-5.55 3.54,-0.91 7.33,2.27 7.03,5.9 0,11.73 0.06,23.46 -0.04,35.19 -4.89,1.94 -10.03,3.09 -14.99,4.79 -32.34,9.69 -64.81,18.99 -97.17,28.62 -5.04,1.34 -10.13,2.56 -14.98,4.49 -0.13,-7.25 -0.16,-14.52 0.01,-21.77 7.87,-1.38 15.32,-4.43 23.05,-6.38 22.41,-6.58 44.8,-13.24 67.24,-19.72 4.76,-1.13 9.49,-4.42 10.49,-9.47 0.73,-5.33 0.21,-10.74 0.24,-16.1 z"
         id="path4" />
      <path
         fill="#038bfc"
         opacity="1"
         d="m 396.99,128.8 0.91,0.35 c 7.35,3.51 12.42,10.48 14.95,18.08 0.51,5.47 0.18,11.19 -2.35,16.17 -4.72,10.08 -16.66,16.25 -27.59,13.83 -8.66,-1.56 -16.11,-8.07 -19.04,-16.33 5.05,1.04 10.36,1.67 15.45,0.46 6.75,-2.02 12.9,-6.58 15.97,-13.04 3.26,-5.99 3.07,-13.04 1.7,-19.52 z"
         id="path5" />
      <path
         fill="#038bfc"
         opacity="1"
         d="m 284.82,152.37 0.95,0.47 c 3.09,1.53 6.12,3.35 8.52,5.86 3.25,3.51 4.94,8.1 6.55,12.52 0.57,5.44 -0.01,11.14 -2.57,16.06 -4.08,8.24 -13.04,14.05 -22.31,13.75 -10.64,0.6 -20.78,-6.91 -24.18,-16.85 9.03,3.22 19.92,1.35 26.51,-5.88 7.05,-6.46 9.16,-16.92 6.53,-25.93 z"
         id="path6" />
    </g>
    <g
       id="#0593fcff">
      <path
         fill="#0593fc"
         opacity="1"
         d="m 294.01,46.95 c 30.92,-9.16 61.95,-18.01 92.81,-27.37 -0.03,5.36 0.49,10.77 -0.24,16.1 -1,5.05 -5.73,8.34 -10.49,9.47 -22.44,6.48 -44.83,13.14 -67.24,19.72 -7.73,1.95 -15.18,5 -23.05,6.38 0.15,-4.75 -0.13,-9.51 0.14,-14.26 0.3,-4.58 3.68,-8.72 8.07,-10.04 z"
         id="path7" />
      <path
         fill="#0593fc"
         opacity="1"
         d="m 397.94,59.91 c 4.96,-1.7 10.1,-2.85 14.99,-4.79 -0.15,30.71 0,61.41 -0.08,92.11 -2.53,-7.6 -7.6,-14.57 -14.95,-18.08 -0.02,-23.08 -0.09,-46.16 0.04,-69.24 z"
         id="path8" />
      <path
         fill="#0593fc"
         opacity="1"
         d="m 285.79,93.02 c 4.85,-1.93 9.94,-3.15 14.98,-4.49 0.14,27.56 0.02,55.13 0.07,82.69 -1.61,-4.42 -3.3,-9.01 -6.55,-12.52 -2.4,-2.51 -5.43,-4.33 -8.52,-5.86 0.12,-19.94 0.08,-39.88 0.02,-59.82 z"
         id="path9" />
      <path
         fill="#0593fc"
         opacity="1"
         d="m 363.72,144.83 c 3.03,-9.98 12.82,-17.46 23.28,-17.56 3.41,-0.23 6.71,0.73 9.99,1.53 1.37,6.48 1.56,13.53 -1.7,19.52 -3.07,6.46 -9.22,11.02 -15.97,13.04 -5.09,1.21 -10.4,0.58 -15.45,-0.46 -1.42,-5.23 -1.9,-10.85 -0.15,-16.07 z"
         id="path10" />
      <path
         fill="#0593fc"
         opacity="1"
         d="m 256.61,159.48 c 6.7,-8.08 18.42,-10.72 28.18,-7.23 l 0.03,0.12 c 2.63,9.01 0.52,19.47 -6.53,25.93 -6.59,7.23 -17.48,9.1 -26.51,5.88 -2.59,-8.38 -1.08,-18.06 4.83,-24.7 z"
         id="path11" />
    </g>
    <g
       id="#ffd15bff">
      <path
         fill="#ffd15b"
         opacity="1"
         d="m 234.25,27.87 c 8.08,1.43 16.26,2.21 24.33,3.68 5.35,1.1 8.26,8.37 4.62,12.65 -5.25,5.73 -11.11,10.87 -16.52,16.45 -1.67,1.6 -2.5,3.96 -2.22,6.26 0.87,7.75 2.91,15.33 3.62,23.1 0.81,5.6 -5.97,10.3 -10.98,7.87 -6.7,-3.13 -13.08,-6.91 -19.7,-10.22 -2.4,-1.24 -5.37,-1.4 -7.8,-0.15 -6.62,3.3 -13.04,7.01 -19.7,10.23 -5.47,2.98 -12.67,-2.6 -11.4,-8.61 1.19,-7.01 2.28,-14.04 3.72,-21.01 10.82,1 22.13,-1.46 31,-7.88 10.97,-7.39 19.06,-19.19 21.03,-32.37 z"
         id="path12" />
      <path
         fill="#ffd15b"
         opacity="1"
         d="m 454.89,227.32 c 8.06,1.27 16.2,2.12 24.21,3.66 5.57,1.15 7.96,8.95 4.06,13.07 -5.35,5.67 -11.3,10.77 -16.63,16.46 -1.94,1.96 -1.94,4.86 -1.57,7.42 1.16,7.06 2.49,14.09 3.58,21.16 0.72,5.61 -5.82,10.59 -10.99,8.22 -6.88,-3.34 -13.53,-7.14 -20.36,-10.55 -2.21,-1.19 -5.02,-1.18 -7.2,0.06 -6.68,3.34 -13.18,7.03 -19.88,10.33 -5.17,2.73 -12.19,-2.28 -11.25,-8.09 0.75,-7 2.49,-13.86 3.32,-20.85 h 0.46 c 11.24,0.77 22.81,-2.02 31.98,-8.68 10.95,-7.24 17.98,-19.43 20.27,-32.21 z"
         id="path13" />
      <path
         fill="#ffd15b"
         opacity="1"
         d="m 438.37,368.12 c 5.2,0.5 10.38,1.34 15.55,2.12 2.89,0.37 5.4,2.85 5.38,5.85 0.29,4.15 -3.73,6.38 -6.16,9.07 -2.98,3.3 -7.02,5.81 -9.05,9.85 -0.03,6.75 2.3,13.35 2.84,20.08 -0.12,3.99 -4.76,7.22 -8.49,5.42 -5.25,-2.47 -10.22,-5.48 -15.45,-8 -1.66,-0.88 -3.71,-0.73 -5.31,0.19 -5.04,2.55 -9.95,5.39 -15.06,7.81 -4.09,1.99 -9.25,-2.16 -8.41,-6.55 0.9,-4.94 1.56,-9.93 2.68,-14.83 8.5,0.48 17.22,-1.23 24.48,-5.82 8.29,-4.75 14.12,-13 17.05,-21.98 0.28,-1.06 0,-2.15 -0.05,-3.21 z"
         id="path14" />
    </g>
    <g
       id="#0ada96ff">
      <path
         fill="#0ada96"
         opacity="1"
         d="m 154.37,139.11 c 8.18,-2.62 16.4,-5.12 24.61,-7.64 3.41,-1.44 7.49,1.88 6.99,5.48 -0.01,16.01 0.01,32.03 -0.01,48.04 0.33,2.67 -1.74,5.01 -4.22,5.66 -25.37,7.87 -50.78,15.63 -76.16,23.46 -5.06,1.52 -10.16,2.88 -15.1,4.73 -0.22,-8.53 -0.26,-17.08 0.01,-25.6 7.13,-1.35 13.86,-4.13 20.84,-6.03 12.17,-3.87 24.48,-7.28 36.57,-11.39 3.24,-0.99 6.1,-3.61 6.86,-6.97 0.53,-3.92 0.15,-7.9 0.2,-11.84 -0.14,-5.9 0.55,-11.84 -0.56,-17.68 z"
         id="path15" />
      <path
         fill="#0ada96"
         opacity="1"
         d="m 75.02,312.59 c 5.69,1.26 11.23,3.72 15.66,7.54 2.57,2.52 5.3,4.91 7.52,7.75 3.78,5.51 6.18,11.84 7.45,18.38 0.96,10.46 -2.04,21.43 -8.79,29.58 -6.97,8.66 -17.76,14.16 -28.9,14.45 -15.71,0.97 -31.28,-8.71 -37.56,-23.11 4.54,-0.43 9.09,0.59 13.61,-0.17 16.62,-1.82 31.13,-15.61 33.63,-32.16 0.77,-7.49 0.59,-15.32 -2.62,-22.26 z"
         id="path16" />
    </g>
    <g
       id="#05e39cff">
      <path
         fill="#05e39c"
         opacity="1"
         d="m 98.6,156.38 c 18.62,-5.61 37.15,-11.54 55.8,-17.05 1.11,5.84 0.42,11.78 0.56,17.68 -0.05,3.94 0.33,7.92 -0.2,11.84 -0.76,3.36 -3.62,5.98 -6.86,6.97 -12.09,4.11 -24.4,7.52 -36.57,11.39 -6.98,1.9 -13.71,4.68 -20.84,6.03 0.23,-9.06 -0.04,-18.13 0.13,-27.19 0.04,-4.59 3.58,-8.63 7.98,-9.67 z"
         id="path17" />
      <path
         fill="#05e39c"
         opacity="1"
         d="m 90.48,218.84 c 4.94,-1.85 10.04,-3.21 15.1,-4.73 0.04,44.05 -0.11,88.1 0.07,132.15 -1.27,-6.54 -3.67,-12.87 -7.45,-18.38 -2.22,-2.84 -4.95,-5.23 -7.52,-7.75 -0.31,-33.76 0.1,-67.53 -0.2,-101.29 z"
         id="path18" />
      <path
         fill="#05e39c"
         opacity="1"
         d="m 52.89,314.1 c 7.04,-2.67 14.78,-2.86 22.13,-1.51 3.21,6.94 3.39,14.77 2.62,22.26 -2.5,16.55 -17.01,30.34 -33.63,32.16 -4.52,0.76 -9.07,-0.26 -13.61,0.17 -3.47,-8.51 -4.46,-18.14 -1.81,-27.02 3.32,-11.91 12.67,-21.89 24.3,-26.06 z"
         id="path19" />
    </g>
    <g
       id="#fe733aff">
      <path
         fill="#fe733a"
         opacity="1"
         d="m 338.88,227.03 c 2.23,-0.67 4.89,-1.55 6.93,0.09 2.76,1.59 2.8,5.09 2.75,7.89 -0.14,18.25 0.16,36.52 -0.15,54.77 -5.14,0.88 -10.1,2.53 -15.09,4.02 -53.25,15.81 -106.61,31.26 -159.88,47 -5.06,1.35 -10.03,2.99 -15.08,4.36 -0.23,-9.8 -0.2,-19.61 -0.02,-29.41 46.43,-13.97 93.05,-27.3 139.52,-41.12 5.02,-1.52 10.82,-2.21 14.44,-6.43 2.57,-2.71 2.51,-6.7 2.52,-10.18 -0.12,-7.91 0.1,-15.81 -0.16,-23.71 8.01,-2.62 16.16,-4.8 24.22,-7.28 z"
         id="path20" />
      <path
         fill="#fe733a"
         opacity="1"
         d="m 324.52,419.54 c 1.18,-6.7 -0.12,-13.41 -0.97,-20.05 3.14,1.15 6.04,2.84 8.77,4.75 8.05,5.84 13.07,14.85 15.94,24.2 0.62,7.22 0.29,14.7 -2.32,21.53 -3.57,9.52 -10.97,17.52 -20.19,21.81 -10.41,4.93 -23.03,4.94 -33.44,-0.02 -9.2,-4.34 -16.74,-12.34 -20.15,-21.97 4.58,0.97 9.17,2.15 13.88,2.07 10.41,-0.09 20.75,-4.37 28.1,-11.75 5.25,-5.73 8.9,-12.94 10.38,-20.57 z"
         id="path21" />
      <path
         fill="#fe733a"
         opacity="1"
         d="m 148.63,436.11 c 3.55,1.31 6.87,3.21 9.79,5.62 1.85,1.75 3.62,3.58 5.43,5.37 4.86,4.7 6.68,11.42 9.54,17.34 1.01,9.53 -0.1,19.61 -5.06,27.98 -6.08,10.74 -17.43,18.03 -29.62,19.58 h -9.96 c -14,-2.35 -26.82,-12.04 -31.48,-25.65 4.23,0.79 8.42,1.97 12.73,2.19 10.81,-0.02 21.99,-4.02 29.23,-12.27 5.25,-4.65 8.1,-11.34 10.04,-17.93 1.4,-7.35 0.55,-14.91 -0.64,-22.23 z"
         id="path22" />
    </g>
    <g
       id="#fe7d43ff">
      <path
         fill="#fe7d43"
         opacity="1"
         d="m 173.07,275.9 c 47.19,-13.87 94.43,-27.6 141.59,-41.59 0.26,7.9 0.04,15.8 0.16,23.71 -0.01,3.48 0.05,7.47 -2.52,10.18 -3.62,4.22 -9.42,4.91 -14.44,6.43 -46.47,13.82 -93.09,27.15 -139.52,41.12 0.34,-9.25 -0.05,-18.52 0.19,-27.77 0.1,-3.22 1.72,-6.31 4.27,-8.27 3.01,-2.19 6.81,-2.68 10.27,-3.81 z"
         id="path23" />
      <path
         fill="#fe7d43"
         opacity="1"
         d="m 333.32,293.8 c 4.99,-1.49 9.95,-3.14 15.09,-4.02 -0.26,46.22 0.05,92.44 -0.15,138.66 -2.87,-9.35 -7.89,-18.36 -15.94,-24.2 l 1.02,0.69 c -0.05,-37.05 0,-74.09 -0.02,-111.13 z"
         id="path24" />
      <path
         fill="#fe7d43"
         opacity="1"
         d="m 158.36,345.16 c 5.05,-1.37 10.02,-3.01 15.08,-4.36 0.02,41.22 0.1,82.43 -0.05,123.64 -2.86,-5.92 -4.68,-12.64 -9.54,-17.34 -1.81,-1.79 -3.58,-3.62 -5.43,-5.37 0.04,-32.19 0.16,-64.39 -0.06,-96.57 z"
         id="path25" />
      <path
         fill="#fe7d43"
         opacity="1"
         d="m 295.88,399.12 c 8.88,-3.26 18.84,-2.85 27.67,0.37 0.85,6.64 2.15,13.35 0.97,20.05 -1.48,7.63 -5.13,14.84 -10.38,20.57 -7.35,7.38 -17.69,11.66 -28.1,11.75 -4.71,0.08 -9.3,-1.1 -13.88,-2.07 -2.84,-8.36 -3.22,-17.63 -0.37,-26.03 3.68,-11.34 12.85,-20.68 24.09,-24.64 z"
         id="path26" />
      <path
         fill="#fe7d43"
         opacity="1"
         d="m 118.1,436.95 c 9.53,-4.42 20.73,-4.42 30.53,-0.84 1.19,7.32 2.04,14.88 0.64,22.23 -1.94,6.59 -4.79,13.28 -10.04,17.93 -7.24,8.25 -18.42,12.25 -29.23,12.27 -4.31,-0.22 -8.5,-1.4 -12.73,-2.19 -2.51,-7.52 -3.12,-15.76 -1.06,-23.46 2.86,-11.38 11.18,-21.17 21.89,-25.94 z"
         id="path27" />
    </g>
  </g>
</svg>
