<?xml version="1.0" encoding="UTF-8" standalone="no"?>
<svg
   viewBox="0 0 128 128"
   width="128"
   height="128"
   version="1.1"
   id="svg4"
   sodipodi:docname="react.svg"
   inkscape:export-filename="react.svg"
   inkscape:export-xdpi="96"
   inkscape:export-ydpi="96"
   xmlns:inkscape="http://www.inkscape.org/namespaces/inkscape"
   xmlns:sodipodi="http://sodipodi.sourceforge.net/DTD/sodipodi-0.dtd"
   xmlns="http://www.w3.org/2000/svg"
   xmlns:svg="http://www.w3.org/2000/svg">
  <defs
     id="defs4" />
  <sodipodi:namedview
     id="namedview4"
     pagecolor="#ffffff"
     bordercolor="#666666"
     borderopacity="1.0"
     inkscape:showpageshadow="2"
     inkscape:pageopacity="0.0"
     inkscape:pagecheckerboard="0"
     inkscape:deskcolor="#d1d1d1" />
  <linearGradient
     id="9GkdZLxQa1XTDblOFwLcpa"
     x1="32"
     x2="32"
     y1="25.212999"
     y2="36.722"
     gradientUnits="userSpaceOnUse"
     gradientTransform="matrix(2.4324928,0,0,2.4324928,-13.77338,-14.902394)">
    <stop
       offset="0"
       stop-color="#6dc7ff"
       id="stop1" />
    <stop
       offset="1"
       stop-color="#e6abff"
       id="stop2" />
  </linearGradient>
  <circle
     cx="64.066391"
     cy="62.937378"
     r="14.594956"
     fill="url(#9GkdZLxQa1XTDblOFwLcpa)"
     id="circle2"
     style="fill:url(#9GkdZLxQa1XTDblOFwLcpa);stroke-width:2.43251" />
  <linearGradient
     id="9GkdZLxQa1XTDblOFwLcpb"
     x1="32"
     x2="32"
     y1="7.4260001"
     y2="53.439999"
     gradientUnits="userSpaceOnUse"
     gradientTransform="matrix(2.4324928,0,0,2.4324928,-13.77338,-14.902394)">
    <stop
       offset="0"
       stop-color="#1a6dff"
       id="stop3" />
    <stop
       offset="1"
       stop-color="#c822ff"
       id="stop4" />
  </linearGradient>
  <path
     fill="url(#9GkdZLxQa1XTDblOFwLcpb)"
     d="m 127.3112,62.937376 c 0,-9.141307 -10.32106,-17.068802 -26.39984,-21.872975 0.53758,-2.5079 0.99003,-4.974447 1.27463,-7.333964 1.59814,-13.337361 -1.1749,-22.678134 -7.810738,-26.3025471 -6.638274,-3.6219822 -15.991207,-0.9048877 -26.346333,7.6526221 -1.323274,1.09219 -2.644116,2.281678 -3.962531,3.527116 -1.31841,-1.24787 -2.639253,-2.434926 -3.962529,-3.527116 C 49.748738,6.5230022 40.390935,3.8083402 33.75753,7.4278899 27.121686,11.049871 24.348649,20.390644 25.946796,33.730437 c 0.282169,2.361951 0.737043,4.826064 1.274624,7.333964 -16.078776,4.804173 -26.399843,12.731668 -26.399843,21.872975 0,9.141307 10.321067,17.068801 26.399843,21.872979 -0.537581,2.5079 -0.990023,4.974447 -1.274624,7.333966 -1.598147,13.337349 1.17489,22.678129 7.810734,26.302539 1.919237,1.04841 4.062262,1.56409 6.39259,1.56409 5.733385,0 12.593014,-3.13061 19.953739,-9.21428 1.323276,-1.09219 2.644119,-2.28168 3.962529,-3.52711 1.318415,1.24787 2.639257,2.43492 3.962531,3.52711 7.360725,6.08367 14.220355,9.21428 19.953741,9.21428 2.330327,0 4.475786,-0.51812 6.392592,-1.56409 6.635838,-3.62198 9.408878,-12.96275 7.810738,-26.302539 -0.28217,-2.361955 -0.73705,-4.826066 -1.27463,-7.333966 16.07878,-4.804178 26.39984,-12.731672 26.39984,-21.872979 z M 71.125485,18.82655 c 8.586701,-7.095582 16.212564,-9.6983481 20.917004,-7.129635 4.704444,2.566279 6.638275,10.386745 5.312564,21.449719 -0.255409,2.138166 -0.664069,4.36876 -1.140836,6.638275 C 91.064628,38.522444 85.438272,37.559178 79.449474,36.948623 75.645056,31.414701 71.62901,26.364846 67.510802,22.032578 c 1.201651,-1.13354 2.408165,-2.208706 3.614683,-3.206028 z m 12.155168,54.602168 c -2.074915,3.799554 -4.281189,7.431264 -6.572598,10.882971 -4.016046,0.335684 -8.236418,0.518122 -12.641667,0.518122 -4.405241,0 -8.625618,-0.182432 -12.644096,-0.518122 -2.288973,-3.454136 -4.497679,-7.083417 -6.572597,-10.882971 -1.907072,-3.490629 -3.646307,-7.000716 -5.210399,-10.491342 1.564092,-3.488194 3.303327,-6.998282 5.210399,-10.491342 2.074918,-3.799554 4.28119,-7.431264 6.572597,-10.882973 4.018478,-0.335681 8.238855,-0.518121 12.644096,-0.518121 4.405249,0 8.625621,0.182433 12.644103,0.518121 2.288973,3.454142 4.497676,7.083419 6.572592,10.882973 1.907077,3.490628 3.646305,7.000714 5.210402,10.491342 -1.564097,3.488194 -3.305761,6.998282 -5.212832,10.491342 z m 7.732894,-4.44173 c 1.654093,4.230102 3.011423,8.377503 4.076856,12.39598 -3.755766,0.914616 -7.808303,1.688152 -12.184354,2.259787 1.598146,-2.554117 3.162239,-5.166617 4.643628,-7.883708 1.233273,-2.250058 2.371678,-4.512277 3.46387,-6.772059 z M 64.066388,100.40506 c -3.094129,-3.261969 -6.134744,-6.964223 -9.070763,-10.977836 2.957911,0.172716 5.981498,0.267573 9.070763,0.267573 3.089268,0 6.112856,-0.09488 9.070769,-0.267573 -2.936022,4.013613 -5.976636,7.715867 -9.070769,10.977836 z M 45.224303,83.642755 c -4.376056,-0.571635 -8.42859,-1.345171 -12.184359,-2.259787 1.06543,-4.018477 2.422763,-8.168308 4.076856,-12.39598 1.094623,2.262217 2.233031,4.522001 3.461438,6.77449 1.483821,2.71466 3.047913,5.32716 4.646065,7.881277 z M 37.119236,56.887768 c -1.654098,-4.230106 -3.011427,-8.379939 -4.076859,-12.395985 3.75577,-0.914617 7.808302,-1.688149 12.184357,-2.259787 -1.59815,2.554119 -3.16224,5.166615 -4.64363,7.88371 -1.233273,2.250055 -2.371681,4.512275 -3.463868,6.772062 z m 26.947152,-31.41808 c 3.094133,3.261976 6.134747,6.96423 9.070769,10.977841 -2.957913,-0.172718 -5.981501,-0.267576 -9.070769,-0.267576 -3.089265,0 -6.112852,0.09488 -9.070763,0.267576 2.936019,-4.013611 5.976634,-7.715865 9.070763,-10.977841 z m 23.485721,24.646018 c -1.48139,-2.714663 -3.045482,-5.327157 -4.643629,-7.88371 4.376056,0.571638 8.42859,1.34517 12.184355,2.259787 -1.065431,4.018478 -2.422763,8.168311 -4.076857,12.395985 -1.094623,-2.259787 -2.233028,-4.522007 -3.463869,-6.772062 z M 30.777725,33.149068 c -1.328138,-11.065408 0.608123,-18.885874 5.312564,-21.44972 1.187058,-0.649477 2.561416,-0.9657 4.08902,-0.9657 4.524437,0 10.406207,2.79007 16.827987,8.095338 1.206517,0.997321 2.415466,2.072483 3.619551,3.208454 -4.118212,4.33227 -8.13669,9.379695 -11.938677,14.916046 -5.991229,0.610558 -11.617583,1.576259 -16.76474,2.836288 -0.481631,-2.271948 -0.887859,-4.502544 -1.145705,-6.640706 z M 5.6865614,62.937376 c 0,-6.32448 8.4407506,-12.899508 22.6635366,-17.173399 1.474091,5.543652 3.495492,11.320822 6.01069,17.173399 -2.515198,5.855013 -4.536599,11.632178 -6.01069,17.173399 C 14.127312,75.836886 5.6865614,69.261858 5.6865614,62.937376 Z M 57.007296,107.0482 c -8.5867,7.09559 -16.205266,9.70322 -20.917007,7.12964 -4.704441,-2.56628 -6.638272,-10.38675 -5.312564,-21.449724 0.255411,-2.138162 0.664074,-4.368757 1.140839,-6.638275 5.149587,1.262464 10.775946,2.225731 16.764742,2.836291 3.804417,5.53392 7.820463,10.583773 11.938676,14.916038 -1.201652,1.13355 -2.408169,2.20871 -3.614686,3.20603 z M 97.355053,92.725683 c 1.328143,11.065407 -0.60812,18.885877 -5.312564,21.449717 -4.70444,2.57602 -12.327872,-0.0341 -20.917004,-7.12963 -1.206518,-0.99732 -2.415467,-2.07248 -3.619549,-3.20846 4.118208,-4.332268 8.136688,-9.379691 11.938672,-14.916045 5.991232,-0.610557 11.617588,-1.576256 16.764743,-2.836287 0.481633,2.271948 0.88786,4.502544 1.145702,6.640705 z m 2.42763,-12.614908 c -1.474092,-5.543651 -3.495494,-11.320824 -6.010691,-17.173399 2.515197,-5.855009 4.536599,-11.63218 6.010691,-17.173399 14.222787,4.273891 22.663537,10.848919 22.663537,17.173399 0,6.324482 -8.44075,12.89951 -22.663537,17.173399 z"
     id="path4"
     style="fill:url(#9GkdZLxQa1XTDblOFwLcpb);stroke-width:2.43251" />
</svg>
