<?xml version="1.0" encoding="UTF-8" standalone="no"?>
<svg
   viewBox="0 0 128 128"
   width="128"
   height="128"
   version="1.1"
   id="svg2"
   sodipodi:docname="spring-boot.svg"
   xmlns:inkscape="http://www.inkscape.org/namespaces/inkscape"
   xmlns:sodipodi="http://sodipodi.sourceforge.net/DTD/sodipodi-0.dtd"
   xmlns="http://www.w3.org/2000/svg"
   xmlns:svg="http://www.w3.org/2000/svg">
  <defs
     id="defs2" />
  <sodipodi:namedview
     id="namedview2"
     pagecolor="#ffffff"
     bordercolor="#666666"
     borderopacity="1.0"
     inkscape:showpageshadow="2"
     inkscape:pageopacity="0.0"
     inkscape:pagecheckerboard="0"
     inkscape:deskcolor="#d1d1d1" />
  <path
     fill="#8bc34a"
     d="m 125.80408,64.43144 c 0.21021,-12.981022 -2.7144,-28.417501 -8.80735,-46.528783 L 112.21986,3.7 105.73087,17.205015 c -0.34729,0.722014 -0.74334,1.428796 -1.15766,2.126438 C 93.913605,10.179848 80.082617,4.6139419 64.929461,4.6139419 31.278119,4.6139419 4,31.892061 4,65.543402 c 0,33.651342 27.278119,60.929458 60.929461,60.929458 33.651341,0 60.929459,-27.278116 60.929459,-60.929458 0,-0.374716 -0.0487,-0.737246 -0.0548,-1.111962 z"
     id="path1"
     style="stroke-width:3.04647" />
  <path
     fill="#ffffff"
     d="M 111.79945,91.615119 C 102.28531,104.72105 85.44441,105.42478 69.593611,105.14755 H 48.935477 43.031412 C 56.521195,100.29452 64.548651,99.139907 72.74671,94.789544 88.186236,86.670693 103.44907,68.906709 106.62654,50.426803 100.74684,68.20602 82.928023,83.481036 66.690322,89.692794 55.564602,93.936531 35.470066,98.055363 35.470066,98.055363 L 34.656658,97.613624 C 20.977994,90.731641 20.563674,60.102402 45.432033,50.21355 56.320128,45.878419 66.736019,48.260761 78.498451,45.360519 91.056013,42.277488 105.5816,32.54096 111.49175,19.846307 c 6.61694,20.310836 14.58042,52.112968 0.3077,71.768812 z M 39.546247,109.54971 c -0.859105,1.06626 -2.172135,1.69079 -3.543048,1.69079 -2.507247,0 -4.554477,-2.06246 -4.554477,-4.56971 0,-2.50725 2.062462,-4.56971 4.554477,-4.56971 1.038847,0 2.062462,0.35948 2.866731,1.02361 1.949743,1.58112 2.25439,4.47527 0.676317,6.42502 z"
     id="path2"
     style="stroke-width:3.04647" />
</svg>
