<?xml version="1.0" encoding="UTF-8" standalone="no"?>
<svg
   width="512"
   height="512"
   viewBox="0 0 512 512"
   version="1.1"
   id="svg64"
   sodipodi:docname="CAMPUS-VIRTUAL-CURZA.svg"
   xmlns:inkscape="http://www.inkscape.org/namespaces/inkscape"
   xmlns:sodipodi="http://sodipodi.sourceforge.net/DTD/sodipodi-0.dtd"
   xmlns="http://www.w3.org/2000/svg"
   xmlns:svg="http://www.w3.org/2000/svg">
  <defs
     id="defs64" />
  <sodipodi:namedview
     id="namedview64"
     pagecolor="#ffffff"
     bordercolor="#666666"
     borderopacity="1.0"
     inkscape:showpageshadow="2"
     inkscape:pageopacity="0.0"
     inkscape:pagecheckerboard="0"
     inkscape:deskcolor="#d1d1d1"
     inkscape:document-units="pt" />
  <g
     id="g66"
     transform="matrix(0.48051527,0,0,0.48051527,-137.3766,109.01618)">
    <g
       id="g65"
       transform="translate(-18.305085,7.3220339)">
      <g
         id="#ffffffff"
         transform="matrix(1.4015674,0,0,1.4015674,294.24217,-392.99862)">
        <path
           fill="#ffffff"
           opacity="1"
           d="m 362.31,114.17 c 6.71,-1.49 14.69,-1.49 20.01,3.52 9.85,7.66 11.43,23.05 4.4,33.08 -3.62,5.42 -9.78,8.79 -16.16,9.7 -10.37,0.75 -20.48,-7.02 -22.68,-17.14 -0.78,-4.71 -0.85,-9.63 0.24,-14.29 2.24,-6.69 7.36,-12.67 14.19,-14.87 m 4,3 c -6.17,1.45 -9.65,7.85 -10.28,13.74 -0.78,6.99 -0.87,14.76 3.17,20.85 4.19,7.08 15.95,6.32 20.07,-0.48 3.66,-5.35 3.46,-12.09 3.25,-18.29 -0.14,-5.24 -2.1,-10.82 -6.39,-14.07 -2.9,-1.69 -6.51,-2.9 -9.82,-1.75 z"
           id="path1" />
        <path
           fill="#ffffff"
           opacity="1"
           d="m 319.03,118.87 c 5.9,-2.29 12.55,-4.6 18.82,-2.44 -1.66,1.52 -4.36,2.32 -5.03,4.67 0.67,10.57 2.79,20.98 3.81,31.52 0.25,3.63 3.7,5.41 6.36,7.22 -5.6,1.11 -11.3,1.34 -16.93,2.19 1.34,-2.21 3.63,-4.18 3.54,-6.97 0.11,-5.44 -1.53,-10.71 -1.92,-16.11 -0.47,-5.92 -1.86,-11.7 -2.78,-17.54 -1.92,-0.95 -3.89,-1.76 -5.87,-2.54 z"
           id="path2" />
        <path
           fill="#ffffff"
           opacity="1"
           d="m 400.53,115.92 c 4.83,-0.55 11.38,-0.34 14.04,4.46 5.53,10.62 10.22,21.73 16.38,32.01 2.24,-0.74 1.9,-3.44 2.5,-5.29 1.04,-6.38 2.91,-12.62 3.61,-19.05 -0.63,-2.42 -3.11,-3.83 -4.6,-5.72 5.25,0.35 11.31,0.37 15.58,3.82 -1.88,0.5 -3.73,1.1 -5.54,1.77 -0.8,1.74 -1.7,3.45 -2.18,5.3 -2.7,11.64 -5.09,23.35 -7.68,35.01 -1.59,-0.97 -3.27,-2.02 -4.01,-3.82 -3.58,-7.1 -7.02,-14.26 -10.69,-21.3 -2.37,-4.43 -4.07,-9.35 -7.75,-12.93 -1.56,5.99 -2.66,12.08 -4.08,18.09 -0.69,2.84 -1.17,5.76 -1.01,8.69 -0.07,2.46 2.63,3.45 4.04,5.04 -4.56,0.86 -8.96,-1.6 -13.51,-1.76 -0.07,-0.38 -0.21,-1.12 -0.28,-1.49 2.06,-0.85 4.9,-1.36 5.42,-3.95 2.32,-7.75 3.4,-15.81 5.38,-23.66 0.51,-3.18 1.63,-6.6 0.48,-9.76 -1.88,-1.98 -3.98,-3.74 -6.1,-5.46 z"
           id="path3" />
        <path
           fill="#ffffff"
           opacity="1"
           d="m 306.43,121.61 c 0.83,-1.01 1.66,-2.02 2.59,-2.94 2.21,4.56 3.75,9.45 4.17,14.52 -3.65,-1.63 -5.47,-5.7 -9.19,-7.2 -7.46,-3.82 -17.82,1.77 -18.91,10.04 -1.06,7.17 -0.23,14.96 3.72,21.17 3.85,6.07 12.33,8.8 18.83,5.4 4.93,-1.55 6.63,-6.85 10.28,-9.99 0.24,5.33 -3.45,9.78 -7.63,12.6 -5.92,3.71 -13.76,4.9 -20.16,1.69 -13.39,-6.05 -17.95,-25.32 -9.17,-36.95 1.99,-2.69 4.66,-4.84 7.6,-6.41 5.42,-3.17 11.91,-1.85 17.87,-1.93 z"
           id="path4" />
        <path
           fill="#ffffff"
           opacity="1"
           d="m 467.58,143.57 c 3.21,-3.48 6.03,-7.62 10.6,-9.45 0.88,9.63 0.16,19.32 1.23,28.95 0.88,7.39 -1.12,16.03 4.55,21.95 -5.47,-0.31 -10.49,-2.64 -15.52,-4.58 0.15,-2.54 4.43,-2.52 4.01,-5.4 0.01,-3.04 0.63,-6.6 -1.21,-9.22 -4.55,-1.96 -9.21,-3.88 -14.07,-4.89 -2.85,2.1 -5.66,4.68 -7.02,8.01 0.7,1.79 1.72,3.44 2.63,5.13 -4.56,-0.84 -8.98,-2.25 -13,-4.58 3.67,-1.68 7.44,-3.45 10.12,-6.58 5.87,-6.47 11.86,-12.83 17.68,-19.34 m -7.54,14.18 c 3.81,1.91 7.88,3.2 11.97,4.39 0.29,-5.31 -0.02,-10.61 -0.77,-15.87 -4.11,3.45 -7.8,7.34 -11.2,11.48 z"
           id="path5" />
        <path
           fill="#ffffff"
           opacity="1"
           d="m 237.73,140.33 c 2.04,0.28 4.16,0.75 5.62,2.34 8.83,8.5 17.63,17.05 26.75,25.24 2.48,2.43 5.99,2.97 9.24,3.68 -4.02,4.15 -9.66,5.95 -15.03,7.61 0.42,-1.65 0.97,-3.27 1.25,-4.94 -1.69,-3.15 -4.5,-5.76 -7.66,-7.4 -5.21,1.32 -9.78,4.36 -14.66,6.52 -0.18,3.67 0.06,7.37 0.99,10.94 1.79,0.56 3.6,1.07 5.42,1.56 -3.74,2.66 -7.84,5.04 -12.54,5.34 1.26,-2.93 2.92,-5.86 2.78,-9.16 -0.09,-13.94 -1.85,-27.8 -2.16,-41.73 m 5.29,12.62 c -0.43,5.35 -0.43,10.74 0.11,16.09 4.1,-1.19 8.03,-2.94 11.69,-5.15 -3.59,-4.01 -7.59,-7.61 -11.8,-10.94 z"
           id="path6" />
        <path
           fill="#ffffff"
           opacity="1"
           d="m 507.14,149.95 c 2.47,-0.53 4.58,1.11 6.59,2.28 3.84,2.53 7.84,4.8 11.82,7.09 -1.92,2.54 -5.04,1.33 -7.65,1.01 -6.29,6.91 -10.13,15.56 -15.35,23.24 -1.33,2.54 -3.84,5.02 -3.34,8.08 3.15,2.69 6.84,4.72 10.58,6.47 4.35,1.91 8.92,-0.39 12.93,-2.11 -0.04,0.66 -0.11,1.97 -0.15,2.63 -2.83,2.35 -5.68,4.67 -8.57,6.95 -7.38,-4.02 -14.28,-8.85 -21.58,-12.99 -2.46,-1.36 -4.6,-3.18 -6.81,-4.88 2.51,-0.68 5.89,-0.1 7.45,-2.67 4.01,-5.78 7.25,-12.07 10.96,-18.05 2,-3.62 4.65,-7 5.8,-11.02 -0.37,-2.2 -2.14,-3.87 -2.68,-6.03 z"
           id="path7" />
        <path
           fill="#ffffff"
           opacity="1"
           d="m 197.47,165 c 3.14,-3.79 7.27,-6.67 11.59,-8.96 1.88,1.04 -0.14,3.08 -0.31,4.59 -1.29,2.43 0.59,4.77 1.85,6.74 5.65,8.01 11.24,16.07 17.15,23.89 1.16,1.78 3.05,3.52 2.42,5.86 -6.95,-0.55 -13.48,-3.61 -20.31,-5.01 -7.2,-1.5 -14.16,-4.61 -21.59,-4.68 4.35,6.96 9.3,13.54 14.28,20.05 1.7,2.78 5.16,1.85 7.85,2.13 -2.83,3.85 -6.82,6.88 -11.26,8.64 -1.37,-2.4 1.83,-5.1 0.17,-7.53 -3.62,-6.22 -8.3,-11.76 -12.38,-17.67 -2.3,-2.97 -4.19,-6.58 -7.59,-8.43 -2.88,-0.18 -5.72,0.64 -8.6,0.63 -0.64,-1.61 1.02,-2.67 2,-3.59 2.52,-1.98 5.18,-3.92 8.25,-4.92 12.73,3.27 25.17,7.9 38.15,10.15 -3.99,-7.11 -9.02,-13.62 -14.19,-19.89 -1.74,-2.68 -5.39,-0.4 -7.48,-2 z"
           id="path8" />
        <path
           fill="#ffffff"
           opacity="1"
           d="m 558.5,185.21 c 3.02,-1.46 4.97,1.61 6.96,3.34 6.42,6.56 14.62,11.98 18.17,20.8 3.72,12.04 -5.14,25.03 -16.72,28.43 -4.98,1.06 -10.44,0.84 -14.98,-1.65 -5.96,-3.11 -10.46,-8.24 -15.62,-12.43 -2.03,-1.9 -4.74,-3.51 -5.43,-6.39 2.66,-0.17 5.96,0.96 7.97,-1.41 5.47,-5.56 10.37,-11.66 15.67,-17.38 2.22,-2.45 4.7,-4.78 6.18,-7.78 0.21,-2.03 -1.48,-3.74 -2.2,-5.53 m 7.84,12.18 c -2.57,1.7 -4.42,4.24 -6.5,6.46 -4.93,5.4 -9.96,10.72 -14.77,16.23 -0.94,1.19 -2.37,2.68 -1.52,4.31 4.15,7.13 13.71,9.83 21.12,6.39 5.67,-2.85 10.15,-8.08 12.21,-14.08 1.95,-5.94 -0.36,-12.57 -4.87,-16.7 -1.55,-1.37 -3.43,-3.09 -5.67,-2.61 z"
           id="path9" />
        <path
           fill="#ffffff"
           opacity="1"
           d="m 334.55,203.6 c 13.33,-6.88 28.65,-8.99 43.49,-8.08 11.01,1.35 22.31,3.63 31.74,9.81 6.38,4.49 12.09,10.79 13.62,18.67 0.32,3.66 0.3,7.36 0,11.03 -0.84,6.6 -4.97,12.11 -6.54,18.48 5.01,-0.09 10.04,1.1 15.02,0.52 3.09,-1.84 5,-5.1 7.3,-7.79 7.36,-9 14.77,-17.97 21.95,-27.12 1.15,-1.24 2.42,-3.44 4.44,-2.64 4.14,2.44 8.08,5.23 11.93,8.12 2.06,1.13 0.49,3.1 -0.54,4.34 -11.98,14.42 -23.74,29.02 -35.62,43.52 -18.25,0.29 -36.46,1.75 -54.73,1.23 -0.06,-5.94 -1.84,-11.76 -1.25,-17.71 3.5,-3.96 8.23,-6.78 11.34,-11.16 3.35,-4.31 6.17,-10.12 3.9,-15.57 -2.75,-6.27 -9.57,-9.16 -15.73,-11.01 -13.11,-3.27 -27.68,-2.42 -39.68,4.13 -5.22,2.79 -10.2,8.17 -8.82,14.57 1.95,7.43 8.95,11.79 15.06,15.64 3.12,1.68 1.86,5.57 1.8,8.41 -0.7,3.89 -0.43,7.86 -1.02,11.75 -13.07,0.27 -26.14,-0.28 -39.21,-0.24 -3.62,-0.11 -7.27,0.22 -10.85,-0.32 -4.65,-4.17 -8.28,-9.3 -12.38,-13.98 -7.89,-8.77 -15.27,-17.98 -23.2,-26.71 -1.95,-2.22 -4.31,-4.43 -4.48,-7.58 5.47,-2.1 10.75,-4.64 16.18,-6.83 10.08,11.31 18.68,23.86 28.58,35.34 4.96,-0.01 9.93,0.16 14.88,-0.15 -2.44,-4.9 -4.72,-9.95 -6.05,-15.28 -0.35,-3.65 -0.41,-7.35 0.01,-10.99 2.37,-9.91 10.14,-17.65 18.86,-22.4 z"
           id="path10" />
        <path
           fill="#ffffff"
           opacity="1"
           d="m 143.76,212.69 c 4.37,-2.59 9.87,-2.51 14.58,-0.93 7.75,2.92 14.44,9.39 16.46,17.57 1.64,4.86 0.13,10.05 -2.09,14.46 -2.84,5.53 -7.6,9.68 -11.41,14.5 -1.77,2.31 -3.97,4.23 -6.09,6.19 -0.52,-2.58 0.29,-5.84 -1.99,-7.74 -6.76,-6.25 -13.81,-12.19 -20.81,-18.16 -1.46,-1.15 -2.9,-2.46 -4.69,-3.06 -2.07,0.19 -4.04,0.92 -6.08,1.24 0.13,-2.87 2.51,-4.79 4.19,-6.87 5.6,-6.07 10.57,-13.1 17.93,-17.2 m -10.74,16.15 c 7.24,7.5 15.51,13.88 23.13,20.97 1.58,1.1 3.44,3.52 5.51,2.07 6.3,-4.12 9.44,-12.82 6.37,-19.86 -3.22,-7.2 -10.27,-12.78 -18.12,-13.85 -7.32,-0.66 -13.59,4.53 -16.89,10.67 z"
           id="path11" />
        <path
           fill="#ffffff"
           opacity="1"
           d="m 600.44,224.67 c 1.59,1.72 3.32,3.32 4.67,5.25 5.01,7.19 10.47,14.05 15.5,21.23 -2.3,2.62 -4.91,5.04 -8.34,6.02 0.76,-3.08 3.21,-6.48 1.12,-9.53 -2.22,-3.67 -4.76,-7.2 -7.75,-10.27 -5.18,1.45 -9.24,5.67 -13.08,9.29 2.1,2.8 4.02,5.78 6.46,8.31 2.17,1.66 5.12,1.44 7.71,1.84 -3.36,3.31 -7.02,6.38 -11.39,8.26 0.47,-2.21 1.35,-4.41 1.23,-6.71 -1.34,-4.02 -4.53,-7.02 -7.37,-10.01 -4.19,3.43 -9.09,6.11 -12.66,10.24 -0.12,0.34 -0.36,1.02 -0.48,1.36 1.7,3.7 4.35,6.88 6.97,9.97 2.84,3.81 8.04,2.11 12.08,2.85 0.15,0.24 0.46,0.72 0.62,0.97 -3.27,2.46 -7.33,3.33 -11.26,4.08 -5.61,-7.5 -11.24,-14.98 -16.89,-22.44 -1.25,-1.5 -1.88,-3.37 -2.3,-5.24 1.87,0.74 3.63,1.92 5.68,2.15 3.51,-1.27 6.31,-3.88 9.29,-6.05 5.81,-4.53 11.91,-8.7 17.57,-13.42 2.64,-1.86 2.07,-5.37 2.62,-8.15 z"
           id="path12" />
        <path
           fill="#ffffff"
           opacity="1"
           d="m 230.66,244.66 c 3.3,-3.2 6.19,-7.18 10.31,-9.28 1.7,0.73 2.75,2.39 4.05,3.65 14.05,16.23 28.37,32.22 42.49,48.38 4.51,0.04 8.98,0.62 13.48,0.93 14.68,0.19 29.38,0.34 44.07,0.48 2.06,0.19 4.12,0.5 6.15,0.96 2.37,5.44 0.45,11.51 0.52,17.21 -0.03,32.37 -0.32,64.75 -0.48,97.12 -3.69,0.87 -7.5,0.56 -11.25,0.59 -33.88,-0.02 -67.76,0.01 -101.64,-0.01 -1.73,-9.2 0.45,-18.47 -0.52,-27.69 0.7,-7.98 0.28,-16 0.4,-24 -0.08,-3.81 0.44,-7.79 -0.96,-11.43 -2.21,-2.4 -5.05,-4.11 -7.56,-6.17 -14.84,-11.86 -29.77,-23.62 -44.68,-35.38 -1.34,-1.15 -3.81,-2.84 -1.83,-4.63 3.58,-4.59 7.74,-8.7 11.32,-13.3 1.89,0.25 3.63,1.04 4.98,2.4 13.16,11.54 26.47,22.92 39.77,34.3 5.01,4.59 10.72,8.48 15.26,13.57 0.51,6.53 -0.18,13.12 0.62,19.64 0.36,10.48 0.3,20.98 0.54,31.47 24.9,0.4 49.84,0.25 74.74,0.07 0.07,-23.7 0.13,-47.4 -0.02,-71.1 -15.82,-0.32 -31.65,0.11 -47.47,-0.15 -3.22,-0.17 -5.08,-3.08 -6.98,-5.27 -15.05,-18.91 -30.17,-37.77 -45.45,-56.48 -1.57,-1.62 -1.79,-4.46 0.14,-5.88 z"
           id="path14" />
        <path
           fill="#ffffff"
           opacity="1"
           d="m 493.57,237.51 c 0.98,-1.49 2.84,-1.34 3.81,0.05 3.53,3.69 7.94,6.81 10.32,11.43 -15.87,20.29 -32.44,40.08 -48.33,60.37 -1.38,1.71 -2.86,3.81 -5.3,3.86 -16.17,0.27 -32.35,-0.19 -48.51,0.19 0.01,23.22 -0.1,46.45 0.04,69.66 0.34,0.32 1.02,0.96 1.36,1.28 23.01,0.25 46.04,-0.06 69.06,0.14 1.42,-0.2 3.92,0.6 4.31,-1.43 0.2,-17.6 -0.02,-35.2 0.1,-52.8 15.82,-13.16 31.83,-26.1 47.69,-39.23 3.73,-2.63 6.63,-6.43 10.87,-8.32 5.27,2.99 9.36,7.62 14.45,10.91 0.04,0.91 0.09,1.82 0.14,2.73 -18.54,14.56 -36.68,29.62 -54.98,44.48 -0.18,21.79 0.17,43.59 -0.19,65.38 -34.79,0.55 -69.61,0.04 -104.41,0.26 -2.86,0.04 -5.74,0.05 -8.53,-0.67 -0.33,-9.27 0.25,-18.57 -0.78,-27.79 0.02,-29.14 -0.33,-58.27 -0.06,-87.4 9.28,-0.25 18.58,0.09 27.82,-0.97 12.08,-0.04 24.1,-1.23 36.19,-1.15 15.19,-16.8 30.02,-33.93 44.93,-50.98 z"
           id="path15" />
        <path
           fill="#ffffff"
           opacity="1"
           d="m 627.19,262.77 c 3.55,4.08 5.88,8.98 8.46,13.69 0.98,1.46 0.91,3.21 0.83,4.89 -1.91,-1.4 -3.65,-3.02 -5.7,-4.22 -2.09,-0.11 -3.97,1 -5.81,1.82 -6.61,3.32 -13.09,6.92 -19.71,10.22 -2.44,1.32 -5.17,2.46 -6.79,4.83 1.53,4.56 3.86,8.9 6.86,12.66 2.6,3.3 7.34,2.34 11.02,2.98 -1.82,3.68 -6.21,3.86 -9.8,3.98 -3.29,0.58 -4.38,-3.25 -5.73,-5.46 -3.86,-8.35 -9.2,-16.02 -11.98,-24.85 1.7,1.05 3.35,2.22 5.21,3.02 4.26,-0.96 7.89,-3.57 11.77,-5.46 6.22,-3.46 12.76,-6.37 18.72,-10.26 2.75,-1.58 1.9,-5.23 2.65,-7.84 z"
           id="path16" />
        <path
           fill="#ffffff"
           opacity="1"
           d="m 101.36,263.51 c 7.68,-0.28 15.04,2.24 22.65,2.79 9.27,1.32 18.93,4.09 28.13,0.91 -1.9,5.19 -4.96,9.81 -8.09,14.33 -1.09,-1.78 -1.18,-4.56 -3.4,-5.35 -2.69,-1.18 -5.68,-1.7 -8.62,-1.49 -3.31,3.96 -6.11,8.56 -7.86,13.43 0.24,3.59 3.17,6.68 6.07,8.59 1.83,-0.25 3.58,-0.85 5.37,-1.3 -1.48,4.06 -3.34,7.99 -5.92,11.47 -2.15,-2.67 -2.21,-6.46 -4.44,-9.13 -6.05,-8.26 -12.2,-16.45 -18.52,-24.51 -2.22,-2.98 -5.61,-5.65 -5.37,-9.74 m 10.95,9.28 c 2.49,4.06 4.63,9.05 8.68,11.64 3.22,-2.11 4.35,-6.36 6.2,-9.62 -4.67,-2.12 -9.82,-2.53 -14.88,-2.02 z"
           id="path17" />
        <path
           fill="#ffffff"
           opacity="1"
           d="m 90.6,301.47 c 7.21,-2.32 15.57,-1.31 21.79,3.13 5.92,3.7 9.61,10.46 9.85,17.4 -0.52,7.91 -4.13,15.11 -6.78,22.44 -0.85,2.49 -2.35,4.67 -3.8,6.84 -0.39,-1.89 -0.27,-3.94 -1.2,-5.67 -1.26,-1.29 -3.02,-1.9 -4.64,-2.62 -7.63,-3.01 -15.3,-5.92 -22.95,-8.87 -2.11,-0.71 -4.25,-1.66 -6.51,-1.59 -1.73,0.94 -3.19,2.29 -4.76,3.46 -0.32,-5.9 3.11,-10.97 4.94,-16.35 2.7,-7.21 6.35,-15.24 14.06,-18.17 m -0.26,7.91 c -5.84,2.48 -10.8,8.69 -10.1,15.29 1.52,1.34 3.43,2.1 5.29,2.86 7.19,2.85 14.47,5.48 21.64,8.41 2.13,0.75 4.35,1.83 6.66,1.34 3.27,-4.5 5.19,-10.67 2.93,-16.03 -3.58,-10.31 -16.47,-14.9 -26.42,-11.87 z"
           id="path18" />
        <path
           fill="#ffffff"
           opacity="1"
           d="m 561.82,313.74 c 1.08,-0.88 2.94,-2.27 4.07,-0.71 3.13,4.19 6.13,8.5 8.76,13.03 -1.42,2.07 -3.38,3.68 -5.32,5.25 -9.81,7.85 -19.51,15.84 -29.24,23.79 -1.27,1.13 -2.8,2.18 -3.36,3.87 -0.33,5.13 0.31,10.25 0.81,15.36 5.74,-2.39 11.17,-5.87 17.43,-6.72 6.78,-0.63 14.24,-0.92 20.09,3.15 11.8,7.71 16.83,21.91 19.08,35.2 0.78,8.66 0.81,17.43 -0.02,26.1 -1.92,11.32 -5.85,22.69 -13.58,31.41 -5.86,6.55 -14.68,10.87 -23.58,10.09 -6.58,-0.47 -12.52,-3.66 -18.41,-6.36 -1.09,4.17 -1.1,8.53 -0.7,12.81 0.3,1.77 1.38,3.22 2.83,4.24 9.65,7.37 19,15.1 28.67,22.45 1.51,1.2 3.07,2.46 4.04,4.19 -2.25,5.38 -4.34,10.88 -7.21,15.98 -1.56,-0.19 -2.83,-1.05 -3.96,-2.04 -12.92,-11.1 -25.75,-22.32 -38.76,-33.31 -1.63,-1.48 -3.28,-2.94 -4.69,-4.63 -0.74,-9.27 0.19,-18.64 -1.11,-27.87 -0.18,-7.36 -0.58,-14.73 -0.26,-22.09 6.26,-1.84 13.06,-1.79 19.47,-1.2 3.97,5.58 7.23,12.25 13.64,15.46 3.65,2.22 8.57,1.94 11.91,-0.76 6.65,-5.11 9.27,-13.61 10.97,-21.47 0.34,-8.55 1.31,-17.52 -1.89,-25.68 -1.86,-5.66 -5.48,-11.6 -11.44,-13.49 -6.92,-1.61 -13.1,2.99 -17.91,7.37 -2.91,2.58 -4.69,6.58 -8.14,8.39 -5.73,-0.05 -11.38,-1.33 -17.13,-1.11 -0.54,-9.13 -0.33,-18.32 0.38,-27.43 0.11,-7.35 0.24,-14.7 0.37,-22.05 0.04,-2.71 0.41,-5.82 2.86,-7.45 13.84,-11.19 27.55,-22.52 41.33,-33.77 z"
           id="path19" />
        <path
           fill="#ffffff"
           opacity="1"
           d="m 165.48,324.46 c 2.65,-4.31 5.86,-8.24 8.57,-12.5 2.19,1.05 4.25,2.35 6.1,3.93 12.73,10.63 25.66,21.01 38.46,31.54 1.27,1.3 3.08,2.62 2.88,4.67 0.25,7.63 -0.06,15.28 0.74,22.89 0.02,9.81 0.37,19.63 0.06,29.44 -4.11,0.15 -8.25,0.1 -12.31,0.85 -2.36,0.14 -5.43,1.18 -6.97,-1.27 -4.26,-5.33 -8.98,-10.66 -15.37,-13.44 -4.26,-1.86 -9.8,-1.57 -13.21,1.85 -5.45,4.72 -7.38,12.03 -8.83,18.81 -0.41,5.49 -0.4,11.04 0,16.54 1.53,7.36 3.74,15.02 8.95,20.68 3.27,3.54 8.84,5.59 13.34,3.14 6.96,-3.18 10.56,-10.33 14.81,-16.27 6.35,0.18 12.75,-0.11 19,1.24 0.25,11.81 -0.08,23.63 -0.36,35.44 -0.68,5.13 -0.77,10.29 -0.85,15.45 -14.92,12.75 -29.78,25.58 -44.61,38.43 -0.81,0.99 -2.07,0.87 -3.18,0.63 -1.76,-2.56 -2.53,-5.63 -3.87,-8.41 -0.99,-2.63 -2.7,-5.18 -2.5,-8.1 0.65,-1.21 1.83,-1.99 2.86,-2.85 9.33,-6.97 18.29,-14.4 27.53,-21.49 1.62,-1.29 3.37,-2.52 4.53,-4.26 0.42,-4.76 0.13,-9.55 0.07,-14.31 -6.31,2.42 -12.37,6.1 -19.27,6.48 -8.65,0.73 -17.07,-3.52 -23,-9.59 -8.65,-9.58 -12.77,-22.37 -14.38,-34.96 -0.19,-9.82 -1.07,-19.92 1.8,-29.45 2.52,-11.27 7.94,-22.77 18.04,-29.07 6.05,-3.98 13.65,-3.5 20.53,-2.8 5.83,1.08 11.07,4.08 16.36,6.62 1.08,-5.32 1.39,-10.85 0.85,-16.23 -6.12,-6.06 -13.29,-10.93 -19.78,-16.57 -5.32,-4.72 -11.16,-8.81 -16.48,-13.53 -1.05,-0.81 -0.81,-2.42 -0.51,-3.53 z"
           id="path20" />
        <path
           fill="#ffffff"
           opacity="1"
           d="m 617.99,339 c 4.5,-7.67 13.43,-11.69 22.02,-12.28 7.79,0.58 15.91,4.47 19.77,11.55 1.4,2.46 2.36,5.16 2.91,7.94 0.61,3.15 -0.38,6.3 -0.23,9.46 0.75,1.25 1.7,2.38 2.51,3.61 -3.96,3.24 -9.32,3.94 -14.24,4.6 2.68,-4.32 8.38,-7.17 8.17,-12.86 0.48,-4.56 -0.89,-9.46 -4.58,-12.39 -4.5,-3.8 -10.84,-3.36 -16.31,-2.77 -5,0.93 -10.16,2.67 -13.79,6.38 -4.6,4.49 -4.78,12.05 -2.1,17.58 2.12,4.59 7.54,6 10.22,10.12 -8.16,-1.19 -15.19,-7.7 -16.51,-15.91 -0.55,-5.04 -0.83,-10.65 2.16,-15.03 z"
           id="path21" />
        <path
           fill="#ffffff"
           opacity="1"
           d="m 65.92,363.04 c 1.16,-6.2 1.57,-12.92 4.97,-18.4 0.72,1.94 1.25,3.94 1.89,5.92 8.13,3.13 16.81,4.34 25.2,6.58 3.3,0.71 6.56,1.72 9.93,2.02 1.95,-0.96 3.3,-2.71 4.76,-4.25 0.5,5.99 -1.72,11.6 -3.11,17.28 -1.09,-1.8 -1.77,-3.97 -3.37,-5.39 -2.65,-1.28 -5.55,-1.9 -8.4,-2.57 -8,-1.7 -15.89,-3.93 -23.95,-5.38 -3.39,-1.02 -5.56,2.43 -7.92,4.19 z"
           id="path22" />
        <path
           fill="#ffffff"
           opacity="1"
           d="m 641.37,374.44 c 10.62,-3 23.26,2.25 27.5,12.68 3.17,7.11 2.11,15.84 -2.91,21.84 -8.96,11.5 -29.02,11.76 -37.9,0.02 -4.5,-5.38 -5.08,-13.01 -3.54,-19.6 2.42,-7.54 9.22,-13.18 16.85,-14.94 m 1.06,8.23 c -5.61,1.27 -11.82,3.71 -14.47,9.22 -3.11,6.07 0.92,13.96 7.03,16.27 6.96,2.5 14.62,1.42 21.58,-0.52 5,-1.74 10.49,-5.74 10.32,-11.6 0.42,-3.78 -0.79,-7.73 -3.88,-10.08 -5.63,-4.97 -13.7,-3.92 -20.58,-3.29 z"
           id="path23" />
        <path
           fill="#ffffff"
           opacity="1"
           d="m 63.98,375.66 c 4.03,0.05 8.2,-0.09 12.09,1.15 0.33,0.78 0.64,1.56 0.93,2.36 -4.38,0.74 -9.45,2.33 -11.03,7 -1.02,3.37 -1.42,8.9 2.64,10.36 1.98,0.99 4.36,0.46 6,-0.93 6.29,-5.41 9.21,-14.3 16.87,-18.17 6.65,-3.39 14.58,2.11 16.3,8.79 2.77,7.21 -4.11,13.4 -3.08,20.61 -4.34,-0.61 -9.95,1.32 -13.15,-2.45 2.77,-1.18 5.8,-1.84 8.34,-3.52 4.04,-3.08 5.46,-8.83 3.9,-13.58 -1.61,-3.66 -6.74,-4.74 -9.83,-2.31 -6.46,5.2 -9.25,14.3 -17.06,17.89 -7.3,3.13 -15.98,-3.05 -16.07,-10.81 -1.08,-5.92 4.84,-10.5 3.15,-16.39 z"
           id="path24" />
        <path
           fill="#ffffff"
           opacity="1"
           d="m 97.62,419.66 c 3.86,-1.45 3.92,-6.12 6.31,-8.93 0.86,3.44 2.8,8.12 -0.32,10.93 -5.25,4.79 -11.51,8.35 -16.67,13.25 -1.36,0.94 -1.49,2.63 -1.05,4.11 4.65,0.75 9.42,0.51 14.09,0.05 3.09,-0.07 3.98,-3.55 5.58,-5.57 1.29,6.12 1.05,12.42 0.39,18.61 -1.47,-2.2 -2.86,-5.36 -5.96,-5.36 -8.67,-0.48 -17.34,0.56 -26.01,0.54 -2.67,0.11 -5.43,-0.14 -8.02,0.64 -1.69,1.38 -2.02,4.3 -4.09,5.06 -0.96,-3.58 -0.56,-7.33 -0.79,-10.98 -0.1,-5.36 -0.9,-10.93 0.84,-16.11 1.18,-2.45 3.02,-5.54 6.12,-5.48 3.85,-0.16 7.7,0.04 11.55,0.09 1.7,2.43 3.14,5.12 5.4,7.11 4.25,-2.59 7.89,-6.16 12.63,-7.96 m -32.1,11.9 c -1.6,2.82 -0.66,5.99 0.23,8.85 5.28,-0.22 10.67,0.38 15.84,-0.88 1.58,-3.25 0.4,-7.52 -2.06,-10.05 -3.61,-4.38 -12.05,-3.49 -14.01,2.08 z"
           id="path25" />
        <path
           fill="#ffffff"
           opacity="1"
           d="m 626.55,436.22 c -0.36,-4.82 -0.65,-9.72 0.67,-14.42 1.54,2.04 2.63,4.95 5.41,5.56 5.59,1.7 11.53,1.28 17.27,2.09 5.88,0.83 11.84,1.7 17.78,0.88 0.96,-1.64 2.04,-3.21 3.19,-4.72 0.53,4.12 1.44,8.8 -0.69,12.61 -2.06,1.55 -4.58,2.27 -6.97,3.08 -8.99,2.85 -17.96,5.78 -26.82,9 3.25,3.78 7.94,5.69 12.1,8.25 5.01,3.02 10.13,5.87 15.21,8.79 1.39,0.93 3.23,1.87 3.47,3.74 0.3,3.94 -1.1,7.76 -2.44,11.4 -1.1,-1.91 -1.93,-3.95 -2.59,-6.04 -7.43,-0.81 -14.75,-2.48 -22.24,-2.77 -4,-0.11 -7.93,-1.02 -11.92,-1.23 -2.36,-0.21 -3.85,2.91 -6.16,2.48 -0.11,-5.16 0.48,-10.31 0.85,-15.44 2.22,2.17 3.73,6 7.34,5.79 8.15,0.42 16.17,3.14 24.38,1.81 -9.45,-7.37 -20.78,-11.92 -30.33,-19.16 5.73,-4.14 13.07,-4.71 19.47,-7.44 4.49,-2.03 10.18,-2.08 13.81,-5.61 -5.08,-2.69 -11.23,-1.34 -16.72,-2.58 -3.97,-0.22 -9.25,-2.58 -12.16,1.25 -0.72,0.83 -1.3,1.76 -1.91,2.68 z"
           id="path26" />
        <path
           fill="#ffffff"
           opacity="1"
           d="m 388.58,434.85 c 31.79,-0.54 63.62,-0.07 95.42,-0.23 5.87,0.14 11.77,-0.41 17.6,0.44 0.09,20.66 -0.01,41.33 0.04,61.99 -0.15,3.92 3.8,5.8 6.36,7.99 16.54,13.5 33.31,26.74 49.64,40.5 -4.45,4.32 -9.76,7.61 -14.22,11.93 -0.96,-0.01 -1.91,-0.02 -2.86,-0.02 -18.29,-15.4 -36.9,-30.45 -55.44,-45.54 -1.09,-0.96 -1.56,-2.42 -1.49,-3.82 -0.15,-17.31 0.21,-34.63 -0.08,-51.93 -4.15,-0.71 -8.37,-0.48 -12.55,-0.48 -20.53,0.02 -41.07,-0.02 -61.6,0 -0.43,14.44 -0.04,28.88 -0.16,43.32 0.12,9.36 -0.27,18.74 0.15,28.09 1.4,0.76 3.07,0.39 4.6,0.51 14.35,-0.07 28.7,-0.13 43.05,-0.06 2.59,-0.3 3.93,2.34 5.51,3.93 13.81,17.21 27.62,34.43 41.49,51.59 2.14,3.06 5.2,5.53 6.75,8.95 -2.17,3.62 -5.58,6.29 -8.43,9.36 -1.25,1.47 -2.95,2.34 -4.86,2.6 -10.37,-11.76 -20.69,-23.58 -31.05,-35.35 -5.2,-5.54 -9.85,-11.57 -15.32,-16.85 -10.71,-0.32 -21.44,-0.12 -32.12,-0.99 -9.58,-0.14 -19.16,-0.12 -28.73,-0.43 -2.26,0.3 -3.09,-2.48 -2.86,-4.27 0.34,-16.02 -0.39,-32.1 0.93,-48.07 0.05,-21.06 0.12,-42.11 0.23,-63.16 z"
           id="path27" />
        <path
           fill="#ffffff"
           opacity="1"
           d="m 238.38,436.77 c 32.2,-0.23 64.42,-0.02 96.63,-0.1 5.19,0.04 10.39,-0.21 15.57,0.27 0.06,5.36 0.03,10.72 0.73,16.05 0.31,29 0.34,58.01 0.46,87.02 0.06,4.13 0.14,8.27 -0.34,12.39 -20.98,0.08 -41.92,1.22 -62.89,1.36 -4.48,3.83 -7.77,8.77 -11.97,12.88 -10.62,12.35 -21.6,24.38 -32.12,36.8 -1.18,1.47 -2.88,3.08 -4.9,2.08 -3.9,-3.34 -7.2,-7.32 -11.04,-10.73 2.17,-4.06 5.15,-7.56 8.14,-11.04 12.56,-16.1 25.77,-31.69 38.29,-47.82 2.25,-2.49 4.09,-6.64 7.99,-6.4 15.8,-0.09 31.61,0.18 47.4,-0.04 0.36,-22.84 0.08,-45.69 0.17,-68.53 0.54,-2.13 -1.52,-3.59 -3.48,-3.27 -21.68,-0.01 -43.36,0.03 -65.04,-0.02 -2.14,-0.04 -4.22,0.45 -6.3,0.87 -0.2,10.15 -0.2,20.31 -0.49,30.46 -0.75,6.86 -0.3,13.77 -0.58,20.66 -15.68,13.69 -31.63,27.09 -47.35,40.73 -3.52,2.87 -6.73,6.14 -10.47,8.75 -1.37,1.34 -2.77,-0.43 -3.66,-1.38 -3.8,-4.2 -7.48,-8.5 -11.04,-12.91 1.88,-2.07 3.92,-3.99 6.13,-5.7 16.5,-12.78 32.63,-26.03 49.16,-38.77 1.76,-6.72 -0.08,-13.59 0.82,-20.38 -0.76,-8.98 -0.33,-18 -0.44,-27 0.09,-5.41 -0.44,-10.88 0.62,-16.23 z"
           id="path28" />
        <path
           fill="#ffffff"
           opacity="1"
           d="m 127.35,475.07 c 0.44,-6.49 -0.79,-13.24 1.92,-19.4 2.95,24.85 9.55,49.41 20.02,72.17 -0.41,0.52 -1.23,1.56 -1.64,2.09 -3.49,-3.04 -6.75,-6.39 -9.06,-10.43 -2.8,-4.79 -6.13,-9.25 -8.99,-14.01 -1.79,-2.81 -2.25,-6.17 -2.16,-9.44 0.14,-7 -0.48,-13.99 -0.09,-20.98 z"
           id="path29" />
        <path
           fill="#ffffff"
           opacity="1"
           d="m 95.59,458 c 3.52,-0.66 7.23,-1.31 10.73,-0.22 1.68,0.78 1.86,2.84 2.33,4.41 1.63,7.39 3.27,14.78 5.21,22.1 0.69,2.28 0.59,4.68 0.5,7.03 -1.91,-1.46 -3.37,-4.39 -6.15,-4.03 -5.44,0.42 -10.66,2.08 -15.97,3.15 -5.29,1.32 -10.69,2.21 -15.88,3.89 -2.87,0.52 -2.75,3.97 -3.78,6.09 -1.37,-1.78 -2.76,-3.67 -3.04,-5.97 -1.62,-8.85 -4.08,-17.52 -5.7,-26.37 3.27,-1.52 6.73,-2.79 10.4,-2.77 -1.78,2.76 -5.37,4.94 -4.89,8.62 0.51,4.56 0.71,9.65 3.59,13.45 4.98,-0.69 9.86,-1.99 14.72,-3.27 -0.65,-3.52 -1.14,-7.1 -2.25,-10.52 -0.89,-3.08 -4.43,-3.77 -6.85,-5.21 5.03,-0.92 10.06,-3.91 15.28,-2.24 -1.85,1.46 -4.54,2.5 -5.23,4.96 0.19,4.16 1.55,8.19 2.39,12.26 5.42,-1.24 11.08,-1.78 16.18,-4.13 1.8,-0.54 0.85,-2.84 0.84,-4.14 -0.84,-3.94 -1.53,-8.08 -3.49,-11.64 -2.42,-2.54 -5.91,-3.76 -8.94,-5.45 z"
           id="path30" />
        <path
           fill="#ffffff"
           opacity="1"
           d="m 615.47,491.4 c 0.68,-4.25 1.11,-8.99 4.08,-12.36 1.92,3.41 3.84,6.95 7.02,9.38 9.82,8.42 19.91,16.53 29.72,24.97 -3.05,3.51 -8.04,2.92 -12.23,3.14 -8.44,-0.3 -16.63,2.31 -25.07,2.08 -4.81,-0.25 -9.09,2.13 -13.1,4.47 0.54,-5.86 2.19,-11.63 5.21,-16.71 0.68,1.81 1.41,3.62 2.26,5.38 3.29,0 6.7,0.39 9.91,-0.58 3.33,-4.69 4.35,-10.58 5.37,-16.13 -2.51,-1.99 -4.77,-4.52 -7.82,-5.67 -1.87,0.42 -3.58,1.33 -5.35,2.03 m 16.08,7.34 c -1.4,3.73 -2.28,7.62 -3.12,11.52 4.93,-0.17 10.07,0.3 14.81,-1.35 -2.6,-4.52 -6.97,-8.03 -11.69,-10.17 z"
           id="path31" />
        <path
           fill="#ffffff"
           opacity="1"
           d="m 73.8,510.06 c 3.93,1.48 7.87,3.31 12.15,3.34 11.03,0.09 22.07,0.17 33.1,0.05 2.02,0.12 4.54,-0.38 5.87,1.58 -2.04,3.19 -5.15,5.45 -7.78,8.11 -7.22,7.11 -14.43,14.25 -21.41,21.6 -2.2,2.24 -3,5.33 -4.11,8.18 -0.9,-0.26 -1.5,-0.83 -1.79,-1.73 -2.18,-4.48 -3.74,-9.23 -4.99,-14.04 2.49,0.41 5.47,2.62 7.71,0.46 3.53,-2.8 6.5,-6.2 9.68,-9.38 3.33,-3.58 7.37,-6.67 9.54,-11.18 -7.57,-0.62 -15.18,-0.25 -22.77,-0.43 -2.18,0.13 -4.55,-0.24 -6.56,0.77 -1.55,1.5 -2.46,3.51 -3.63,5.3 -2.21,-3.99 -3.96,-8.19 -5.01,-12.63 z"
           id="path32" />
        <path
           fill="#ffffff"
           opacity="1"
           d="m 595.64,540.82 c 1.58,-5.58 4.55,-10.63 8.2,-15.1 0.27,1.91 0.55,3.83 0.88,5.74 8.03,5.49 16.87,9.65 25.24,14.59 2.71,1.34 5.94,3.85 8.93,1.76 1.2,-0.19 2.95,-2.32 3.76,-0.66 -2.42,5.51 -5.75,10.59 -9.11,15.56 -0.5,-3.03 -0.66,-6.98 -3.8,-8.51 -3.45,-1.88 -6.74,-4.58 -10.64,-5.27 -3.21,2.71 -4.54,6.95 -6.79,10.4 -0.78,1.87 -2.78,3.92 -1.74,6.04 3.3,2.62 7.16,4.48 10.99,6.22 2.6,1.59 5.14,-0.74 7.6,-1.5 -1.83,5.56 -4.92,10.55 -8.33,15.26 -0.63,-2.51 -0.33,-5.83 -2.94,-7.26 -5.75,-3.72 -11.91,-6.75 -17.85,-10.16 -3.98,-2.11 -7.74,-4.71 -12.05,-6.13 -2.15,0.72 -4.07,1.99 -6.02,3.12 2.19,-5.96 5.28,-11.57 9.16,-16.59 0.24,2.35 0.51,4.79 1.66,6.91 3.96,3.35 8.86,5.32 13.33,7.91 3.38,-5.35 7.47,-10.67 8.82,-16.95 -3.81,-2.78 -8.02,-5.03 -12.33,-6.93 -2.4,-1.13 -4.7,0.94 -6.97,1.55 z"
           id="path33" />
        <path
           fill="#ffffff"
           opacity="1"
           d="m 133.61,538.52 c 5.22,3.6 7.54,9.93 9.87,15.57 -2.43,-0.67 -5.03,-2.33 -7.6,-1.25 -3.86,1.61 -7.35,3.96 -11.01,5.99 -6.15,3.62 -12.56,6.84 -18.34,11.05 -0.1,2.14 -0.15,4.29 -0.2,6.45 -4.92,-4.31 -7.45,-10.52 -10.2,-16.28 2.94,1.19 6.3,3.74 9.43,1.64 7.78,-4.12 15.29,-8.76 22.96,-13.1 2.08,-1.32 4.49,-2.48 5.78,-4.68 -0.11,-1.82 -0.46,-3.6 -0.69,-5.39 z"
           id="path34" />
        <path
           fill="#ffffff"
           opacity="1"
           d="m 142.46,565.47 c 2.1,-1.27 4.02,-3.72 6.62,-3.6 0.96,3.59 -0.64,7.13 -1.55,10.56 -2.97,10.57 -5.95,21.16 -8.39,31.87 3.13,-1.42 6.05,-3.25 8.73,-5.4 4.48,-3.55 9.56,-6.37 13.62,-10.43 2.25,-1.88 0.34,-4.79 0.1,-7.1 4.76,2.66 7.22,7.67 9.61,12.33 -2.03,-0.7 -4.03,-1.51 -6.14,-1.94 -2.35,0.9 -4.36,2.47 -6.4,3.91 -6.52,4.81 -13.22,9.39 -19.66,14.3 -3.49,2.41 -1.69,7.27 -2.06,10.8 -3.71,-2.99 -8.01,-7.29 -6.5,-12.53 2.84,-11.67 7.28,-22.99 8.91,-34.93 -7.64,3.94 -14.33,9.5 -20.99,14.88 -0.09,2.14 -0.19,4.28 -0.32,6.43 -3.77,-3.09 -6.78,-7.03 -8.28,-11.7 1.76,0.67 3.55,1.33 5.37,1.87 9.57,-5.75 18.36,-12.69 27.33,-19.32 z"
           id="path35" />
        <path
           fill="#ffffff"
           opacity="1"
           d="m 386.59,565.35 c 11.8,-0.09 23.61,0.04 35.41,0.38 6.21,0.87 12.49,0.66 18.74,0.89 12.5,14.43 24.14,29.59 36.58,44.07 1.19,1.23 1.32,2.98 1.57,4.59 -3.86,1.96 -7.51,4.28 -11.27,6.42 -1.42,0.95 -3.16,0.83 -4.78,0.93 -8.27,-11.16 -17.5,-21.56 -26.08,-32.47 -1.31,-1.64 -2.65,-3.28 -4.27,-4.61 -5.34,-0.37 -10.72,-0.07 -16.06,0.09 -0.12,2.18 1.47,3.93 2.27,5.86 4.09,7.88 6.4,17.19 3.87,25.92 -3.22,10.37 -12.66,17.34 -22.43,21.06 -6.16,2.22 -12.54,4.33 -19.16,4.25 -8.98,0.13 -18,0.38 -26.95,-0.4 -10.69,-2.27 -21.45,-6.21 -29.53,-13.82 -4.22,-3.93 -7.18,-9.1 -8.83,-14.6 -0.51,-4.25 -0.47,-8.58 0.02,-12.83 1.31,-5.02 3.87,-9.59 5.53,-14.49 -4.7,0.09 -9.44,-0.45 -14.11,0.19 -2.08,1.65 -3.65,3.83 -5.23,5.95 -5.23,7.14 -10.56,14.2 -15.87,21.29 -2.45,3.24 -4.56,6.79 -7.49,9.64 -2.2,0.28 -4.11,-1.09 -6.06,-1.84 -4.46,-2.18 -9.18,-3.81 -13.42,-6.41 5.42,-7.56 11.7,-14.45 17.46,-21.75 7.27,-8.73 14.31,-17.65 21.65,-26.33 4.28,-0.27 8.56,-0.63 12.85,-0.61 13.77,-0.1 27.54,-0.76 41.31,-0.42 0.09,6.25 0.56,12.51 0.31,18.75 -4.12,4.25 -10.52,6.35 -13.82,11.65 -3.91,4.65 -3.65,12.38 1.15,16.34 8.24,7.62 20.14,9.9 31.05,9.53 7.97,0.23 16.1,-1.49 22.98,-5.61 3.76,-2.31 7.31,-6.24 6.85,-10.95 0.54,-5.36 -2.89,-9.9 -6.11,-13.79 -2.95,-3.48 -6.93,-5.9 -9.9,-9.36 -0.48,-5.85 1.11,-11.7 1.77,-17.51 z"
           id="path36" />
        <path
           fill="#ffffff"
           opacity="1"
           d="m 569.01,579.07 c 4.68,-3.67 11.71,-3.95 16.65,-0.63 7.39,5.15 13.55,11.9 20.98,16.97 2.49,2.04 5.25,-0.29 7.79,-0.97 -2.71,5.83 -7.22,10.64 -12.03,14.82 -0.03,-2.68 1.78,-5.94 -0.64,-8.04 -3.76,-3.93 -8.29,-7.03 -12.28,-10.72 -4.08,-3.38 -8.21,-7.37 -13.6,-8.4 -6.25,0.3 -10.81,6.22 -12.06,11.96 -0.93,4.65 2.9,8.27 5.92,11.2 5.35,4.66 10.65,9.41 16.35,13.65 2.46,2.19 5.55,0.14 8.18,-0.54 -2.13,4.87 -5.67,8.99 -10.01,12.03 0.07,-2.43 1.87,-5.36 -0.23,-7.38 -5.42,-5.98 -12.16,-10.54 -18.08,-15.97 -3.57,-3.34 -6.66,-7.95 -6.35,-13.02 0.99,-5.98 4.71,-11.26 9.41,-14.96 z"
           id="path37" />
        <path
           fill="#ffffff"
           opacity="1"
           d="m 171.13,607.21 c 5.24,-4.18 13,-3.54 18.07,0.59 4.92,3.89 10.06,9.45 9.08,16.25 -0.76,6.63 -6.39,11.02 -10.5,15.73 -3.79,4.45 -8.57,8.22 -11.32,13.44 0.23,2.04 0.91,3.99 1.36,6 -5.49,-2.95 -9.98,-7.62 -13.49,-12.71 2.68,-0.1 5.94,1.1 8.1,-1.08 4.74,-4.28 8.79,-9.26 13.15,-13.9 2.81,-3.31 6.64,-6.73 6.28,-11.49 0.37,-4.56 -3.2,-8.08 -6.94,-10.02 -2.9,-1.65 -6.69,-2.65 -9.75,-0.8 -5.18,2.95 -8.91,7.76 -12.88,12.09 -2.81,3.32 -6.17,6.19 -8.53,9.87 -0.08,2.17 0.59,4.27 0.93,6.41 -4.41,-2.48 -7.95,-6.1 -10.84,-10.21 2.78,-0.02 6.19,1.23 8.37,-1.11 6.59,-6.06 11.89,-13.46 18.91,-19.06 z"
           id="path38" />
        <path
           fill="#ffffff"
           opacity="1"
           d="m 543.38,607.37 c 1.75,-1.84 3.95,-3.13 6.39,-3.83 -0.66,1.8 -1.5,3.54 -1.94,5.42 1.42,3.1 3.93,5.51 6.16,8.04 5.27,5.72 10.28,11.7 15.55,17.42 1.99,2.47 5.38,1.83 8.17,2.08 -3.82,4.92 -9.03,8.43 -13.45,12.76 -3.46,3.01 -6.4,6.67 -10.34,9.09 -3.45,-0.81 -6.76,-4.32 -6.61,-8.1 2.79,1.11 6.17,3.41 9.01,1.1 3.52,-2.7 7.51,-5.36 9.67,-9.34 -2.39,-4.59 -6.34,-8.07 -9.88,-11.74 -2.55,2.05 -5.18,4.01 -7.46,6.36 -2.42,2.28 -1.55,5.89 -1.84,8.84 -3.86,-3.24 -7.34,-6.9 -9.94,-11.25 2.26,0.55 4.48,1.37 6.82,1.52 3.72,-2.05 7.49,-4.81 9.5,-8.63 -2.97,-4.06 -6.39,-7.81 -10.07,-11.22 -1.62,-1.52 -3.64,0.21 -5.01,1.19 -3.05,2.56 -6.22,5.19 -8.32,8.62 -0.67,3.38 -0.29,6.94 -1.47,10.25 -1.71,-3.48 -4.76,-7.24 -3.69,-11.32 5.85,-6.14 12.6,-11.4 18.75,-17.26 z"
           id="path39" />
        <path
           fill="#ffffff"
           opacity="1"
           d="m 211.26,629.97 c 2.48,-1.17 5.86,-0.52 7.01,2.2 1.22,3.68 -4,7.26 -6.98,4.63 -2.49,-1.22 -2.41,-5.56 -0.03,-6.83 z"
           id="path40" />
        <path
           fill="#ffffff"
           opacity="1"
           d="m 512.4,631.23 c 2.87,-1.71 7.51,1.86 5.97,5.12 -1.08,3.69 -8.13,3.67 -8.36,-0.51 -0.32,-1.81 0.44,-4.1 2.39,-4.61 z"
           id="path41" />
      </g>
      <path
         fill="#033860"
         opacity="1"
         d="m 681.6354,-107.83571 c 42.70576,-17.884 89.01355,-27.8071 135.39141,-26.89608 23.70051,-0.36441 47.37298,2.39668 70.48482,7.48437 52.86713,11.32466 103.07127,35.319496 144.64177,69.966242 35.0672,29.376853 65.0748,65.1028057 86.1263,105.84637 24.2331,47.541166 38.5291,100.576478 38.473,154.102338 1.3736,79.18856 -26.3214,158.50325 -76.6096,219.66766 -27.7791,33.98801 -61.9774,62.67809 -100.50644,83.72963 -22.07469,12.82434 -46.18165,21.82241 -70.52687,29.26473 -9.75491,2.74707 -19.56588,5.38202 -29.57307,6.95177 -9.01208,1.09323 -17.92605,2.80314 -26.93813,3.85431 -29.97953,3.02739 -60.28141,2.20047 -90.12078,-1.89211 -31.19889,-4.40092 -61.41669,-14.32402 -90.1348,-27.12033 -13.20277,-6.3491 -26.40553,-12.86639 -38.61318,-20.99548 -13.413,-9.15224 -26.89608,-18.29045 -39.20184,-28.92835 -21.03753,-18.19235 -40.239,-38.58515 -56.49719,-61.1644 -13.48307,-18.52872 -24.66758,-38.59917 -34.54863,-59.23024 -14.67441,-31.89967 -23.92476,-66.32217 -28.05938,-101.15112 -1.6959,-28.74615 -2.71904,-57.74458 1.56976,-86.32254 7.62452,-54.18459 28.28363,-106.603213 60.16928,-151.1169934 5.98469,-8.47948277 12.74025,-16.3843229 18.96321,-24.6675866 14.98275,-17.043059 31.26897,-33.133053 49.33517,-46.896445 23.61641,-17.617702 48.94273,-33.091006 76.17519,-44.485745 m 81.50114,0.19622 c -12.22166,6.65744 -23.11184,17.505572 -26.43356,31.395105 -0.58866,5.101705 -0.50456,10.287505 -0.014,15.403226 1.86408,7.470354 5.05966,14.548269 8.47948,21.41595 -6.93776,0.434486 -13.90355,0.196219 -20.85532,0.210235 -13.87552,-16.089994 -25.929,-33.679665 -40.0568,-49.531392 -7.61051,3.069432 -15.01079,6.629414 -22.67736,9.572705 0.23827,4.414938 3.54597,7.512401 6.27902,10.623881 11.11443,12.235684 21.458,25.144119 32.51637,37.435865 5.74642,6.559336 10.83411,13.749377 17.3514,19.593913 5.01761,0.756846 10.13333,0.294329 15.20701,0.448501 18.31848,-0.05606 36.63697,0.7148 54.95545,0.336376 0.82693,-5.452097 0.44851,-11.016319 1.4296,-16.468417 0.0841,-3.980451 1.85007,-9.432548 -2.52282,-11.787181 -8.56358,-5.396035 -18.37455,-11.506869 -21.1076,-21.920515 -1.93417,-8.970031 5.04564,-16.510464 12.36182,-20.420837 16.81881,-9.180266 37.23965,-10.371598 55.6142,-5.788473 8.63365,2.5929 18.19234,6.64343 22.04665,15.431257 3.18156,7.638542 -0.77086,15.781649 -5.46611,21.822405 -4.35888,6.138865 -10.98829,10.091285 -15.89378,15.641492 -0.82692,8.339326 1.66787,16.496448 1.75196,24.8217584 25.60664,0.728815 51.12918,-1.3174734 76.70779,-1.7239284 16.65062,-20.322727 33.13305,-40.785611 49.92383,-60.996213 1.44361,-1.737943 3.64407,-4.499031 0.75684,-6.082802 -5.39603,-4.05053 -10.91821,-7.960903 -16.7207,-11.380728 -2.83116,-1.121253 -4.61115,1.962195 -6.22295,3.700138 -10.06326,12.824342 -20.44887,25.396402 -30.76441,38.010508 -3.2236,3.770217 -5.9006,8.339326 -10.23144,10.91821 -6.97981,0.812909 -14.02969,-0.854956 -21.05154,-0.728815 2.20046,-8.927984 7.98893,-16.65062 9.16625,-25.900965 0.42047,-5.143753 0.4485,-10.329552 0,-15.459289 -2.1444,-11.044351 -10.14735,-19.874225 -19.08935,-26.16726 -13.21678,-8.66169 -29.05449,-11.85726 -44.48575,-13.74938 -20.79926,-1.27543 -42.27127,1.68188 -60.95417,11.32467 m -145.60883,57.548353 c -2.70503,1.990225 -2.39668,5.970677 -0.19622,8.241216 21.41595,26.223326 42.60765,52.656887 63.70124,79.160527 2.66297,3.069432 5.26989,7.147994 9.78294,7.38626 22.17279,0.364408 44.3596,-0.238266 66.5324,0.210235 0.21024,33.217148 0.12614,66.434299 0.028,99.651439 -34.89903,0.25229 -69.85412,0.46252 -104.75315,-0.0981 -0.33637,-14.70244 -0.25228,-29.4189 -0.75684,-44.10732 -1.12126,-9.138222 -0.15417,-18.374551 -0.86897,-27.526786 -6.3631,-7.133988 -14.36605,-12.586086 -21.3879,-19.01928 C 610.96837,37.857217 592.31351,21.90738 573.86888,5.7332923 c -1.89211,-1.9061317 -4.33084,-3.0133699 -6.9798,-3.3637618 -5.01761,6.4472101 -10.84814,12.2076525 -15.86575,18.6408465 -2.7751,2.508806 0.68677,4.877455 2.56487,6.489257 20.89737,16.482433 41.82277,32.964865 62.62203,49.587455 3.51794,2.887228 7.49839,5.283909 10.59585,8.64767 1.9622,5.101706 1.23338,10.679944 1.34551,16.019911 -0.16819,11.21254 0.42047,22.45311 -0.56063,33.63762 1.35952,12.92245 -1.6959,25.91498 0.72882,38.8094 47.4851,0.028 94.9702,-0.014 142.45531,0.014 5.25587,-0.042 10.59585,0.39244 15.76763,-0.82693 0.22425,-45.36873 0.6307,-90.751484 0.67275,-136.120221 -0.0981,-7.988934 2.5929,-16.496448 -0.72881,-24.120975 -2.84519,-0.644721 -5.73241,-1.079207 -8.61964,-1.345505 C 757.27799,11.60586 736.67495,11.395625 716.09994,11.129327 709.79289,10.694841 703.52788,9.8819318 697.20681,9.8258691 677.41668,-12.82346 657.34624,-35.234523 637.65421,-57.981962 c -1.82203,-1.765975 -3.29368,-4.092577 -5.67634,-5.115721 -5.77446,2.943292 -9.82499,8.52153 -14.45016,13.006546 m 368.48608,-10.021207 c -20.89737,23.896724 -41.68261,47.905574 -62.97242,71.451906 -16.94495,-0.112125 -33.79179,1.55574 -50.72273,1.611802 -12.95048,1.485662 -25.98506,1.009129 -38.9916,1.359521 -0.37842,40.827658 0.11212,81.655317 0.0841,122.496995 1.44362,12.92245 0.63071,25.95702 1.09323,38.94955 3.91037,1.00913 7.94688,0.99512 11.95537,0.93905 48.77454,-0.30834 97.57712,0.40646 146.33765,-0.3644 0.50456,-30.54016 0.014,-61.09433 0.2663,-91.63448 25.64871,-20.827292 51.07311,-41.934897 77.05821,-62.341718 -0.07,-1.275427 -0.1402,-2.550853 -0.1963,-3.826279 -7.1339,-4.611157 -12.8664,-11.1004141 -20.2526,-15.2911007 -5.9427,2.6489624 -10.0072,7.9749187 -15.2351,11.6610407 -22.2288,18.40258 -44.6679,36.538862 -66.84069,54.983489 -0.16819,24.667586 0.14015,49.335168 -0.14016,74.002758 -0.54661,2.84518 -4.05053,1.72393 -6.04076,2.00424 -32.26408,-0.28031 -64.54217,0.15417 -96.79224,-0.19622 -0.47653,-0.4485 -1.4296,-1.3455 -1.90613,-1.794 -0.19622,-32.53038 -0.0421,-65.088793 -0.0561,-97.633188 22.64933,-0.532596 45.32669,0.112125 67.99004,-0.266298 3.41982,-0.07008 5.49414,-3.01337 7.42831,-5.41005 22.2709,-28.437803 45.49487,-56.174822 67.73773,-84.612624 -3.3357,-6.475242 -9.51662,-10.848132 -14.46416,-16.019916 -1.35952,-1.948178 -3.96643,-2.158414 -5.33997,-0.07008 m 95.65703,106.841483 c -19.3136,15.767633 -38.5291,31.647392 -57.9268,47.330931 -3.4339,2.284555 -3.9524,6.643432 -4.0085,10.441682 -0.1822,10.30152 -0.3644,20.60304 -0.5186,30.90456 -0.9951,12.76828 -1.2894,25.64868 -0.5326,38.44499 8.059,-0.30834 15.9779,1.48566 24.0089,1.55574 4.8354,-2.53684 7.3302,-8.1431 11.4087,-11.75915 6.7416,-6.13886 15.4033,-12.58607 25.1021,-10.32955 8.3533,2.64896 13.427,10.97427 16.0339,18.90714 4.4851,11.43679 3.1255,24.00885 2.649,35.99225 -2.3827,11.01632 -6.0548,22.92965 -15.3752,30.09166 -4.6812,3.78423 -11.5769,4.17667 -16.6927,1.06519 -8.984,-4.49903 -13.5531,-13.84749 -19.1173,-21.66823 -8.9841,-0.82693 -18.5147,-0.89701 -27.2886,1.68188 -0.4485,10.31553 0.1122,20.64508 0.3645,30.96062 1.822,12.93647 0.5185,26.06915 1.5557,39.06168 1.9762,2.36865 4.2888,4.41494 6.5733,6.48926 18.2344,15.40323 36.2165,31.12881 54.3248,46.68621 1.5838,1.38755 3.3638,2.5929 5.5502,2.8592 4.0225,-7.148 6.9518,-14.85662 10.1053,-22.39705 -1.3595,-2.42471 -3.546,-4.19068 -5.6623,-5.87257 -13.5532,-10.30152 -26.6578,-21.13563 -40.183,-31.46518 -2.0322,-1.4296 -3.5459,-3.46188 -3.9664,-5.94265 -0.5606,-5.99871 -0.5466,-12.10954 0.9811,-17.95408 8.2552,3.78423 16.5805,8.25523 25.8028,8.91397 12.474,1.09322 24.8358,-4.96155 33.049,-14.14181 10.8341,-12.22167 16.3423,-28.15749 19.0333,-44.02324 1.1633,-12.15159 1.1212,-24.44333 0.028,-36.58091 -3.1535,-18.62683 -10.2034,-38.52908 -26.7419,-49.33517 -8.1992,-5.70438 -18.6548,-5.29792 -28.1575,-4.41494 -8.7738,1.19134 -16.3843,6.06879 -24.4293,9.41854 -0.7008,-7.16201 -1.5978,-14.33804 -1.1353,-21.52808 0.7849,-2.36865 2.9293,-3.84029 4.7093,-5.42406 13.6373,-11.142466 27.2325,-22.34099 40.9818,-33.343294 2.7191,-2.200461 5.4662,-4.456984 7.4564,-7.358229 -3.6861,-6.3491 -7.8908,-12.389856 -12.2778,-18.262423 -1.5837,-2.186445 -4.1906,-0.238267 -5.7043,0.995113 M 526.17354,61.753941 c -0.42047,1.55574 -0.75684,3.812264 0.7148,4.947533 7.45634,6.615398 15.6415,12.347809 23.09783,18.963207 9.09618,7.90484 19.14541,14.730469 27.72301,23.223969 0.75684,7.54044 0.32236,15.2911 -1.19134,22.74744 -7.41429,-3.55998 -14.7585,-7.76468 -22.92964,-9.27837 -9.64278,-0.9811 -20.29469,-1.65385 -28.77418,3.92438 -14.15582,8.82988 -21.75232,24.9479 -25.28427,40.74357 -4.0225,13.35694 -2.78912,27.51277 -2.52282,41.27616 2.25652,17.64573 8.03098,35.57178 20.15454,48.99879 8.31129,8.50752 20.11249,14.46418 32.23605,13.44104 9.67081,-0.5326 18.16431,-5.69037 27.0082,-9.08216 0.0841,6.67146 0.49055,13.38497 -0.0981,20.05643 -1.62582,2.43873 -4.07856,4.16265 -6.3491,5.97068 -12.95048,9.93711 -25.50853,20.35075 -38.58515,30.11968 -1.44362,1.20535 -3.09747,2.29857 -4.00848,3.99447 -0.28032,4.09257 2.11636,7.66657 3.50391,11.35269 1.8781,3.89636 2.95731,8.19917 5.42407,11.78718 1.55574,0.33638 3.32171,0.50457 4.45698,-0.88298 20.78525,-18.01014 41.61254,-35.99225 62.52393,-53.86224 0.11212,-7.23209 0.23826,-14.46417 1.19133,-21.65421 0.39244,-16.55252 0.85495,-33.11904 0.50456,-49.67155 -8.75979,-1.89212 -17.72982,-1.48566 -26.62978,-1.73795 -5.95666,8.32531 -11.0023,18.34652 -20.75721,22.8035 -6.30705,3.43384 -14.11378,0.56063 -18.69691,-4.40092 -7.30217,-7.93287 -10.39963,-18.66887 -12.54403,-28.98441 -0.56063,-7.70862 -0.57464,-15.48732 0,-23.18193 2.03227,-9.50262 4.7373,-19.74808 12.37584,-26.36348 4.77935,-4.79336 12.54403,-5.19981 18.51471,-2.5929 8.95601,3.89636 15.57141,11.36671 21.54209,18.83707 2.15841,3.43384 6.46122,1.97621 9.76892,1.77999 5.69037,-1.05118 11.49286,-0.9811 17.2533,-1.19133 0.43448,-13.74938 -0.0561,-27.51277 -0.0841,-41.26215 -1.12125,-10.66593 -0.68676,-21.38792 -1.03716,-32.08188 0.28032,-2.873209 -2.25652,-4.723278 -4.03651,-6.545316 C 582.69876,79.18944 564.57649,64.64117 546.73454,49.742509 c -2.5929,-2.214477 -5.48013,-4.036514 -8.54956,-5.50816 -3.79825,5.970677 -8.29728,11.478837 -12.01144,17.519592 M 838.86323,216.47297 c -0.15417,29.50299 -0.25228,59.00598 -0.32236,88.52299 -1.85007,22.38303 -0.82692,44.92024 -1.30346,67.37335 -0.32236,2.5088 0.84094,6.40516 4.00849,5.98469 13.413,0.43449 26.84001,0.40646 40.26703,0.60268 14.96874,1.21936 30.00755,0.93905 45.01834,1.38755 7.66658,7.40027 14.18386,15.85172 21.47201,23.61641 14.52024,16.49645 28.98442,33.06297 43.51867,49.54541 2.677,-0.36441 5.05966,-1.58378 6.81162,-3.64408 3.99443,-4.30281 8.77383,-8.045 11.81523,-13.11867 -2.1724,-4.79336 -6.4612,-8.25523 -9.4606,-12.54403 -19.43974,-24.0509 -38.79538,-48.18589 -58.15103,-72.30686 -2.21448,-2.22849 -4.09258,-5.92863 -7.72264,-5.50816 -20.11249,-0.0981 -40.22498,-0.014 -60.33747,0.0841 -2.1444,-0.16819 -4.48502,0.35039 -6.44721,-0.7148 -0.58866,-13.10465 -0.0421,-26.25135 -0.21024,-39.37002 0.16819,-20.23864 -0.37842,-40.47727 0.22425,-60.7159 28.77418,-0.028 57.56238,0.028 86.33656,0 5.85855,0 11.77316,-0.32236 17.58967,0.67275 0.40645,24.24711 -0.0981,48.52226 0.11212,72.78339 -0.0981,1.9622 0.56063,4.00849 2.08834,5.35399 25.98505,21.14965 52.06825,42.24324 77.70285,63.82738 1.3315,0 2.663,0.014 4.0085,0.028 6.251,-6.05477 13.6933,-10.66593 19.9303,-16.7207 -22.8876,-19.28557 -46.3919,-37.84232 -69.5738,-56.76348 -3.588,-3.06943 -9.12419,-5.70438 -8.91396,-11.19852 -0.0701,-28.95638 0.0701,-57.92678 -0.0561,-86.88316 -8.17114,-1.19134 -16.44039,-0.42047 -24.66759,-0.61669 -44.56984,0.22425 -89.18173,-0.43449 -133.73756,0.32236 m -210.51542,2.69101 c -1.48566,7.49838 -0.74283,15.16496 -0.86897,22.74743 0.15417,12.61411 -0.44851,25.25625 0.61668,37.84232 -1.26141,9.51665 1.31748,19.14542 -1.14928,28.56395 -23.16791,17.85597 -45.77519,36.42674 -68.90105,54.33877 -3.09747,2.39668 -5.95667,5.08769 -8.59161,7.98893 4.98958,6.18091 10.14735,12.20765 15.4733,18.09424 1.2474,1.33148 3.20959,3.81226 5.12974,1.93416 5.24186,-3.65809 9.74089,-8.24122 14.67441,-12.26372 22.03264,-19.11738 44.38764,-37.89838 66.36422,-57.08584 0.39243,-9.6568 -0.23827,-19.34163 0.8129,-28.95638 0.40646,-14.22591 0.40646,-28.46583 0.68677,-42.69174 2.91526,-0.58866 5.83052,-1.27543 8.82988,-1.21937 30.38598,0.0701 60.77196,0.014 91.15794,0.028 2.74707,-0.44851 5.6343,1.59778 4.87746,4.58312 -0.12615,32.0118 0.26629,64.03762 -0.23827,96.04942 -22.13075,0.30834 -44.28953,-0.0701 -66.4343,0.0561 -5.46611,-0.33638 -8.04499,5.48013 -11.19852,8.97003 -17.54762,22.60728 -36.06233,44.45772 -53.66601,67.02295 -4.19069,4.87746 -8.36736,9.78294 -11.40876,15.47331 5.38202,4.77934 10.00719,10.35758 15.4733,15.03881 2.83117,1.40157 5.21383,-0.85495 6.86768,-2.91526 14.74449,-17.40746 30.1337,-34.26832 45.01835,-51.57768 5.88658,-5.76044 10.49774,-12.68418 16.77676,-18.05218 29.39087,-0.19622 58.73969,-1.79401 88.14457,-1.90614 0.67275,-5.77445 0.56063,-11.57694 0.47653,-17.36542 -0.16818,-40.65947 -0.21023,-81.31894 -0.64472,-121.96439 -0.98109,-7.47036 -0.93905,-14.98276 -1.02314,-22.49516 -7.26012,-0.67275 -14.54827,-0.32236 -21.82241,-0.37842 -45.14448,0.11212 -90.30298,-0.1822 -135.43345,0.14016 m 207.7263,180.21353 c -0.92503,8.14311 -3.15353,16.34228 -2.48077,24.54145 4.16265,4.84942 9.74089,8.24121 13.87551,13.11867 4.51305,5.4521 9.32043,11.81521 8.56358,19.32761 0.64472,6.60139 -4.33084,12.10955 -9.60074,15.34717 -9.64278,5.77445 -21.03752,8.18515 -32.20801,7.86279 -15.2911,0.51858 -31.96976,-2.67699 -43.51867,-13.35694 -6.72753,-5.55021 -7.09193,-16.38432 -1.6118,-22.90161 4.62517,-7.42831 13.5952,-10.3716 19.36966,-16.32826 0.35039,-8.74578 -0.30835,-17.51959 -0.43449,-26.27939 -19.29958,-0.47653 -38.59917,0.4485 -57.89875,0.58866 -6.01272,-0.028 -12.01143,0.47653 -18.01014,0.85496 -10.2875,12.1656 -20.15454,24.66758 -30.34393,36.90327 -8.07303,10.23144 -16.87488,19.88824 -24.47137,30.48409 5.94265,3.64407 12.55804,5.92863 18.80903,8.98404 2.73306,1.05118 5.41005,2.97133 8.4935,2.57889 4.10659,-3.99447 7.0639,-8.97003 10.49774,-13.51111 7.44233,-9.93712 14.91268,-19.83218 22.24288,-29.83937 2.21447,-2.97133 4.41493,-6.02674 7.33019,-8.33933 6.54532,-0.897 13.18875,-0.14016 19.77612,-0.2663 -2.3266,6.86768 -5.91461,13.27285 -7.75067,20.30872 -0.68677,5.95666 -0.74283,12.02544 -0.028,17.98211 2.31259,7.70862 6.46123,14.95472 12.37584,20.46288 11.32467,10.66593 26.40553,16.1881 41.38829,19.36966 12.54403,1.09322 25.18616,0.74283 37.77224,0.56063 9.27837,0.11212 18.22037,-2.84518 26.85403,-5.95666 13.69331,-5.21383 26.92411,-14.98276 31.43716,-29.51701 3.54596,-12.23569 0.30834,-25.28428 -5.42407,-36.32863 -1.12125,-2.70503 -3.34975,-5.15777 -3.18156,-8.21319 7.48437,-0.22425 15.02481,-0.64472 22.50918,-0.12614 2.27053,1.86409 4.14863,4.16266 5.98469,6.46123 12.02545,15.2911 24.96191,29.8674 36.55288,45.50889 2.27053,-0.14015 4.70926,0.028 6.69949,-1.30345 5.26989,-2.99936 10.38561,-6.251 15.79566,-8.99807 -0.35039,-2.25652 -0.53259,-4.70926 -2.20046,-6.43319 -17.4355,-20.2947 -33.74974,-41.54246 -51.26933,-61.76708 -8.7598,-0.32236 -17.56164,-0.028 -26.26538,-1.24739 -16.53849,-0.47654 -33.091,-0.65874 -49.6295,-0.5326 z"
         id="path42"
         style="stroke-width:1.40157" />
    </g>
    <g
       id="g64"
       transform="translate(-329.49153,1058.0339)">
      <path
         fill="#033860"
         opacity="1"
         d="m 677.82048,-481.05708 c 14.58,-5.86 31.57,-5.4 45.78,1.33 11.11,5.18 20.31,14.05 26.26,24.74 -5.22,2.87 -10.51,5.63 -15.76,8.44 -3.86,-6.79 -9.5,-12.62 -16.56,-16.08 -10.57,-5.37 -23.51,-5.76 -34.39,-1.05 -10.55,4.47 -18.89,13.85 -21.97,24.9 -4.29,14.6 0.26,31.63 12.04,41.48 14.17,12.47 37.3,12.53 51.65,0.33 3.82,-3.08 6.72,-7.08 9.24,-11.26 5.26,2.79 10.52,5.59 15.78,8.41 -6.65,12 -17.47,21.67 -30.36,26.47 -13.58,5.13 -29.14,4.95 -42.53,-0.71 -13.18,-5.41 -24.16,-15.96 -30.16,-28.88 -7,-14.8 -7.31,-32.65 -0.61,-47.61 5.98,-13.8 17.61,-24.99 31.59,-30.51 z"
         id="path43" />
      <path
         fill="#033860"
         opacity="1"
         d="m 1477.2505,-475.57708 c 14.92,-10 34.6,-12.34 51.46,-6.15 13.2,4.71 24.3,14.54 31.08,26.76 -5.26,2.81 -10.52,5.62 -15.77,8.41 -5.3,-9.57 -14.57,-16.83 -25.27,-19.26 -15.26,-3.87 -32.61,2.05 -41.78,14.97 -11.31,15.2 -9.55,38.5 4.13,51.66 12.71,12.98 34.56,14.94 49.7,5.11 5.59,-3.43 9.95,-8.51 13.23,-14.15 5.26,2.79 10.52,5.6 15.78,8.42 -7.52,13.59 -20.49,24.13 -35.54,28.14 -16.51,4.56 -35.01,1.35 -48.85,-8.8 -14.55,-10.31 -23.79,-27.67 -24.08,-45.52 -0.76,-19.56 9.55,-38.95 25.91,-49.59 z"
         id="path44" />
      <path
         fill="#033860"
         opacity="1"
         d="m 767.07048,-483.66708 c 6.13,0.01 12.25,0 18.38,0.01 -0.02,24.24 -0.02,48.47 0,72.71 -0.05,6.15 2.29,12.36 6.73,16.68 11.07,11.14 32.16,9.85 41.34,-3.08 2.81,-3.92 4.23,-8.76 4.24,-13.57 0.06,-24.25 -0.07,-48.5 0.07,-72.74 6.11,0 12.22,-0.02 18.33,0.01 0,25.22 0.01,50.45 0,75.67 0.05,7.15 -2.09,14.29 -6.17,20.16 -6.68,9.7 -17.84,15.61 -29.31,17.42 -12.2,1.93 -25.31,0.19 -35.9,-6.42 -8.19,-4.97 -14.55,-13.12 -16.72,-22.51 -1.23,-4.78 -1,-9.75 -1,-14.64 0.01,-23.23 -0.02,-46.46 0.01,-69.7 z"
         id="path45" />
      <path
         fill="#033860"
         opacity="1"
         d="m 880.31048,-483.65708 c 14.87,0.01 29.74,-0.05 44.61,0.03 11.66,0 22.93,6.99 28.15,17.41 6.03,11.5 4.84,26.68 -4,36.43 -4.23,5.02 -10.24,8.07 -16.46,9.85 10.61,16.34 21.47,32.5 32.12,48.81 -6.88,-0.01 -13.76,0.01 -20.64,-0.01 -9.42,-14.93 -18.85,-29.84 -28.24,-44.79 -0.79,-0.98 -1.41,-2.73 -2.96,-2.44 -4.72,-0.09 -9.43,0 -14.13,0 -0.06,15.75 0.01,31.49 -0.04,47.24 -6.14,0 -12.28,0.01 -18.42,-0.02 0.04,-37.5 0.03,-75 0.01,-112.51 m 18.51,17.07 c -0.14,10.75 -0.13,21.5 0,32.25 8.02,-0.05 16.04,0.07 24.07,-0.04 4.55,-0.03 9.12,-1.98 12.12,-5.45 5.42,-6.18 5.02,-16.62 -0.98,-22.28 -3.19,-3.12 -7.73,-4.45 -12.1,-4.46 -7.71,-0.05 -15.41,0.03 -23.11,-0.02 z"
         id="path46" />
      <path
         fill="#033860"
         opacity="1"
         d="m 975.42048,-483.65708 c 26.60002,0.01 53.21002,-0.04 79.81002,0.03 -17.94,31.87 -36.09,63.62 -54.15,95.43 18.44,-0.04 36.88,0 55.32,-0.02 0.02,5.69 -0.02,11.38 0.03,17.07 -28.56,0.04 -57.12002,0.02 -85.68002,0.01 18.01,-31.84 36.25002,-63.57 54.26002,-95.41 -16.52,-0.06 -33.05002,-0.01 -49.58002,-0.02 -0.09,-5.7 0.01,-11.4 -0.01,-17.09 z"
         id="path47" />
      <path
         fill="#033860"
         opacity="1"
         d="m 1102.0005,-483.66708 c 6.82,0.02 13.64,-0.03 20.47,0.04 13.44,37.52 27.15,74.94 40.59,112.46 -6.62,0.06 -13.25,0.07 -19.87,0 -2.61,-7.94 -5.35,-15.85 -8.05,-23.76 -15.32,-0.02 -30.65,-0.1 -45.98,0.04 -2.57,7.8 -5.17,15.61 -7.88,23.37 -6.56,0.93 -13.34,0.16 -19.97,0.35 13.51,-37.52 27.09,-75.01 40.69,-112.5 m -7.27,72.58 c 11.72,0 23.45,0 35.18,0 -5.88,-17.38 -11.61,-34.81 -17.56,-52.17 -6.17,17.29 -11.72,34.79 -17.62,52.17 z"
         id="path48" />
      <path
         fill="#033860"
         opacity="1"
         d="m 1218.6205,-483.65708 c 6.12,-0.01 12.23,0 18.35,0 0.04,24.25 0,48.49 0.02,72.74 -0.02,6.01 2.23,12.07 6.47,16.38 11.38,11.85 33.94,10.08 42.53,-4.22 3.7,-5.7 3.44,-12.7 3.33,-19.2 -0.02,-21.9 0.02,-43.8 -0.01,-65.7 6.13,-0.01 12.27,0 18.41,-0.01 0.01,25.58 0.04,51.16 -0.02,76.74 -0.09,10.79 -5.7,21.13 -14.24,27.6 -12.19,9.31 -28.74,11.62 -43.45,8.16 -10.94,-2.56 -21.24,-9.18 -26.83,-19.1 -3.08,-5.35 -4.58,-11.54 -4.54,-17.71 -0.02,-25.22 0.01,-50.45 -0.02,-75.68 z"
         id="path49" />
      <path
         fill="#033860"
         opacity="1"
         d="m 1331.8805,-483.66708 c 6.16,0.04 12.33,-0.06 18.5,0.07 20.72,27.73 41.34,55.54 62.28,83.1 0.13,-27.72 0.04,-55.44 0.05,-83.16 6.05,-0.01 12.1,0.01 18.15,-0.01 0.04,37.51 0.02,75.03 0.01,112.54 -6.17,-0.03 -12.33,0.09 -18.49,-0.09 -20.58,-27.79 -41.15,-55.59 -61.99,-83.17 -0.25,27.75 -0.03,55.51 -0.11,83.26 -6.14,0 -12.28,-0.01 -18.4,0 -0.01,-37.52 -0.02,-75.03 0,-112.54 z"
         id="path50" />
      <path
         fill="#033860"
         opacity="1"
         d="m 1607.2905,-447.35708 c 11.74,-1.38 24.24,1.88 33.06,9.94 10.56,9.35 14.81,24.77 11.44,38.34 -1.98,8.14 -6.71,15.61 -13.31,20.78 -15.81,12.54 -41.01,11.48 -55.23,-3.05 -12.12,-12.04 -14.44,-32.34 -5.8,-47 6.07,-10.72 17.68,-17.72 29.84,-19.01 m 0.88,16.63 c -5.85,1.1 -11.21,4.6 -14.44,9.6 -4.69,7.01 -4.81,16.64 -0.63,23.91 3.17,5.54 8.85,9.55 15.14,10.67 8.31,1.62 17.4,-1.75 22.43,-8.61 6.31,-8.2 5.73,-20.76 -1.2,-28.41 -5.15,-5.99 -13.6,-8.7 -21.3,-7.16 z"
         id="path51" />
      <path
         fill="#033860"
         opacity="1"
         d="m 723.84048,-297.86454 c 11.56,-4.85 25.42,-3.65 35.99,3.1 5.62,3.43 10.09,8.44 13.54,14.01 -2.36,1.31 -4.73,2.62 -7.06,3.98 -3.31,-5.39 -7.95,-10.05 -13.75,-12.7 -9.18,-4.4 -20.52,-4.04 -29.36,1.04 -6.3,3.57 -11.3,9.4 -13.81,16.19 -4.23,11.12 -1.49,24.56 6.91,33.02 8.45,8.81 22.19,11.84 33.59,7.51 6.93,-2.43 12.67,-7.54 16.41,-13.8 2.35,1.31 4.71,2.61 7.08,3.92 -4.69,7.99 -12.06,14.39 -20.78,17.58 -12.48,4.74 -27.32,2.59 -37.85,-5.66 -12.57,-9.36 -18.44,-26.57 -14.28,-41.67 3.08,-11.84 12.01,-21.98 23.37,-26.52 z"
         id="path52" />
      <path
         fill="#033860"
         opacity="1"
         d="m 1090.4305,-297.26454 c 10.61,-6.76 25.57,-3.46 33.41,6.06 -2.05,1.73 -4.03,3.55 -6.17,5.16 -2.63,-1.92 -4.87,-4.53 -8.08,-5.5 -5.31,-1.74 -11.74,-1.38 -16.18,2.27 -4.7,3.98 -4.62,11.99 -0.17,16.13 4.15,3.97 9.79,5.72 14.95,8 6.39,2.69 13.3,5.9 16.82,12.25 3.95,7.42 3.25,17.4 -2.46,23.75 -12.16,13.21 -37.35,8.65 -44.02,-8.12 2.44,-1.43 4.89,-2.85 7.37,-4.24 2.27,4.74 5.97,9.05 11.15,10.64 6.55,2.14 14.94,1.38 19.63,-4.15 4.01,-4.89 3.12,-12.86 -1.79,-16.81 -9.54,-7.88 -24.62,-8.25 -31.2,-19.79 -4.39,-8.63 -1.69,-20.5 6.74,-25.65 z"
         id="path53" />
      <path
         fill="#033860"
         opacity="1"
         d="m 805.38048,-299.69454 c 3.1,-0.1 6.2,-0.1 9.3,-0.07 9.21,25.75 18.63,51.42 27.85,77.16 -2.96,-0.32 -6.58,0.92 -9.14,-0.61 -2.27,-5.67 -4.04,-11.54 -6.12,-17.29 -11.45,-0.11 -22.91,-0.01 -34.36,-0.06 -2.11,5.99 -4.3,11.95 -6.26,17.99 -3.02,0.01 -6.03,0.02 -9.03,0 9.13,-25.75 18.66,-51.36 27.76,-77.12 m -9.72,51.22 c 9.6,0.04 19.2,0.07 28.8,-0.01 -2.14,-6.47 -4.43,-12.87 -6.65,-19.3 -2.74,-7.09 -4.51,-14.59 -7.82,-21.42 -5.01,13.49 -9.59,27.14 -14.33,40.73 z"
         id="path54" />
      <path
         fill="#033860"
         opacity="1"
         d="m 851.94048,-299.77454 c 2.92,-0.02 5.84,-0.02 8.77,0.02 9.91,22.37 19.59,44.84 29.63,67.14 9.97,-22.35 19.78,-44.77 29.68,-67.14 2.88,-0.04 5.76,-0.04 8.64,-0.02 0.02,25.74 0.01,51.48 0.01,77.22 -2.7,0 -5.4,0 -8.09,0 -0.09,-20.15 0.03,-40.29 -0.06,-60.44 -9.08,20.07 -17.9,40.26 -26.8,60.4 -2.31,0.05 -4.61,0.06 -6.9,0.03 -8.92,-20.15 -17.5,-40.45 -26.59,-60.53 -0.13,20.18 0.03,40.35 -0.07,60.53 -2.75,0.02 -5.49,0.02 -8.22,0.01 0,-25.74 -0.01,-51.48 0,-77.22 z"
         id="path55" />
      <path
         fill="#033860"
         opacity="1"
         d="m 947.46048,-299.79454 c 9.15,0.03 18.3,-0.02 27.45,0 5.75,0.01 11.5,2.29 15.51,6.43 6.39,6.37 8.07,16.95 3.85,24.94 -3.39,6.81 -10.74,11.36 -18.33,11.49 -6.74,0.09 -13.49,-0.01 -20.23,0.02 -0.04,11.46 -0.01,22.91 -0.02,34.36 -2.75,0 -5.5,0 -8.24,0 -0.02,-25.74 -0.03,-51.49 0.01,-77.24 m 8.23,7.99 c 0,9 -0.01,18.01 0,27.01 7.33,-0.17 14.71,0.38 22.02,-0.28 7.23,-1.06 12.07,-8.72 10.39,-15.74 -0.92,-6.28 -6.9,-10.93 -13.14,-10.94 -6.42,-0.12 -12.85,-0.02 -19.27,-0.05 z"
         id="path56" />
      <path
         fill="#033860"
         opacity="1"
         d="m 1007.8405,-299.78454 c 2.72,-0.01 5.45,-0.01 8.2,0 0.01,16.67 0,33.34 0,50.01 -0.11,4.76 1.38,9.62 4.59,13.2 8.23,9.42 24.98,9.06 32.84,-0.66 2.88,-3.47 4.2,-8.04 4.14,-12.52 0.01,-16.68 -0.01,-33.35 0.01,-50.03 2.74,-0.02 5.49,-0.01 8.24,0.01 0.03,15.98 -0.02,31.97 0.02,47.96 0.38,6.64 -0.76,13.65 -4.9,19.05 -10.67,14.2 -34.35,15.06 -46.47,2.3 -4.33,-4.62 -6.78,-10.94 -6.69,-17.28 0.01,-17.34 -0.01,-34.69 0.02,-52.04 z"
         id="path57" />
      <path
         fill="#033860"
         opacity="1"
         d="m 1162.2705,-299.76454 c 3.05,-0.03 6.11,-0.04 9.18,0.05 7.29,21.14 14.88,42.18 22.14,63.33 0.44,0.73 0.28,2.77 1.63,1.97 7.68,-21.76 15.35,-43.53 22.96,-65.32 3.02,-0.07 6.04,-0.06 9.08,0 -9.3,25.52 -18.39,51.13 -27.8,76.6 -2.82,1.3 -6.3,0.29 -9.37,0.55 -9.16,-25.77 -18.64,-51.42 -27.82,-77.18 z"
         id="path58" />
      <path
         fill="#033860"
         opacity="1"
         d="m 1237.2405,-299.77454 c 2.75,-0.01 5.52,-0.01 8.29,0 -0.02,25.75 0.01,51.51 -0.02,77.26 -2.76,-0.1 -5.51,-0.1 -8.25,0 -0.02,-25.75 0.01,-51.51 -0.02,-77.26 z"
         id="path59" />
      <path
         fill="#033860"
         opacity="1"
         d="m 1264.8505,-299.78454 c 9.03,0.01 18.06,-0.03 27.09,-0.02 5.76,-0.05 11.57,2.15 15.66,6.27 6.37,6.23 8.33,16.71 4.16,24.67 -2.94,6.11 -9.1,9.86 -15.54,11.31 7.58,11.59 15.08,23.24 22.55,34.91 -3.13,-0.15 -6.53,0.72 -9.48,-0.39 -7.45,-11.32 -14.43,-22.96 -21.7,-34.39 -4.85,0 -9.7,0.02 -14.54,-0.01 -0.03,11.62 0,23.24 -0.01,34.86 -2.74,0.03 -5.47,0.03 -8.19,0.02 -0.02,-25.75 -0.02,-51.49 0,-77.23 m 8.2,8.29 c -0.02,8.72 -0.01,17.44 -0.01,26.17 7.27,-0.16 14.58,0.39 21.83,-0.28 7.33,-0.85 12.43,-8.75 10.5,-15.8 -1.18,-5.79 -6.78,-9.93 -12.57,-10.02 -6.59,-0.18 -13.17,0.01 -19.75,-0.07 z"
         id="path60" />
      <path
         fill="#033860"
         opacity="1"
         d="m 1321.1805,-299.76454 c 16.99,-0.05 33.98,-0.02 50.97,-0.02 0.02,2.76 0.01,5.52 0.01,8.28 -7.09,0.02 -14.18,0.03 -21.26,0 -0.12,22.98 -0.02,45.96 -0.06,68.94 -2.77,0.02 -5.53,0.02 -8.28,0.01 -0.04,-22.98 -0.02,-45.95 -0.01,-68.93 -7.13,0.01 -14.25,-0.02 -21.36,0 -0.05,-2.77 -0.05,-5.53 -0.01,-8.28 z"
         id="path61" />
      <path
         fill="#033860"
         opacity="1"
         d="m 1382.2805,-299.76454 c 2.75,-0.02 5.52,-0.02 8.29,-0.01 -0.01,16.66 0,33.32 -0.01,49.98 -0.14,4.89 1.46,9.88 4.82,13.49 8.4,9.21 25.11,8.68 32.8,-1.18 2.76,-3.46 3.99,-7.93 3.93,-12.32 0,-16.65 -0.01,-33.3 0,-49.96 2.74,-0.04 5.49,-0.04 8.25,-0.03 0.06,16.66 -0.01,33.32 0.04,49.98 0.27,6.62 -1.62,13.47 -6.06,18.51 -10.7,12.16 -31.41,13.07 -43.54,2.56 -5.45,-4.7 -8.53,-11.85 -8.49,-19.01 -0.05,-17.34 0.02,-34.68 -0.03,-52.01 z"
         id="path62" />
      <path
         fill="#033860"
         opacity="1"
         d="m 1477.2205,-299.72454 c 3.09,-0.07 6.19,-0.07 9.29,0 9.18,25.75 18.61,51.4 27.84,77.13 -3.02,-0.17 -6.27,0.62 -9.11,-0.45 -1.98,-4.85 -3.45,-9.87 -5.22,-14.79 -0.54,-1 -0.72,-3.01 -2.28,-2.71 -10.86,0.03 -21.72,-0.11 -32.56,0.07 -3.18,5.24 -4.13,11.75 -6.69,17.39 -2.8,1.18 -6.12,0.28 -9.1,0.49 9.22,-25.73 18.66,-51.38 27.83,-77.13 m -9.76,51.25 c 9.6,0.05 19.21,0.05 28.82,0 -4.75,-13.69 -9.33,-27.43 -14.35,-41.02 -5.12,13.56 -9.66,27.34 -14.47,41.02 z"
         id="path63" />
      <path
         fill="#033860"
         opacity="1"
         d="m 1523.7605,-299.78454 c 2.73,-0.01 5.47,-0.01 8.22,0 0,22.99 0.01,45.98 0,68.97 9.57,0.02 19.14,0 28.72,0.01 0.01,2.75 0,5.5 0,8.25 -12.32,-0.01 -24.62,0.01 -36.93,0 -0.02,-25.75 -0.01,-51.49 -0.01,-77.23 z"
         id="path64" />
    </g>
  </g>
</svg>
