<?xml version="1.0" encoding="UTF-8" standalone="no"?>
<!-- Created with Inkscape (http://www.inkscape.org/) -->

<svg
   version="1.1"
   id="svg1"
   width="128"
   height="128"
   viewBox="0 0 128 128"
   sodipodi:docname="path2.svg"
   inkscape:export-filename="path2.svg"
   inkscape:export-xdpi="96"
   inkscape:export-ydpi="96"
   xmlns:inkscape="http://www.inkscape.org/namespaces/inkscape"
   xmlns:sodipodi="http://sodipodi.sourceforge.net/DTD/sodipodi-0.dtd"
   xmlns="http://www.w3.org/2000/svg"
   xmlns:svg="http://www.w3.org/2000/svg">
  <defs
     id="defs1" />
  <sodipodi:namedview
     id="namedview1"
     pagecolor="#ffffff"
     bordercolor="#666666"
     borderopacity="1.0"
     inkscape:showpageshadow="2"
     inkscape:pageopacity="0.0"
     inkscape:pagecheckerboard="0"
     inkscape:deskcolor="#d1d1d1" />
  <g
     inkscape:groupmode="layer"
     inkscape:label="Image"
     id="g1"
     transform="translate(-4.5135055,-35.343949)">
    <g
       id="g2"
       transform="matrix(0.23127807,0,0,0.26943502,14.659331,13.163263)">
      <path
         style="fill:#313230;stroke-width:1.21019"
         d="m 473.28212,540.88783 c -25.82823,-12.12505 -71.14967,-49.76995 -74.10759,-61.55529 -0.53309,-2.12398 0.19419,-7.27631 1.61619,-11.44963 3.6956,-10.84597 3.2234,-16.67027 -2.02211,-24.94156 -10.59019,-16.69902 -40.0218,-29.48804 -90.12829,-39.16375 -37.28717,-7.20024 -60.59253,-9.57164 -93.22886,-9.48625 l -30.64036,0.0801 -12.81429,14.28962 c -29.51307,32.91099 -52.16416,53.08981 -82.721667,73.69298 -41.626951,28.06664 -86.446871,43.01131 -108.617688,36.21724 -7.203173,-2.20735 -7.260449,-2.28228 -7.176688,-9.39006 0.234075,-19.8629 32.191749,-61.75366 67.640631,-88.66467 36.752431,-27.90062 97.847242,-58.92219 140.022262,-71.09783 l 12.50379,-3.60978 10.80111,-14.67735 c 5.94061,-8.07254 22.89135,-26.73975 37.66833,-41.48269 l 26.86722,-26.80527 -28.60233,-18.77433 c -38.43212,-25.22654 -46.64449,-28.97087 -65.34186,-29.79187 -12.41264,-0.54503 -16.28738,-0.0451 -26.10155,3.36796 -12.98615,4.51614 -31.97546,16.4598 -38.5481,24.2455 -6.83988,8.10228 -10.25311,17.13399 -10.29226,27.23413 -0.0195,5.03037 -0.490435,10.33186 -1.046549,11.78109 -2.476236,6.45296 -51.653875,25.70892 -63.206927,24.74924 -4.856614,-0.40343 -6.072743,-1.20194 -6.507588,-4.27291 -1.525292,-10.77205 44.947537,-64.74599 72.339214,-84.01538 34.02074,-23.93275 67.22472,-33.71427 108.55079,-31.9778 30.94313,1.30019 47.52161,6.17758 109.30744,32.15819 3.58743,1.5085 5.69983,0.63671 18.19912,-7.51073 14.70176,-9.5831 28.42985,-15.94082 38.49977,-17.82996 9.13263,-1.71328 23.25914,1.90902 29.78279,7.63685 16.5062,14.49265 13.52606,27.39282 -12.21471,52.87416 -25.21786,24.96365 -42.69914,33.21175 -67.6786,31.93242 -12.84297,-0.65776 -19.18278,-2.44233 -36.52337,-10.2808 -2.45139,-1.10812 -23.82237,20.43925 -44.55149,44.9192 l -18.0952,21.36944 20.05785,0.96051 c 22.98547,1.10071 29.18054,2.39218 54.62319,11.38729 53.39504,18.87748 86.54827,38.88499 119.59758,72.17544 36.99755,37.26751 66.62013,85.63891 66.8168,109.1067 0.0713,8.49769 -0.31347,9.73283 -3.14603,10.10129 -1.77494,0.23088 -6.98594,-1.34476 -11.57997,-3.50143 z m -0.5337,-12.25764 c -2.05302,-1.78057 -4.10792,-2.86224 -4.56646,-2.4037 -0.95077,0.95077 4.6323,5.51196 6.84213,5.58979 0.8014,0.0282 -0.22266,-1.40552 -2.27567,-3.18609 z m -459.233654,-25.514 c 1.022588,-1.65458 -10.1528079,-5.82605 -11.6356056,-4.34324 -1.46417922,1.46417 4.4646775,5.66374 7.9959603,5.66374 1.5529433,0 3.1907843,-0.59423 3.6396453,-1.3205 z M 438.48047,488.3372 c -9.29146,-14.10376 -14.12774,-16.7765 -14.12774,-7.80762 0,4.05184 1.70367,6.77949 8.06256,12.90866 4.43442,4.2742 9.5212,7.77128 11.30398,7.77128 2.80834,0 2.10843,-1.71975 -5.2388,-12.87232 z m -400.994805,2.5989 c 15.911747,-7.7024 42.193362,-25.10659 61.948556,-41.02349 19.899149,-16.03289 52.134149,-49.32039 48.472159,-50.05482 -4.05682,-0.81361 -38.86035,8.83483 -54.881256,15.21449 -53.458989,21.28786 -89.6291693,50.58025 -89.7820726,72.70992 -0.019491,2.8209 1.1928261,6.35715 2.694037,7.85836 4.1249316,4.12494 17.3972506,2.14579 31.5485766,-4.70446 z m 24.035564,3.72332 3.80933,-3.32293 -4.840748,2.83456 c -6.371127,3.7307 -6.465909,3.81129 -4.48165,3.81129 0.93706,0 3.417944,-1.49532 5.513068,-3.32292 z M 86.12057,480.53944 c 14.05617,-9.0786 34.89588,-24.87795 39.06308,-29.61514 1.69215,-1.9236 -3.09533,1.21366 -10.63882,6.97169 -7.5435,5.75804 -19.88741,14.56713 -27.430915,19.57574 -7.543495,5.00862 -15.167675,10.25077 -16.942618,11.64922 -3.106938,2.44794 -3.083836,2.47359 0.620232,0.68847 2.116072,-1.01981 9.014133,-5.1913 15.329041,-9.26998 z m 343.80636,-20.93608 c 0,-10.34432 -13.23505,-30.81204 -25.48486,-39.4118 l -5.09987,-3.58027 4.50041,5.59011 c 9.72176,12.07571 13.98292,20.12241 16.48771,31.13518 1.43616,6.31426 3.40621,12.43843 4.37792,13.60927 2.69361,3.2456 5.21869,-0.30708 5.21869,-7.34249 z M 41.742547,437.60173 c 16.313844,-10.8428 41.236582,-22.41163 66.709683,-30.96583 12.66937,-4.25456 21.85768,-7.98688 20.41846,-8.29405 -4.4745,-0.95504 -41.563484,12.32035 -59.427563,21.27113 -27.049342,13.55303 -51.713267,30.99734 -51.713267,36.57578 0,0.79775 3.000005,-1.46097 6.666676,-5.01936 3.666673,-3.55838 11.47238,-9.66384 17.346011,-13.56767 z M 364.65017,391.24975 c -11.3744,-9.46259 -54.73447,-27.46216 -85.50639,-35.49527 -15.7203,-4.10384 -58.77829,-6.08717 -64.59293,-2.97525 l -3.87828,2.07559 3.62838,1.34222 c 1.99562,0.73824 16.49096,2.43642 32.21187,3.77377 41.0331,3.49059 70.55468,11.42419 105.6331,28.38773 14.54822,7.03535 18.61632,7.97597 12.50425,2.89121 z M 78.799265,277.7628 c 2.710574,-3.08718 5.401442,-8.3515 5.979703,-11.69849 0.578262,-3.34698 3.267238,-10.99594 5.975489,-16.99769 2.708242,-6.00174 4.553202,-11.28315 4.099888,-11.73646 -1.656528,-1.65653 -5.413558,1.05283 -9.248714,6.66968 -3.898609,5.70974 -17.854709,35.43114 -17.854709,38.02399 0,3.36549 6.580471,0.82759 11.048343,-4.26103 z m 221.307595,-3.89583 c 0,-0.79253 -1.19188,-1.89831 -2.6486,-2.4573 -2.21461,-0.84983 -2.31444,-0.61372 -0.60923,1.44094 2.32377,2.79996 3.25783,3.09136 3.25783,1.01636 z m 57.68558,-2.53454 c 4.65922,-2.16917 8.47131,-4.61837 8.47131,-5.44264 0,-2.09649 -29.32667,4.43653 -32.21402,7.17623 -4.3899,4.16537 13.94819,2.82642 23.74271,-1.73359 z m -67.7454,-1.47951 c -1.53928,-1.16888 -2.41637,-2.50751 -1.94913,-2.97478 0.46727,-0.46727 -0.99624,-1.20242 -3.25223,-1.63368 -5.42956,-1.03791 -5.17314,-0.22379 1.14233,3.62681 5.93224,3.61696 8.27589,4.18376 4.05903,0.98165 z m -15.7575,-9.06725 c -3.73613,-3.24033 -4.84075,-3.81893 -4.84075,-2.53563 0,1.42043 5.13633,5.7628 6.81647,5.7628 0.95988,0 0.0709,-1.45222 -1.97572,-3.22717 z m 78.25876,-17.7494 c 3.02716,-1.30082 2.99191,-1.3938 -0.56877,-1.50018 -6.69213,-0.19994 -32.31902,-9.58517 -54.92362,-20.11443 -42.07495,-19.5986 -63.77877,-26.71675 -89.32667,-29.29628 -11.9277,-1.20433 -15.53417,1.34859 -4.41659,3.12634 9.91096,1.58483 42.81565,12.78802 57.26142,19.49601 39.50777,18.34571 48.89375,22.19667 60.95772,25.01034 20.2951,4.7334 26.18211,5.35561 31.01651,3.2782 z m 35.60677,-4.45362 c 7.08955,-3.64989 12.14762,-8.45505 8.90006,-8.45505 -1.03149,0 -4.56944,1.35396 -7.86211,3.0088 -3.29266,1.65486 -8.8911,3.9209 -12.44098,5.03568 -9.31001,2.92364 -10.10439,4.46385 -2.11624,4.10314 3.82634,-0.17278 9.91002,-1.83444 13.51927,-3.69257 z M 125.89236,226.06178 c 5.14211,-3.12367 14.67657,-8.22362 21.18765,-11.33321 6.5111,-3.10959 9.66001,-5.2185 6.9976,-4.68647 -7.02605,1.40401 -29.84919,12.62171 -35.49883,17.44786 -6.84987,5.85145 -3.63723,5.22409 7.31358,-1.42818 z m 268.81348,-0.42503 c 16.81905,-8.68797 5.1949,-17.91496 -16.4821,-13.08313 -5.24679,1.16952 -10.26573,2.15308 -11.15319,2.18567 -0.88747,0.0326 -1.97664,0.50631 -2.42038,1.0527 -1.64062,2.02015 -14.67466,7.97755 -15.85622,7.2473 -0.67279,-0.41582 -1.32557,0.60198 -1.45061,2.26176 -0.31436,4.17326 2.59426,4.7066 22.95438,4.20906 14.38172,-0.35145 19.01278,-1.08637 24.40812,-3.87336 z m 11.49902,-21.71509 c -1.69001,-5.06999 -10.42408,-7.82754 -23.2679,-7.34618 l -12.63924,0.47367 11.29507,1.24914 c 6.21229,0.68703 13.83647,2.6517 16.94262,4.36593 6.65965,3.67535 8.58039,3.99027 7.66945,1.25744 z M 261.73874,168.05352 c -27.30695,-8.52699 -32.47652,-37.49172 -11.43364,-64.06198 5.34521,-6.749255 19.09598,-14.245651 26.13102,-14.245651 10.71656,0 17.84259,3.690393 29.44192,15.247221 12.47571,12.43002 18.89671,23.64078 21.99177,38.39664 2.36035,11.25304 0.73897,16.88592 -5.98847,20.80458 -10.16412,5.92053 -46.1472,8.22946 -60.1426,3.85919 z m 49.05345,-9.38955 c 3.92006,-3.92006 -10.8773,-6.11269 -17.46373,-2.58774 -2.703,1.44659 -2.91333,2.07496 -1.10412,3.29856 2.27922,1.54148 16.87429,0.98274 18.56785,-0.71082 z m -53.0755,-2.12246 c -0.53617,-0.53619 -1.92789,-0.59352 -3.09269,-0.1274 -1.28722,0.5151 -0.90487,0.89744 0.97486,0.97487 1.70099,0.0701 2.65401,-0.3113 2.11783,-0.84747 z m -10.17906,-11.09557 c -1.71367,-2.6154 -2.42558,-6.4369 -2.05418,-11.02691 0.32259,-3.98677 -0.12939,-7.02371 -1.0452,-7.02281 -1.87491,0.002 -1.95574,15.06118 -0.10321,19.22846 0.6904,1.55309 2.2835,2.82379 3.54021,2.82379 1.88013,0 1.82031,-0.70913 -0.33761,-4.00253 z m 42.43892,-26.85218 c 4.12961,-4.1296 -2.79656,-12.71205 -10.25883,-12.71205 -4.34548,0 -5.55499,0.75016 -6.35614,3.94225 -1.18413,4.71792 0.0687,7.0991 4.72363,8.97722 4.92186,1.98586 9.78286,1.90107 11.89134,-0.20742 z"
         id="path2" />
    </g>
  </g>
</svg>
